<?xml version="1.0" encoding="UTF-8"?>
<svg version="1.1" xmlns="http://www.w3.org/2000/svg" width="100" height="100">
<path d="M0 0 C2.22724761 1.06282693 4.00656376 2.28516912 5.96875 3.7734375 C8.51580865 5.31146907 10.68748886 5.5972767 13.625 6 C18.94782091 6.7899332 21.378566 8.00713687 25 12 C27.978864 18.20510772 27.99774237 24.61018072 26.06640625 31.171875 C25.34190528 33.18744171 24.58166085 35.19071581 23.77734375 37.17578125 C22.44400439 42.02002426 23.94391019 46.08194735 25.5625 50.6875 C27.60300608 57.35181295 28.10772161 63.79343745 25.8125 70.4375 C23.17643259 74.16435392 21.14374682 76.55913527 16.51171875 77.51171875 C14.59325063 77.80094838 12.67393625 78.08460845 10.75390625 78.36328125 C7.90243164 79.02255836 6.43045693 79.87755175 4.125 81.625 C-1.1029428 85.23938021 -6.89856474 84.98484705 -13 84 C-15.19904649 82.93379564 -16.96055267 81.70248863 -18.90234375 80.2265625 C-21.62307069 78.63567188 -24.00874134 78.39001029 -27.125 78 C-32.69511618 77.24747168 -35.26940638 76.2214612 -39 72 C-41.97201382 65.78766555 -41.99952971 59.39589174 -40.06640625 52.828125 C-39.34190528 50.81255829 -38.58166085 48.80928419 -37.77734375 46.82421875 C-36.44400439 41.97997574 -37.94391019 37.91805265 -39.5625 33.3125 C-41.60300608 26.64818705 -42.10772161 20.20656255 -39.8125 13.5625 C-37.08086263 9.70052993 -35.10972763 7.39823389 -30.2890625 6.48828125 C-28.18556447 6.19951389 -26.08136452 5.91582267 -23.9765625 5.63671875 C-20.96715697 4.99297452 -19.47701198 4.20900165 -17.0625 2.375 C-11.8751886 -1.2636986 -6.07517253 -0.9793729 0 0 Z M-11 10 C-8.73398135 11.29042763 -8.73398135 11.29042763 -6 12 C-3.67488528 10.73647948 -3.67488528 10.73647948 -2 9 C-6.74076549 7.81301999 -6.74076549 7.81301999 -11 10 Z M-30 16 C-32.29013653 19.4352048 -32.17842973 20.985331 -32 25 C-30.00902154 22.01353231 -29.05875074 19.40312738 -28 16 C-28.66 16 -29.32 16 -30 16 Z M-18 17 C-18.66 18.65 -19.32 20.3 -20 22 C-17.9600281 20.63676257 -17.9600281 20.63676257 -16 19 C-16 18.34 -16 17.68 -16 17 C-16.66 17 -17.32 17 -18 17 Z M2 17 C3.39332574 20.36720387 4.9789286 21.9859524 8 24 C7.3045656 20.99615946 7.3045656 20.99615946 6 18 C3.96756452 17.03122943 3.96756452 17.03122943 2 17 Z M16 17 C17 19 17 19 17 19 Z M17 19 C18 22 18 22 18 22 Z M-11.91015625 26.484375 C-12.97131677 27.56280096 -14.02178909 28.65182652 -15.0625 29.75 C-15.59166016 30.28882813 -16.12082031 30.82765625 -16.66601562 31.3828125 C-18.1388416 32.89814161 -19.57447897 34.44025612 -21 36 C-21.95712891 37.02867188 -21.95712891 37.02867188 -22.93359375 38.078125 C-24.20418824 39.98904292 -24.20418824 39.98904292 -23.953125 42.4375 C-22.05082474 47.55188102 -17.71182832 51.11656317 -14 55 C-13.24203125 55.88751953 -13.24203125 55.88751953 -12.46875 56.79296875 C-11.17350159 58.35644297 -11.17350159 58.35644297 -9 60 C-4.79185679 59.89946416 -2.6866346 58.13891317 0.203125 55.19726562 C0.67234375 54.69904297 1.1415625 54.20082031 1.625 53.6875 C2.10195313 53.20087891 2.57890625 52.71425781 3.0703125 52.21289062 C4.40671632 50.83379613 5.70462061 49.4176985 7 48 C7.62648438 47.32582031 8.25296875 46.65164062 8.8984375 45.95703125 C10.20650271 44.02013676 10.20650271 44.02013676 9.953125 41.5625 C8.75773719 38.34867047 7.1002371 36.49031746 4.75 34 C3.93660156 33.13632812 3.12320313 32.27265625 2.28515625 31.3828125 C1.53105469 30.59648438 0.77695312 29.81015625 0 29 C-0.77537109 28.12988281 -0.77537109 28.12988281 -1.56640625 27.2421875 C-2.90187573 25.72074998 -2.90187573 25.72074998 -5 24 C-9.13069399 23.56714881 -9.13069399 23.56714881 -11.91015625 26.484375 Z M-32 59 C-32.23428313 63.7897321 -32.23428313 63.7897321 -30 68 C-29.34 67.67 -28.68 67.34 -28 67 C-28.99 64.36 -29.98 61.72 -31 59 C-31.33 59 -31.66 59 -32 59 Z M4.4375 62.375 C1.77318297 64.64723409 1.77318297 64.64723409 2 67 C3.96756452 66.96877057 3.96756452 66.96877057 6 66 C7.3045656 63.00384054 7.3045656 63.00384054 8 60 C6.53992901 59.88670589 6.53992901 59.88670589 4.4375 62.375 Z M-20 62 C-19.34 63.65 -18.68 65.3 -18 67 C-17.34 67 -16.68 67 -16 67 C-17.3089572 63.87802522 -17.3089572 63.87802522 -20 62 Z M17 62 C18 65 18 65 18 65 Z M16 65 C17 67 17 67 17 67 Z M-8 72 C-8.99 72.99 -9.98 73.98 -11 75 C-8.14221967 75.68493373 -8.14221967 75.68493373 -5 76 C-4.01 75.34 -3.02 74.68 -2 74 C-3.98 73.34 -5.96 72.68 -8 72 Z " fill="#8593AB" transform="translate(57,8)"/>
<path d="M0 0 C10.42899434 3.65692009 17.93454605 17.07068041 22.60546875 26.30078125 C26.21687196 33.85463296 26.97949263 40.36301944 26.10546875 48.73828125 C24.76717183 51.67323356 23.67065339 52.65034026 21.10546875 54.73828125 C18.10546875 55.73828125 18.10546875 55.73828125 14.41796875 55.42578125 C10.65960227 55.34363116 9.06818415 56.25825495 6.23046875 58.67578125 C1.79969206 62.33334396 -2.1824996 63.28401676 -7.89453125 62.73828125 C-12.28845728 61.39828962 -15.42023127 59.14341248 -18.89453125 56.17578125 C-21.54874829 54.0192299 -23.03114309 53.18280848 -26.14453125 52.11328125 C-29.89453125 50.73828125 -29.89453125 50.73828125 -31.89453125 47.73828125 C-32.62098933 40.75673606 -32.87728576 33.71241302 -28.89453125 27.73828125 C-25.70703125 26.30078125 -25.70703125 26.30078125 -22.89453125 25.73828125 C-22.50523438 26.28355469 -22.1159375 26.82882813 -21.71484375 27.390625 C-17.07450264 33.64546267 -11.81580007 38.69865004 -5.89453125 43.73828125 C-6.22453125 44.39828125 -6.55453125 45.05828125 -6.89453125 45.73828125 C-10.92572769 45.21155698 -13.0318525 44.16155767 -16.01953125 41.42578125 C-16.68210937 40.83152344 -17.3446875 40.23726562 -18.02734375 39.625 C-19.86010827 37.7730643 -21.38671713 35.85952285 -22.89453125 33.73828125 C-21.3288501 42.63794252 -18.86756787 49.65922368 -11.89453125 55.73828125 C-8.19894297 58.20200677 -5.18408926 58.31411686 -0.89453125 57.73828125 C2.03093315 56.38735245 2.03093315 56.38735245 4.10546875 54.73828125 C1.46546875 53.41828125 -1.17453125 52.09828125 -3.89453125 50.73828125 C-2.90453125 49.74828125 -1.91453125 48.75828125 -0.89453125 47.73828125 C2.07546875 48.72828125 5.04546875 49.71828125 8.10546875 50.73828125 C11.72043553 42.84901413 14.94465276 35.42438711 16.10546875 26.73828125 C16.76546875 26.73828125 17.42546875 26.73828125 18.10546875 26.73828125 C12.369303 18.31964968 6.61624131 10.69611349 -0.89453125 3.73828125 C-1.89899547 2.74276549 -2.90078107 1.74449225 -3.89453125 0.73828125 C-1.89453125 -0.26171875 -1.89453125 -0.26171875 0 0 Z M-29.89453125 39.73828125 C-30.12881438 44.52801335 -30.12881438 44.52801335 -27.89453125 48.73828125 C-27.23453125 48.40828125 -26.57453125 48.07828125 -25.89453125 47.73828125 C-26.88453125 45.09828125 -27.87453125 42.45828125 -28.89453125 39.73828125 C-29.22453125 39.73828125 -29.55453125 39.73828125 -29.89453125 39.73828125 Z M19.10546875 42.73828125 C20.10546875 45.73828125 20.10546875 45.73828125 20.10546875 45.73828125 Z M18.10546875 45.73828125 C19.10546875 47.73828125 19.10546875 47.73828125 19.10546875 47.73828125 Z " fill="#7399C7" transform="translate(54.89453125,27.26171875)"/>
<path d="M0 0 C2.22724761 1.06282693 4.00656376 2.28516912 5.96875 3.7734375 C8.51580865 5.31146907 10.68748886 5.5972767 13.625 6 C18.94782091 6.7899332 21.378566 8.00713687 25 12 C28.65704335 19.55368609 27.54931268 27.58881625 24.94921875 35.3203125 C24 37 24 37 21 38 C21.33 36.783125 21.66 35.56625 22 34.3125 C23.48071728 27.5419739 24.9400438 19.38804751 21.3828125 13.17578125 C18.37243602 10.42696208 16.52290021 10.26505265 12.5 9.9375 C7.40576945 9.51103345 5.36495445 8.86484791 2 5 C-2.99031842 2.56286775 -7.71598885 2.51824026 -13 4 C-14.77152551 5.12415983 -14.77152551 5.12415983 -16.375 6.5 C-20.17621825 9.61735422 -23.69732295 9.47247113 -28.46875 9.6953125 C-31.92488152 10.11132833 -33.6875483 11.45630313 -36 14 C-39.48068859 20.96137719 -36.82590408 31.00945019 -34.65625 38.05078125 C-34.4396875 38.69402344 -34.223125 39.33726563 -34 40 C-33.34 40 -32.68 40 -32 40 C-32.144375 39.42894531 -32.28875 38.85789063 -32.4375 38.26953125 C-34.02127589 31.35151016 -35.1289496 24.06071869 -34 17 C-32.07875824 14.38485603 -30.92762055 13.20346772 -27.73828125 12.50390625 C-20.94675856 12.66795269 -15.09595722 13.95202139 -9 17 C-10.10794922 17.82177734 -10.10794922 17.82177734 -11.23828125 18.66015625 C-22.81584175 27.70742399 -34.02131397 40.13340488 -37 55 C-37.16686345 57.14187021 -37.26532197 59.28965792 -37.3125 61.4375 C-37.34988281 62.54996094 -37.38726562 63.66242188 -37.42578125 64.80859375 C-36.9113259 68.66464898 -35.69025788 70.24984769 -33 73 C-30.50787318 74.24606341 -29.13618789 73.90548852 -26.375 73.6875 C-21.05883798 73.59597354 -18.92976979 75.24246401 -15 78.5859375 C-11.56783523 81.01258525 -8.12285377 81.32744687 -4 81 C-0.08916827 79.74057961 2.6858043 78.22910103 6 75.8125 C9.63874605 73.61409093 11.81969041 73.92399437 16 74 C19.69064293 72.28342189 22.23952781 69.96495162 25 67 C25.33 67.99 25.66 68.98 26 70 C23.20341629 74.66097285 20.06752104 76.28219626 15 78 C13.865625 78.12375 12.73125 78.2475 11.5625 78.375 C8.02368349 78.995845 7.10815089 79.51693424 4.375 81.5625 C-1.00730124 85.1541913 -6.76184663 85.00691505 -13 84 C-15.19904649 82.93379564 -16.96055267 81.70248863 -18.90234375 80.2265625 C-21.62307069 78.63567188 -24.00874134 78.39001029 -27.125 78 C-32.69511618 77.24747168 -35.26940638 76.2214612 -39 72 C-41.97201382 65.78766555 -41.99952971 59.39589174 -40.06640625 52.828125 C-39.34190528 50.81255829 -38.58166085 48.80928419 -37.77734375 46.82421875 C-36.44400439 41.97997574 -37.94391019 37.91805265 -39.5625 33.3125 C-41.60300608 26.64818705 -42.10772161 20.20656255 -39.8125 13.5625 C-37.08086263 9.70052993 -35.10972763 7.39823389 -30.2890625 6.48828125 C-28.18556447 6.19951389 -26.08136452 5.91582267 -23.9765625 5.63671875 C-20.96715697 4.99297452 -19.47701198 4.20900165 -17.0625 2.375 C-11.8751886 -1.2636986 -6.07517253 -0.9793729 0 0 Z M-30 16 C-32.29013653 19.4352048 -32.17842973 20.985331 -32 25 C-30.00902154 22.01353231 -29.05875074 19.40312738 -28 16 C-28.66 16 -29.32 16 -30 16 Z M-18 17 C-18.66 18.65 -19.32 20.3 -20 22 C-17.9600281 20.63676257 -17.9600281 20.63676257 -16 19 C-16 18.34 -16 17.68 -16 17 C-16.66 17 -17.32 17 -18 17 Z " fill="#262A34" transform="translate(57,8)"/>
<path d="M0 0 C9.86550873 2.35985591 17.85400507 14.95844523 23 23 C23.66 23.99 24.32 24.98 25 26 C24.505 27.485 24.505 27.485 24 29 C23.505 28.01 23.505 28.01 23 27 C22.76216797 27.98226562 22.76216797 27.98226562 22.51953125 28.984375 C20.66660927 36.23226873 18.39025163 43.30900834 15 50 C13 51 13 51 11.125 50.40625 C9.70833333 49.80208333 8.29166667 49.19791667 6.875 48.59375 C4.93789833 47.74089761 4.93789833 47.74089761 3 49 C5.64 50.32 8.28 51.64 11 53 C8.375 56.875 8.375 56.875 5 58 C-0.60578231 58.56057823 -3.96138364 58.26078061 -8.40234375 54.6796875 C-13.54936931 49.26838923 -17.72259993 40.4384012 -18.1875 33 C-18.125625 32.34 -18.06375 31.68 -18 31 C-15.65783078 33.25542221 -13.56002077 35.53897456 -11.5 38.0625 C-8.61225904 41.48808113 -8.61225904 41.48808113 -5 44 C-2.9039327 43.605045 -2.9039327 43.605045 -1 43 C-1.65226562 42.43152344 -2.30453125 41.86304688 -2.9765625 41.27734375 C-8.06885149 36.77840407 -12.72733637 32.28461028 -17 27 C-17.66 27.99 -18.32 28.98 -19 30 C-20.53681131 22.89224768 -20.53681131 22.89224768 -18.56640625 19.6171875 C-13.22315748 12.3053734 -7.60602926 5.07068617 0 0 Z M-3.91015625 6.484375 C-4.97131677 7.56280096 -6.02178909 8.65182652 -7.0625 9.75 C-7.59166016 10.28882813 -8.12082031 10.82765625 -8.66601562 11.3828125 C-10.1388416 12.89814161 -11.57447897 14.44025612 -13 16 C-13.95712891 17.02867188 -13.95712891 17.02867188 -14.93359375 18.078125 C-16.20418824 19.98904292 -16.20418824 19.98904292 -15.953125 22.4375 C-14.05082474 27.55188102 -9.71182832 31.11656317 -6 35 C-5.24203125 35.88751953 -5.24203125 35.88751953 -4.46875 36.79296875 C-3.17350159 38.35644297 -3.17350159 38.35644297 -1 40 C3.20814321 39.89946416 5.3133654 38.13891317 8.203125 35.19726562 C8.67234375 34.69904297 9.1415625 34.20082031 9.625 33.6875 C10.10195313 33.20087891 10.57890625 32.71425781 11.0703125 32.21289062 C12.40671632 30.83379613 13.70462061 29.4176985 15 28 C15.62648438 27.32582031 16.25296875 26.65164062 16.8984375 25.95703125 C18.20650271 24.02013676 18.20650271 24.02013676 17.953125 21.5625 C16.75773719 18.34867047 15.1002371 16.49031746 12.75 14 C11.93660156 13.13632812 11.12320313 12.27265625 10.28515625 11.3828125 C9.53105469 10.59648438 8.77695312 9.81015625 8 9 C7.22462891 8.12988281 7.22462891 8.12988281 6.43359375 7.2421875 C5.09812427 5.72074998 5.09812427 5.72074998 3 4 C-1.13069399 3.56714881 -1.13069399 3.56714881 -3.91015625 6.484375 Z M12.4375 42.375 C9.77318297 44.64723409 9.77318297 44.64723409 10 47 C11.96756452 46.96877057 11.96756452 46.96877057 14 46 C15.3045656 43.00384054 15.3045656 43.00384054 16 40 C14.53992901 39.88670589 14.53992901 39.88670589 12.4375 42.375 Z M-12 42 C-11.34 43.65 -10.68 45.3 -10 47 C-9.34 47 -8.68 47 -8 47 C-9.3089572 43.87802522 -9.3089572 43.87802522 -12 42 Z M0 52 C-0.99 52.99 -1.98 53.98 -3 55 C-0.14221967 55.68493373 -0.14221967 55.68493373 3 56 C3.99 55.34 4.98 54.68 6 54 C4.02 53.34 2.04 52.68 0 52 Z " fill="#232630" transform="translate(49,28)"/>
<path d="M0 0 C0.33 0 0.66 0 1 0 C1.34652233 3.66247452 1.34161022 5.48487347 -0.72265625 8.59765625 C-1.88087891 9.81775391 -1.88087891 9.81775391 -3.0625 11.0625 C-3.8771875 11.92101562 -4.691875 12.77953125 -5.53125 13.6640625 C-7.63294073 15.65268759 -9.67293745 17.3216073 -12.0625 18.9375 C-13.5165625 19.9584375 -13.5165625 19.9584375 -15 21 C-15 21.99 -15 22.98 -15 24 C-12.69 24.99 -10.38 25.98 -8 27 C-10.625 30.875 -10.625 30.875 -14 32 C-19.60578231 32.56057823 -22.96138364 32.26078061 -27.40234375 28.6796875 C-32.54936931 23.26838923 -36.72259993 14.4384012 -37.1875 7 C-37.125625 6.34 -37.06375 5.68 -37 5 C-34.65783078 7.25542221 -32.56002077 9.53897456 -30.5 12.0625 C-26.69688566 16.64485782 -26.69688566 16.64485782 -21.24609375 18.38671875 C-16.98072091 17.87856964 -14.92274051 15.85267477 -12 12.9375 C-11.47817139 12.43887451 -10.95634277 11.94024902 -10.41870117 11.42651367 C-6.69060242 7.81952136 -3.2945607 4.00689815 0 0 Z M-31 16 C-30.34 17.65 -29.68 19.3 -29 21 C-28.34 21 -27.68 21 -27 21 C-28.3089572 17.87802522 -28.3089572 17.87802522 -31 16 Z M-19 26 C-19.99 26.99 -20.98 27.98 -22 29 C-19.14221967 29.68493373 -19.14221967 29.68493373 -16 30 C-15.01 29.34 -14.02 28.68 -13 28 C-14.98 27.34 -16.96 26.68 -19 26 Z " fill="#8695AC" transform="translate(68,54)"/>
<path d="M0 0 C3.55247432 0.87379409 4.94828114 2.4927342 6.9375 5.4765625 C7.63597125 8.3162489 7.63597125 10.6368761 6.9375 13.4765625 C4.94828114 16.4603908 3.55247432 18.07933091 0 18.953125 C-3.92313492 19.23547183 -5.73362371 18.69581336 -9.0625 16.4765625 C-11.28175086 13.14768621 -11.82140933 11.33719742 -11.5390625 7.4140625 C-10.07519871 1.46261629 -5.59135555 -0.40240816 0 0 Z " fill="#E75869" transform="translate(52.0625,40.5234375)"/>
<path d="M0 0 C1.14051875 3.42155624 0.89427235 3.73793624 -0.4375 6.875 C-2.51088903 12.73040419 -3.0090533 18.8662272 -2 25 C-0.18891495 27.69245498 1.08544276 29.54272138 4 31 C5.54294187 30.91683027 7.08461112 30.80910965 8.625 30.6875 C13.94116202 30.59597354 16.07023021 32.24246401 20 35.5859375 C23.43216477 38.01258525 26.87714623 38.32744687 31 38 C34.91083173 36.74057961 37.6858043 35.22910103 41 32.8125 C44.63874605 30.61409093 46.81969041 30.92399437 51 31 C54.69064293 29.28342189 57.23952781 26.96495162 60 24 C60.495 25.485 60.495 25.485 61 27 C58.20341629 31.66097285 55.06752104 33.28219626 50 35 C48.865625 35.12375 47.73125 35.2475 46.5625 35.375 C43.02368349 35.995845 42.10815089 36.51693424 39.375 38.5625 C33.99269876 42.1541913 28.23815337 42.00691505 22 41 C19.80095351 39.93379564 18.03944733 38.70248863 16.09765625 37.2265625 C13.37692931 35.63567188 10.99125866 35.39001029 7.875 35 C2.30488382 34.24747168 -0.26940638 33.2214612 -4 29 C-8.1148393 20.39884285 -6.07112947 11.98273602 -3.0703125 3.3359375 C-2 1 -2 1 0 0 Z " fill="#232632" transform="translate(22,51)"/>
<path d="M0 0 C2.22724761 1.06282693 4.00656376 2.28516912 5.96875 3.7734375 C8.51580865 5.31146907 10.68748886 5.5972767 13.625 6 C18.94782091 6.7899332 21.378566 8.00713687 25 12 C28.65704335 19.55368609 27.54931268 27.58881625 24.94921875 35.3203125 C24 37 24 37 21 38 C21.33 36.783125 21.66 35.56625 22 34.3125 C23.48071728 27.5419739 24.9400438 19.38804751 21.3828125 13.17578125 C18.37243602 10.42696208 16.52290021 10.26505265 12.5 9.9375 C7.40576945 9.51103345 5.36495445 8.86484791 2 5 C-2.99031842 2.56286775 -7.71598885 2.51824026 -13 4 C-14.77152551 5.12415983 -14.77152551 5.12415983 -16.375 6.5 C-20.17798582 9.61880379 -23.70152465 9.46487505 -28.47265625 9.70703125 C-32.01369952 10.11750767 -33.69548441 11.32378834 -36 14 C-37.33298974 16.61818456 -37.33298974 16.61818456 -38 19 C-38.99 19 -39.98 19 -41 19 C-40.06678907 14.24062428 -39.0825747 11.04875143 -35.03125 7.98046875 C-31.52811787 6.28953382 -27.76826302 6.08050654 -23.94140625 5.6015625 C-20.93383517 4.98646828 -19.47114572 4.2057753 -17.0625 2.375 C-11.8751886 -1.2636986 -6.07517253 -0.9793729 0 0 Z " fill="#222530" transform="translate(57,8)"/>
<path d="M0 0 C6.17569666 0.64940315 10.52446138 6.26730321 14.30859375 10.7109375 C23.5292448 22.55939636 29.59491402 33.71686783 28 49 C26.66170308 51.93495231 25.56518464 52.91205901 23 55 C19.52674819 56.1577506 16.63932552 56.06866652 13 56 C14.7938962 53.01017301 15.65249473 52.10637916 19.0625 51.0625 C22.08217013 50.28312918 22.08217013 50.28312918 23.4375 48 C25.29355236 38.10105407 21.49659891 29.77065661 16.3125 21.5625 C11.19732085 14.16815242 5.12980326 7.48446405 -2 2 C-1.34 1.34 -0.68 0.68 0 0 Z " fill="#BCD3E5" transform="translate(53,27)"/>
<path d="M0 0 C2.30859375 1.65625 2.30859375 1.65625 4 4 C4.4609375 6.83984375 4.4609375 6.83984375 4.375 9.9375 C4.35566406 11.46697266 4.35566406 11.46697266 4.3359375 13.02734375 C3.99808415 16.01695307 3.2527591 18.27900723 2 21 C1.67 21 1.34 21 1 21 C0.81824219 20.13117187 0.63648437 19.26234375 0.44921875 18.3671875 C-1.20802818 9.75999933 -1.20802818 9.75999933 -5 2 C-7.04705437 1.3329865 -7.04705437 1.3329865 -9 1 C-8.65066406 1.70125 -8.30132812 2.4025 -7.94140625 3.125 C-5.18613541 8.86970068 -3.36068847 13.62783702 -3 20 C-6.59821303 17.30134022 -9.20270764 14.49661545 -12 11 C-15.38424321 7.75656009 -15.38424321 7.75656009 -19.8125 6.75 C-20.8953125 6.87375 -20.8953125 6.87375 -22 7 C-16.2955515 0.38283974 -8.49649317 -1.65245732 0 0 Z M-14 4 C-12.60667426 7.36720387 -11.0210714 8.9859524 -8 11 C-8.6954344 7.99615946 -8.6954344 7.99615946 -10 5 C-12.03243548 4.03122943 -12.03243548 4.03122943 -14 4 Z M0 4 C1 6 1 6 1 6 Z M1 6 C2 9 2 9 2 9 Z " fill="#262934" transform="translate(73,21)"/>
<path d="M0 0 C7.41816008 2.62909758 7.41816008 2.62909758 9.96484375 5.17578125 C7.90234375 6.36328125 7.90234375 6.36328125 4.96484375 7.17578125 C3.29648844 6.45609857 1.63012544 5.72830455 0 4.92578125 C-3.82266295 3.51704558 -8.04534468 3.46431135 -12.03515625 4.17578125 C-13.94389826 5.19339813 -13.94389826 5.19339813 -15.03515625 7.17578125 C-15.43677635 10.3078498 -15.43677635 10.3078498 -15.28515625 13.73828125 C-15.2696875 14.89457031 -15.25421875 16.05085938 -15.23828125 17.2421875 C-15.22859398 20.10920768 -15.22859398 20.10920768 -14.03515625 22.17578125 C-13.90100153 24.84814335 -13.99197084 27.49828613 -14.03515625 30.17578125 C-14.69515625 30.17578125 -15.35515625 30.17578125 -16.03515625 30.17578125 C-19.57823158 22.28294827 -21.42363951 14.84505069 -20.03515625 6.17578125 C-15.91554303 -2.07864672 -8.06119195 -2.18907529 0 0 Z " fill="#B9CFE1" transform="translate(39.03515625,17.82421875)"/>
<path d="M0 0 C2.25 -0.0625 2.25 -0.0625 5 1 C8.29465502 6.11509153 9.71727282 12.12083376 11 18 C11.33 18 11.66 18 12 18 C12.33 19.98 12.66 21.96 13 24 C14.32 23.67 15.64 23.34 17 23 C16.7525 23.9075 16.505 24.815 16.25 25.75 C15.67642539 29.54324009 16.61456953 32.18505053 17.9375 35.75 C20.11071057 41.66471743 20.44262148 46.75411906 20 53 C19.01 53 18.02 53 17 53 C16.98582031 52.20078125 16.97164062 51.4015625 16.95703125 50.578125 C16.53330908 40.82106321 14.45152296 32.17174132 8.3125 24.375 C5.66537331 20.98799318 5.19419408 17.75488281 4.53515625 13.5703125 C3.80226073 10.05027418 2.37835904 7.02876299 0.8046875 3.8125 C0 2 0 2 0 0 Z " fill="#2E3440" transform="translate(64,22)"/>
<path d="M0 0 C2.5 2.125 2.5 2.125 3.5 5.125 C2.76394531 5.39054687 2.02789062 5.65609375 1.26953125 5.9296875 C0.29371094 6.28289063 -0.68210937 6.63609375 -1.6875 7 C-3.13189453 7.52207031 -3.13189453 7.52207031 -4.60546875 8.0546875 C-7.25634859 9.03490488 -9.8813098 10.06220434 -12.5 11.125 C-12.89832031 10.66480469 -13.29664063 10.20460938 -13.70703125 9.73046875 C-15.79866516 7.8575678 -17.51421992 7.25110698 -20.1875 6.4375 C-20.99574219 6.18613281 -21.80398437 5.93476563 -22.63671875 5.67578125 C-23.25160156 5.49402344 -23.86648437 5.31226563 -24.5 5.125 C-17.37138736 -2.8676869 -9.47873228 -5.07789229 0 0 Z M-14.5 5.125 C-12.23398135 6.41542763 -12.23398135 6.41542763 -9.5 7.125 C-7.17488528 5.86147948 -7.17488528 5.86147948 -5.5 4.125 C-10.24076549 2.93801999 -10.24076549 2.93801999 -14.5 5.125 Z " fill="#292E3B" transform="translate(60.5,12.875)"/>
<path d="M0 0 C2.125 0.9375 2.125 0.9375 4 2 C3.67 2.99 3.34 3.98 3 5 C2.67 4.34 2.34 3.68 2 3 C1.76216797 3.98226562 1.76216797 3.98226562 1.51953125 4.984375 C-0.33339073 12.23226873 -2.60974837 19.30900834 -6 26 C-8 27 -8 27 -9.875 26.4765625 C-10.57625 26.19554688 -11.2775 25.91453125 -12 25.625 C-12.70125 25.34914063 -13.4025 25.07328125 -14.125 24.7890625 C-15.43630239 24.23722274 -16.72750919 23.6362454 -18 23 C-17.26394531 22.41992188 -16.52789062 21.83984375 -15.76953125 21.2421875 C-8.09992562 15.35640914 -8.09992562 15.35640914 -2 8 C-1.58095297 4.24797733 -1.58095297 4.24797733 -2 1 C-1.34 0.67 -0.68 0.34 0 0 Z M-8.5625 18.375 C-11.22681703 20.64723409 -11.22681703 20.64723409 -11 23 C-9.03243548 22.96877057 -9.03243548 22.96877057 -7 22 C-5.6954344 19.00384054 -5.6954344 19.00384054 -5 16 C-6.46007099 15.88670589 -6.46007099 15.88670589 -8.5625 18.375 Z " fill="#252935" transform="translate(70,52)"/>
<path d="M0 0 C3.55247432 0.87379409 4.94828114 2.4927342 6.9375 5.4765625 C7.63597125 8.3162489 7.63597125 10.6368761 6.9375 13.4765625 C4.94828114 16.4603908 3.55247432 18.07933091 0 18.953125 C-3.92313492 19.23547183 -5.73362371 18.69581336 -9.0625 16.4765625 C-11.28175086 13.14768621 -11.82140933 11.33719742 -11.5390625 7.4140625 C-10.07519871 1.46261629 -5.59135555 -0.40240816 0 0 Z M-7.4375 4.1015625 C-9.54956506 7.18842682 -9.67445145 8.8048538 -9.0625 12.4765625 C-7.5625 14.9765625 -7.5625 14.9765625 -5.0625 16.4765625 C-1.3907913 17.08851395 0.22563568 16.96362756 3.3125 14.8515625 C5.42456506 11.76469818 5.54945145 10.1482712 4.9375 6.4765625 C3.4375 3.9765625 3.4375 3.9765625 0.9375 2.4765625 C-2.7342087 1.86461105 -4.35063568 1.98949744 -7.4375 4.1015625 Z " fill="#23222C" transform="translate(52.0625,40.5234375)"/>
<path d="M0 0 C0.33 0 0.66 0 1 0 C1.08636719 0.72703125 1.17273438 1.4540625 1.26171875 2.203125 C2.23840224 9.19223624 4.03024738 15.09183896 6.9765625 21.50390625 C8 24 8 24 8 27 C6.35063087 26.21572648 4.70558873 25.42234741 3.0625 24.625 C2.14597656 24.18414062 1.22945312 23.74328125 0.28515625 23.2890625 C-2 22 -2 22 -3 20 C-3.53095543 12.69936278 -3.61091779 6.46956104 0 0 Z M-1 12 C-1.23428313 16.7897321 -1.23428313 16.7897321 1 21 C1.66 20.67 2.32 20.34 3 20 C2.01 17.36 1.02 14.72 0 12 C-0.33 12 -0.66 12 -1 12 Z " fill="#262A36" transform="translate(26,55)"/>
<path d="M0 0 C0.89203125 0.03609375 1.7840625 0.0721875 2.703125 0.109375 C3.71632813 0.17898437 3.71632813 0.17898437 4.75 0.25 C4.13382813 0.49878906 3.51765625 0.74757813 2.8828125 1.00390625 C-0.93862134 3.23657547 -1.90592551 7.19398761 -3.25 11.25 C-4.08437564 14.89687781 -4.72393829 18.54680242 -5.25 22.25 C-5.91 22.25 -6.57 22.25 -7.25 22.25 C-9.09731235 18.29675156 -9.57456605 15.03994996 -9.625 10.6875 C-9.65335938 9.57246094 -9.68171875 8.45742188 -9.7109375 7.30859375 C-9.25 4.25 -9.25 4.25 -7.5546875 1.86328125 C-4.77428408 -0.08300114 -3.35350782 -0.17650041 0 0 Z M-5.25 3.25 C-7.54013653 6.6852048 -7.42842973 8.235331 -7.25 12.25 C-5.25902154 9.26353231 -4.30875074 6.65312738 -3.25 3.25 C-3.91 3.25 -4.57 3.25 -5.25 3.25 Z " fill="#232631" transform="translate(32.25,20.75)"/>
<path d="M0 0 C3.19723349 3.19723349 3.96142779 6.91710062 4.04296875 11.3203125 C3.77925372 15.03685452 3.45032994 17.37275472 1.25 20.4375 C-1.10589665 22.07353934 -3.2917886 23.07350663 -6 24 C-6.66 24.33 -7.32 24.66 -8 25 C-6.92179637 22.30198349 -5.8398378 19.60583135 -4.74609375 16.9140625 C-1.46193057 8.6779382 -1.46193057 8.6779382 0 0 Z M0 13 C1 16 1 16 1 16 Z M-1 16 C0 18 0 18 0 18 Z " fill="#2A2E39" transform="translate(74,57)"/>
<path d="M0 0 C2.34216922 2.25542221 4.43997923 4.53897456 6.5 7.0625 C9.78474483 10.92207517 12.46881166 12.73440583 17 15 C12.05 17.475 12.05 17.475 7 20 C-0.68283582 7.28358209 -0.68283582 7.28358209 0 0 Z M6 11 C6.66 12.65 7.32 14.3 8 16 C8.66 16 9.32 16 10 16 C8.6910428 12.87802522 8.6910428 12.87802522 6 11 Z " fill="#262A35" transform="translate(31,59)"/>
<path d="M0 0 C0.75667969 0.15339844 1.51335938 0.30679687 2.29296875 0.46484375 C5.18679479 1.03692769 8.08864902 1.52605914 11 2 C7.72028155 5.37910386 4.3113304 8.4700798 0.71484375 11.5078125 C-1.64623049 13.56232357 -3.82073711 15.75469885 -6 18 C-5.55397709 11.30965634 -2.92654458 5.97187878 0 0 Z M2 3 C1.34 4.65 0.68 6.3 0 8 C2.0399719 6.63676257 2.0399719 6.63676257 4 5 C4 4.34 4 3.68 4 3 C3.34 3 2.68 3 2 3 Z " fill="#232732" transform="translate(37,22)"/>
<path d="M0 0 C2.60472808 2.50053896 4.97588415 5.12789759 7.3125 7.875 C10.59508439 11.66915598 14.11640171 14.82971568 18 18 C17.67 18.66 17.34 19.32 17 20 C11.11550472 19.20175542 7.99424966 16.2027178 4 12 C1.13667338 8.23540344 -0.58669779 4.84025676 0 0 Z " fill="#B8CEE0" transform="translate(31,53)"/>
<path d="M0 0 C3.33333333 1.66666667 6.66666667 3.33333333 10 5 C7.375 8.875 7.375 8.875 4 10 C-1.06051747 10.50605175 -3.81978238 10.50771755 -8 7.5 C-8.99 6.675 -9.98 5.85 -11 5 C-10.67 4.34 -10.34 3.68 -10 3 C-9.01 3.33 -8.02 3.66 -7 4 C-5.18819694 3.2127445 -5.18819694 3.2127445 -3.4375 2 C-1.7359375 1.01 -1.7359375 1.01 0 0 Z M-1 4 C-1.99 4.99 -2.98 5.98 -4 7 C-1.14221967 7.68493373 -1.14221967 7.68493373 2 8 C2.99 7.34 3.98 6.68 5 6 C3.02 5.34 1.04 4.68 -1 4 Z " fill="#242733" transform="translate(50,76)"/>
<path d="M0 0 C1.2065625 0.9590625 1.2065625 0.9590625 2.4375 1.9375 C2.1075 2.5975 1.7775 3.2575 1.4375 3.9375 C-3.3125 3.0625 -3.3125 3.0625 -5.5625 1.9375 C-7.67205062 1.74011277 -7.67205062 1.74011277 -10 1.75 C-10.78246094 1.73582031 -11.56492187 1.72164062 -12.37109375 1.70703125 C-14.85455987 1.79663936 -14.85455987 1.79663936 -17.5625 3.9375 C-20.25 4.0625 -20.25 4.0625 -22.5625 3.9375 C-21.29971868 0.14915605 -20.04137048 -0.28261278 -16.5625 -2.0625 C-10.94837232 -3.83355471 -4.92758807 -3.30066469 0 0 Z " fill="#749BCA" transform="translate(60.5625,13.0625)"/>
<path d="M0 0 C2.25 -0.0625 2.25 -0.0625 5 1 C8.3685456 6.47388661 10.1566529 12.34760273 10.0625 18.75 C10.05347656 19.54921875 10.04445313 20.3484375 10.03515625 21.171875 C10.02355469 21.77515625 10.01195313 22.3784375 10 23 C6.35103906 19.8701381 5.15083131 17.22442549 3.875 12.625 C3.40707031 10.97371094 3.40707031 10.97371094 2.9296875 9.2890625 C2.46949219 7.66097656 2.46949219 7.66097656 2 6 C1.34434738 3.99636229 0.68111539 1.99512563 0 0 Z " fill="#7299C7" transform="translate(64,22)"/>
<path d="M0 0 C1.32 0 2.64 0 4 0 C3.70867188 0.86238281 3.41734375 1.72476562 3.1171875 2.61328125 C2.406358 4.76813852 1.72107122 6.93171589 1.0703125 9.10546875 C0.75835937 10.12253906 0.44640625 11.13960937 0.125 12.1875 C-0.18179688 13.21230469 -0.48859375 14.23710938 -0.8046875 15.29296875 C-2.11218114 18.25405728 -3.27081073 19.33850612 -6 21 C-6.67459432 13.41081393 -4.20400029 6.30600043 0 0 Z " fill="#7299C6" transform="translate(33,22)"/>
<path d="M0 0 C2.04296875 0.4609375 2.04296875 0.4609375 4.1875 1.375 C4.90292969 1.67148438 5.61835937 1.96796875 6.35546875 2.2734375 C7.16951172 2.63308594 7.16951172 2.63308594 8 3 C7.01 4.485 7.01 4.485 6 6 C2.17902761 5.46930939 -0.06171403 4.50298434 -3 2 C-2.01 1.34 -1.02 0.68 0 0 Z " fill="#B7CEDF" transform="translate(54,75)"/>
<path d="M0 0 C-0.99 0.66 -1.98 1.32 -3 2 C-3 2.66 -3 3.32 -3 4 C-3.99 4 -4.98 4 -6 4 C-6 4.99 -6 5.98 -6 7 C-6.66 7 -7.32 7 -8 7 C-8.6875 5.1875 -8.6875 5.1875 -9 3 C-6.75886401 -0.69128281 -4.00118708 -0.26674581 0 0 Z " fill="#A84755" transform="translate(53,43)"/>
<path d="M0 0 C2.125 0.9375 2.125 0.9375 4 2 C3.67 2.99 3.34 3.98 3 5 C2.67 4.34 2.34 3.68 2 3 C1.67 4.65 1.34 6.3 1 8 C0.34 7.67 -0.32 7.34 -1 7 C-1.625 3.9375 -1.625 3.9375 -2 1 C-1.34 0.67 -0.68 0.34 0 0 Z " fill="#4D5E76" transform="translate(70,52)"/>
<path d="M0 0 C0 3.99904969 -1.72586967 5.80200422 -4 9 C-4.66 8.67 -5.32 8.34 -6 8 C-5.8125 5.6875 -5.8125 5.6875 -5 3 C-2.4375 1.1875 -2.4375 1.1875 0 0 Z " fill="#475161" transform="translate(30,40)"/>
<path d="M0 0 C0.66 0.33 1.32 0.66 2 1 C0.71937515 2.7074998 -0.61767557 4.37373596 -2 6 C-2.66 6 -3.32 6 -4 6 C-2.25 1.125 -2.25 1.125 0 0 Z " fill="#2B2E38" transform="translate(27,21)"/>
</svg>
