<?xml version="1.0" encoding="UTF-8"?>
<svg version="1.1" xmlns="http://www.w3.org/2000/svg" width="100" height="100">
<path d="M0 0 C1.051875 -0.01675781 2.10375 -0.03351562 3.1875 -0.05078125 C6.38877258 0.36271646 7.07251665 0.81878266 9 3.3125 C9.50660156 3.89128906 10.01320312 4.47007813 10.53515625 5.06640625 C11.03917969 5.66324219 11.54320312 6.26007812 12.0625 6.875 C15.75533051 11.24437961 17.34558967 12.51324644 23.1875 13.125 C29.22735366 13.96777028 32.54609239 15.16226791 37 19.3125 C37.495 20.7975 37.495 20.7975 38 22.3125 C38.50917969 22.76496094 39.01835938 23.21742187 39.54296875 23.68359375 C41.55032098 25.9277382 41.36928319 27.40917055 41.3125 30.375 C41.30863281 31.25285156 41.30476563 32.13070312 41.30078125 33.03515625 C41 35.3125 41 35.3125 39 37.3125 C36.85733372 39.88369953 35.20001263 41.91228526 35 45.3125 C36.35814007 48.52962945 36.35814007 48.52962945 38 51.3125 C38.66 51.3125 39.32 51.3125 40 51.3125 C41.23887548 53.79025095 41.16741669 55.54903707 41.1875 58.3125 C41.20167969 59.199375 41.21585937 60.08625 41.23046875 61 C40.93048363 64.01002015 39.58919756 64.77043825 37.4375 66.75 C35.75506028 68.36466847 35.75506028 68.36466847 35 71.3125 C28.76529814 75.23805303 23.2932265 76.04436667 16 76.3125 C15.835 77.17875 15.67 78.045 15.5 78.9375 C13.2339745 84.03605739 8.9306204 86.8471898 4 89.3125 C-0.23971058 89.54803948 -3.36178302 89.64095886 -7 87.3125 C-7 86.6525 -7 85.9925 -7 85.3125 C-8.489853 83.80218985 -8.489853 83.80218985 -10.375 82.3125 C-12.34164804 80.69385964 -14.19674196 79.11575804 -16 77.3125 C-18.65357035 75.98571483 -21.1973391 75.71717993 -24.125 75.25 C-25.22070312 75.07339844 -26.31640625 74.89679688 -27.4453125 74.71484375 C-28.28835937 74.58207031 -29.13140625 74.44929688 -30 74.3125 C-30 73.6525 -30 72.9925 -30 72.3125 C-31.423125 71.94125 -31.423125 71.94125 -32.875 71.5625 C-36 70.3125 -36 70.3125 -37.25 68.25 C-37.62125 67.2909375 -37.62125 67.2909375 -38 66.3125 C-38.66 65.9825 -39.32 65.6525 -40 65.3125 C-41.59712091 60.52113728 -41.58050244 56.05400731 -40 51.3125 C-39.67 50.6525 -39.34 49.9925 -39 49.3125 C-38.34 49.3125 -37.68 49.3125 -37 49.3125 C-35.56717789 46.78185081 -35.56717789 46.78185081 -35 43.3125 C-35.73215541 41.13293232 -35.73215541 41.13293232 -36.875 38.9375 C-39.15832525 34.31648461 -39.67436996 31.45457091 -39 26.3125 C-37.125 23.0625 -37.125 23.0625 -35 20.3125 C-34.5978125 19.2296875 -34.5978125 19.2296875 -34.1875 18.125 C-32.23853582 15.1502652 -29.31187003 14.18917148 -26 13.3125 C-24.33435063 13.22708208 -22.66734227 13.16566688 -21 13.125 C-16.59553904 12.82867541 -14.80045282 11.66761492 -11.875 8.375 C-9.57473064 5.65239167 -9.57473064 5.65239167 -9 2.3125 C-5.55324591 0.01466394 -4.06671888 0.01495117 0 0 Z M-2 7.3125 C2 8.3125 2 8.3125 2 8.3125 Z M-6 9.3125 C-6.66 10.9625 -7.32 12.6125 -8 14.3125 C-1.85210213 17.07843091 -1.85210213 17.07843091 4.5625 16 C5.366875 15.443125 6.17125 14.88625 7 14.3125 C6.67 12.6625 6.34 11.0125 6 9.3125 C2.04 9.3125 -1.92 9.3125 -6 9.3125 Z M-26 14.3125 C-26 14.6425 -26 14.9725 -26 15.3125 C-23.69 15.3125 -21.38 15.3125 -19 15.3125 C-19 14.9825 -19 14.6525 -19 14.3125 C-21.31 14.3125 -23.62 14.3125 -26 14.3125 Z M19 14.3125 C19 14.6425 19 14.9725 19 15.3125 C21.64 15.3125 24.28 15.3125 27 15.3125 C27 14.9825 27 14.6525 27 14.3125 C24.36 14.3125 21.72 14.3125 19 14.3125 Z M9 14.3125 C8.34 14.9725 7.68 15.6325 7 16.3125 C8.32 15.9825 9.64 15.6525 11 15.3125 C10.34 14.9825 9.68 14.6525 9 14.3125 Z M20 21.3125 C21 23.3125 21 23.3125 21 23.3125 Z M-21 22.3125 C-20 24.3125 -20 24.3125 -20 24.3125 Z M11 22.3125 C11.33 23.3025 11.66 24.2925 12 25.3125 C12.66 25.3125 13.32 25.3125 14 25.3125 C14 24.3225 14 23.3325 14 22.3125 C13.01 22.3125 12.02 22.3125 11 22.3125 Z M21 23.3125 C22 26.3125 22 26.3125 22 26.3125 Z M23 23.3125 C23.53721889 29.75912667 24.38505258 32.69755258 29 37.3125 C31.02350324 34.27724514 31.32124018 33.11823798 31.625 29.625 C31.69976562 28.81675781 31.77453125 28.00851563 31.8515625 27.17578125 C31.90054688 26.56089844 31.94953125 25.94601563 32 25.3125 C28.5647952 23.02236347 27.014669 23.13407027 23 23.3125 Z M-29.62109375 25.5078125 C-31.39769006 27.83298954 -31.527971 29.47581364 -31.75 32.375 C-31.82734375 33.25285156 -31.9046875 34.13070312 -31.984375 35.03515625 C-32.17230408 37.34567487 -32.17230408 37.34567487 -31 39.3125 C-27.12416739 37.73345709 -24.53501582 35.64423508 -22 32.3125 C-21.8714194 29.42479411 -22.36948167 27.17408318 -23 24.3125 C-26.54543169 23.97552402 -26.54543169 23.97552402 -29.62109375 25.5078125 Z M-15 24.3125 C-14 26.3125 -14 26.3125 -14 26.3125 Z M-22 25.3125 C-21 28.3125 -21 28.3125 -21 28.3125 Z M32 26.3125 C32 28.9525 32 31.5925 32 34.3125 C32.33 34.3125 32.66 34.3125 33 34.3125 C33 31.6725 33 29.0325 33 26.3125 C32.67 26.3125 32.34 26.3125 32 26.3125 Z M39 26.3125 C39 28.9525 39 31.5925 39 34.3125 C39.33 34.3125 39.66 34.3125 40 34.3125 C40 31.6725 40 29.0325 40 26.3125 C39.67 26.3125 39.34 26.3125 39 26.3125 Z M-33 27.3125 C-33 29.6225 -33 31.9325 -33 34.3125 C-32.67 34.3125 -32.34 34.3125 -32 34.3125 C-32 32.0025 -32 29.6925 -32 27.3125 C-32.33 27.3125 -32.66 27.3125 -33 27.3125 Z M22 27.3125 C22 28.9625 22 30.6125 22 32.3125 C22.33 32.3125 22.66 32.3125 23 32.3125 C23 30.6625 23 29.0125 23 27.3125 C22.67 27.3125 22.34 27.3125 22 27.3125 Z M-12 32.3125 C-12 32.9725 -12 33.6325 -12 34.3125 C-12.99 34.9725 -13.98 35.6325 -15 36.3125 C-15.66 35.9825 -16.32 35.6525 -17 35.3125 C-17 41.5825 -17 47.8525 -17 54.3125 C-14.69 55.3025 -12.38 56.2925 -10 57.3125 C-8 59.3125 -8 59.3125 -7 61.3125 C-2.38 61.3125 2.24 61.3125 7 61.3125 C7.33 60.3225 7.66 59.3325 8 58.3125 C9.98075027 56.95073419 11.98079663 55.61656884 14 54.3125 C16.57372711 49.16504578 15.88060414 41.85250325 15 36.3125 C12.46222501 33.15886329 9.71075819 31.79926073 6 30.3125 C5.32453125 29.93867187 4.6490625 29.56484375 3.953125 29.1796875 C-1.46201858 26.77536375 -7.16148693 29.70714681 -12 32.3125 Z M16 35.3125 C16 41.2525 16 47.1925 16 53.3125 C16.33 53.3125 16.66 53.3125 17 53.3125 C17 47.3725 17 41.4325 17 35.3125 C16.67 35.3125 16.34 35.3125 16 35.3125 Z M31 35.3125 C32 37.3125 32 37.3125 32 37.3125 Z M-24 41.3125 C-24.33 43.2925 -24.66 45.2725 -25 47.3125 C-24.01 47.8075 -24.01 47.8075 -23 48.3125 C-23 46.0025 -23 43.6925 -23 41.3125 C-23.33 41.3125 -23.66 41.3125 -24 41.3125 Z M-18 42.3125 C-17 46.3125 -17 46.3125 -17 46.3125 Z M-26 44.3125 C-25 46.3125 -25 46.3125 -25 46.3125 Z M23 44.3125 C23.33 45.6325 23.66 46.9525 24 48.3125 C24.33 47.6525 24.66 46.9925 25 46.3125 C24.34 45.6525 23.68 44.9925 23 44.3125 Z M-30 49.3125 C-29 51.3125 -29 51.3125 -29 51.3125 Z M30 50.3125 C31 52.3125 31 52.3125 31 52.3125 Z M-31 51.3125 C-30 53.3125 -30 53.3125 -30 53.3125 Z M-39 52.3125 C-38 55.3125 -38 55.3125 -38 55.3125 Z M26.4375 54.8125 C25.2309375 56.05 25.2309375 56.05 24 57.3125 C23.34 56.9825 22.68 56.6525 22 56.3125 C22.33 59.2825 22.66 62.2525 23 65.3125 C27.47883696 64.86546014 27.47883696 64.86546014 31 62.3125 C31.02253443 59.86286823 31.02253443 59.86286823 30.625 57.1875 C30.51414062 56.27742188 30.40328125 55.36734375 30.2890625 54.4296875 C30.19367188 53.73101562 30.09828125 53.03234375 30 52.3125 C28.52263018 52.19611269 28.52263018 52.19611269 26.4375 54.8125 Z M31 52.3125 C32 55.3125 32 55.3125 32 55.3125 Z M-32 53.3125 C-31 56.3125 -31 56.3125 -31 56.3125 Z M-30 53.3125 C-30.55895108 56.10725538 -31.03236505 58.49134634 -31 61.3125 C-29.00253735 64.30869397 -27.71107627 65.11857011 -24.25 66.0625 C-23.5075 66.145 -22.765 66.2275 -22 66.3125 C-22 63.0125 -22 59.7125 -22 56.3125 C-24.65228812 55.23724806 -27.28368454 54.21793849 -30 53.3125 Z M39 54.3125 C39 56.9525 39 59.5925 39 62.3125 C39.33 62.3125 39.66 62.3125 40 62.3125 C40 59.6725 40 57.0325 40 54.3125 C39.67 54.3125 39.34 54.3125 39 54.3125 Z M-40 55.3125 C-40 57.6225 -40 59.9325 -40 62.3125 C-39.67 62.3125 -39.34 62.3125 -39 62.3125 C-39 60.0025 -39 57.6925 -39 55.3125 C-39.33 55.3125 -39.66 55.3125 -40 55.3125 Z M32 56.3125 C32 57.9625 32 59.6125 32 61.3125 C32.33 61.3125 32.66 61.3125 33 61.3125 C33 59.6625 33 58.0125 33 56.3125 C32.67 56.3125 32.34 56.3125 32 56.3125 Z M-33 57.3125 C-32 60.3125 -32 60.3125 -32 60.3125 Z M-22 60.3125 C-21 63.3125 -21 63.3125 -21 63.3125 Z M-32 61.3125 C-31 63.3125 -31 63.3125 -31 63.3125 Z M-39 62.3125 C-38 64.3125 -38 64.3125 -38 64.3125 Z M-15 62.3125 C-14 64.3125 -14 64.3125 -14 64.3125 Z M21 62.3125 C22 65.3125 22 65.3125 22 65.3125 Z M31 62.3125 C32 64.3125 32 64.3125 32 64.3125 Z M-21 63.3125 C-20 66.3125 -20 66.3125 -20 66.3125 Z M12 63.3125 C12.99 64.7975 12.99 64.7975 14 66.3125 C14 65.3225 14 64.3325 14 63.3125 C13.34 63.3125 12.68 63.3125 12 63.3125 Z M-14 65.3125 C-13 68.3125 -13 68.3125 -13 68.3125 Z M8 65.3125 C8.33 65.9725 8.66 66.6325 9 67.3125 C10.32 66.9825 11.64 66.6525 13 66.3125 C11.35 65.9825 9.7 65.6525 8 65.3125 Z M20 65.3125 C21 68.3125 21 68.3125 21 68.3125 Z M-8 74.3125 C-7.34 75.9625 -6.68 77.6125 -6 79.3125 C-4.04233719 79.39332094 -2.08373272 79.45160778 -0.125 79.5 C0.96554688 79.53480469 2.05609375 79.56960937 3.1796875 79.60546875 C4.57574219 79.46044922 4.57574219 79.46044922 6 79.3125 C6.66 78.3225 7.32 77.3325 8 76.3125 C6.23084305 73.06912131 6.23084305 73.06912131 2.8125 71.9375 C-2.02156796 71.14502984 -3.75779427 72.06153369 -8 74.3125 Z M7 72.3125 C8.485 73.3025 8.485 73.3025 10 74.3125 C10.33 73.6525 10.66 72.9925 11 72.3125 C9.68 72.3125 8.36 72.3125 7 72.3125 Z M-27 73.3125 C-27 73.6425 -27 73.9725 -27 74.3125 C-24.36 74.3125 -21.72 74.3125 -19 74.3125 C-19 73.9825 -19 73.6525 -19 73.3125 C-21.64 73.3125 -24.28 73.3125 -27 73.3125 Z M19 73.3125 C19 73.6425 19 73.9725 19 74.3125 C21.64 74.3125 24.28 74.3125 27 74.3125 C27 73.9825 27 73.6525 27 73.3125 C24.36 73.3125 21.72 73.3125 19 73.3125 Z M-2 80.3125 C2 81.3125 2 81.3125 2 81.3125 Z M-3 87.3125 C-3 87.6425 -3 87.9725 -3 88.3125 C-1.02 88.3125 0.96 88.3125 3 88.3125 C3 87.9825 3 87.6525 3 87.3125 C1.02 87.3125 -0.96 87.3125 -3 87.3125 Z " fill="#0C58D1" transform="translate(50,5.6875)"/>
<path d="M0 0 C1.051875 -0.01675781 2.10375 -0.03351562 3.1875 -0.05078125 C6.38877258 0.36271646 7.07251665 0.81878266 9 3.3125 C9.50660156 3.89128906 10.01320312 4.47007813 10.53515625 5.06640625 C11.03917969 5.66324219 11.54320312 6.26007812 12.0625 6.875 C15.75533051 11.24437961 17.34558967 12.51324644 23.1875 13.125 C29.21478898 13.94690304 32.47288272 15.3117917 37 19.3125 C36.67 19.9725 36.34 20.6325 36 21.3125 C33.61435923 20.73665568 31.33317216 20.09022405 29 19.3125 C27.6625305 19.22130499 26.32104195 19.18184698 24.98046875 19.1796875 C24.20509766 19.17839844 23.42972656 19.17710938 22.63085938 19.17578125 C21.42139648 19.18158203 21.42139648 19.18158203 20.1875 19.1875 C19.39279297 19.18363281 18.59808594 19.17976563 17.77929688 19.17578125 C13.40719832 19.18301384 9.30434286 19.43915507 5 20.3125 C5 20.9725 5 21.6325 5 22.3125 C6.299375 22.43625 7.59875 22.56 8.9375 22.6875 C11.15234375 22.8984375 11.15234375 22.8984375 13 23.3125 C13.495 24.3025 13.495 24.3025 14 25.3125 C14 23.9925 14 22.6725 14 21.3125 C14.66 21.3125 15.32 21.3125 16 21.3125 C16.495 22.7975 16.495 22.7975 17 24.3125 C17.33 23.6525 17.66 22.9925 18 22.3125 C18.99 22.6425 19.98 22.9725 21 23.3125 C21.495 25.7875 21.495 25.7875 22 28.3125 C22.66 27.9825 23.32 27.6525 24 27.3125 C24.2475 28.01375 24.495 28.715 24.75 29.4375 C25.95349979 32.44346552 25.95349979 32.44346552 28.0625 35.375 C29.7619503 37.95158594 30.39252677 39.40038607 31 42.3125 C30.51789063 41.89097656 30.03578125 41.46945313 29.5390625 41.03515625 C28.90742187 40.48730469 28.27578125 39.93945312 27.625 39.375 C26.99851563 38.82972656 26.37203125 38.28445312 25.7265625 37.72265625 C24.04367666 36.24291376 24.04367666 36.24291376 22 35.3125 C23.04491454 40.33492381 23.04491454 40.33492381 26.125 44.25 C27.053125 44.7759375 27.053125 44.7759375 28 45.3125 C27.34 47.9525 26.68 50.5925 26 53.3125 C24.68 53.3125 23.36 53.3125 22 53.3125 C22 52.3225 22 51.3325 22 50.3125 C19.15306251 51.73596875 18.99853943 53.3376846 18 56.3125 C17.43244475 59.16210033 16.99783239 62.01430235 16.5625 64.88671875 C16 67.3125 16 67.3125 14 69.3125 C11.8359375 69.5078125 11.8359375 69.5078125 9.375 69.4375 C8.55773438 69.41945313 7.74046875 69.40140625 6.8984375 69.3828125 C6.27195313 69.35960938 5.64546875 69.33640625 5 69.3125 C5 68.3225 5 67.3325 5 66.3125 C7.64 66.3125 10.28 66.3125 13 66.3125 C13.66 64.0025 14.32 61.6925 15 59.3125 C14.01 59.85519531 13.02 60.39789063 12 60.95703125 C10.66681265 61.67995678 9.33347099 62.40259779 8 63.125 C7.35160156 63.48142578 6.70320313 63.83785156 6.03515625 64.20507812 C-1.73641648 68.39864955 -8.21472037 70.83264172 -17.125 70.75 C-17.89714844 70.76998047 -18.66929688 70.78996094 -19.46484375 70.81054688 C-24.90701772 70.80591129 -27.76058289 69.73247706 -32 66.3125 C-31.67 64.6625 -31.34 63.0125 -31 61.3125 C-30.484375 61.76625 -29.96875 62.22 -29.4375 62.6875 C-26.42699426 64.69450383 -23.49072763 65.43981809 -20 66.3125 C-20 66.9725 -20 67.6325 -20 68.3125 C-18.515 67.8175 -18.515 67.8175 -17 67.3125 C-17.495 66.3225 -17.495 66.3225 -18 65.3125 C-18.039992 63.31289988 -18.04346799 61.31202758 -18 59.3125 C-15.9754262 61.24504772 -14.57894208 62.94408688 -13 65.3125 C-10.57478506 65.89439266 -10.57478506 65.89439266 -7.875 66 C-6.96492188 66.06574219 -6.05484375 66.13148437 -5.1171875 66.19921875 C-4.41851562 66.23660156 -3.71984375 66.27398437 -3 66.3125 C-3 65.6525 -3 64.9925 -3 64.3125 C-3.825 64.10625 -4.65 63.9 -5.5 63.6875 C-9.95935597 61.93561015 -13.29553846 59.30239535 -17 56.3125 C-16.67 55.6525 -16.34 54.9925 -16 54.3125 C-12.51669784 54.95755596 -9.90567134 56.29467268 -7 58.3125 C-7 58.9725 -7 59.6325 -7 60.3125 C-2.38 60.3125 2.24 60.3125 7 60.3125 C7.33 59.3225 7.66 58.3325 8 57.3125 C9.64821244 56.28236723 11.31503702 55.28135372 13 54.3125 C15.59772133 49.11705735 14.96891791 41.88517818 14 36.3125 C10.40010958 32.11378835 5.89435304 30.89537786 0.75 29.3125 C-2.51510968 29.3125 -4.98736794 30.09310131 -8 31.3125 C-8.33 30.6525 -8.66 29.9925 -9 29.3125 C-9.99 28.9825 -10.98 28.6525 -12 28.3125 C-12 28.9725 -12 29.6325 -12 30.3125 C-12.58007812 30.60382812 -13.16015625 30.89515625 -13.7578125 31.1953125 C-17.78840447 33.31037561 -21.23811801 35.29008253 -24.375 38.625 C-25.24125 39.511875 -26.1075 40.39875 -27 41.3125 C-27.99 41.3125 -28.98 41.3125 -30 41.3125 C-28.60050373 38.06595281 -26.99671201 36.15842593 -24.3125 33.875 C-23.60609375 33.27300781 -22.8996875 32.67101563 -22.171875 32.05078125 C-20.18507074 30.46062316 -18.16211239 28.99839194 -16.0625 27.5625 C-12.77555033 25.60131033 -12.77555033 25.60131033 -12 22.3125 C-8.535 21.8175 -8.535 21.8175 -5 21.3125 C-10.13393638 19.24409225 -14.61839358 18.97766978 -20.0625 19 C-20.85205078 18.98388672 -21.64160156 18.96777344 -22.45507812 18.95117188 C-27.18401462 18.94720797 -30.10381279 19.37427441 -34 22.3125 C-34.99 22.9725 -35.98 23.6325 -37 24.3125 C-36 22.3125 -36 22.3125 -35 20.3125 C-34.773125 19.631875 -34.54625 18.95125 -34.3125 18.25 C-32.26517742 15.2277619 -29.41271637 14.2158661 -26 13.3125 C-24.33435063 13.22708208 -22.66734227 13.16566688 -21 13.125 C-16.59553904 12.82867541 -14.80045282 11.66761492 -11.875 8.375 C-9.57473064 5.65239167 -9.57473064 5.65239167 -9 2.3125 C-5.55324591 0.01466394 -4.06671888 0.01495117 0 0 Z M-2 7.3125 C2 8.3125 2 8.3125 2 8.3125 Z M-6 9.3125 C-6.66 10.9625 -7.32 12.6125 -8 14.3125 C-1.85210213 17.07843091 -1.85210213 17.07843091 4.5625 16 C5.366875 15.443125 6.17125 14.88625 7 14.3125 C6.67 12.6625 6.34 11.0125 6 9.3125 C2.04 9.3125 -1.92 9.3125 -6 9.3125 Z M-26 14.3125 C-26 14.6425 -26 14.9725 -26 15.3125 C-23.69 15.3125 -21.38 15.3125 -19 15.3125 C-19 14.9825 -19 14.6525 -19 14.3125 C-21.31 14.3125 -23.62 14.3125 -26 14.3125 Z M19 14.3125 C19 14.6425 19 14.9725 19 15.3125 C21.64 15.3125 24.28 15.3125 27 15.3125 C27 14.9825 27 14.6525 27 14.3125 C24.36 14.3125 21.72 14.3125 19 14.3125 Z M9 14.3125 C8.34 14.9725 7.68 15.6325 7 16.3125 C8.32 15.9825 9.64 15.6525 11 15.3125 C10.34 14.9825 9.68 14.6525 9 14.3125 Z M16 35.3125 C16 41.2525 16 47.1925 16 53.3125 C16.33 53.3125 16.66 53.3125 17 53.3125 C17 47.3725 17 41.4325 17 35.3125 C16.67 35.3125 16.34 35.3125 16 35.3125 Z M23 44.3125 C23.33 45.6325 23.66 46.9525 24 48.3125 C24.33 47.6525 24.66 46.9925 25 46.3125 C24.34 45.6525 23.68 44.9925 23 44.3125 Z " fill="#1680E7" transform="translate(50,5.6875)"/>
<path d="M0 0 C0.77730469 -0.00322266 1.55460937 -0.00644531 2.35546875 -0.00976562 C7.30160847 0.03595499 11.43449312 0.7427437 16.125 2.3125 C15.795 2.9725 15.465 3.6325 15.125 4.3125 C12.47639573 4.90605614 9.83302678 5.05459269 7.125 5.3125 C6.795 6.3025 6.465 7.2925 6.125 8.3125 C0.65988372 13.3125 0.65988372 13.3125 -1.875 13.3125 C-2.205 11.0025 -2.535 8.6925 -2.875 6.3125 C-5.185 6.6425 -7.495 6.9725 -9.875 7.3125 C-10.0708009 9.22833647 -10.25632214 11.14522539 -10.4375 13.0625 C-10.54191406 14.12984375 -10.64632813 15.1971875 -10.75390625 16.296875 C-10.86060074 18.95391204 -10.69430395 20.81210572 -9.875 23.3125 C-5.98872561 21.19271397 -2.81241356 18.63920481 0.4765625 15.71484375 C3.15058427 13.44002428 4.54311048 12.3125 8.125 12.3125 C8.125 11.6525 8.125 10.9925 8.125 10.3125 C9.445 10.6425 10.765 10.9725 12.125 11.3125 C10.53778572 13.53459999 8.96443672 15.46834083 7 17.375 C3.10063311 21.40434578 3.61606315 27.0197198 3.5246582 32.31884766 C3.60744586 35.64169481 3.81683186 37.86894731 5.734375 40.62890625 C7.80779001 42.18396751 9.74628982 43.29242465 12.125 44.3125 C13.115 44.76625 14.105 45.22 15.125 45.6875 C15.785 45.89375 16.445 46.1 17.125 46.3125 C17.125 46.9725 17.125 47.6325 17.125 48.3125 C13.165 47.9825 9.205 47.6525 5.125 47.3125 C4.795 45.9925 4.465 44.6725 4.125 43.3125 C3.63 42.8175 3.63 42.8175 3.125 42.3125 C3.455 44.9525 3.785 47.5925 4.125 50.3125 C1.92797535 49.93370265 0.28624078 49.41039619 -1.625 48.25 C-3.66904368 45.08173229 -3.057379 42.02087308 -2.875 38.3125 C-3.7721875 38.126875 -3.7721875 38.126875 -4.6875 37.9375 C-6.875 37.3125 -6.875 37.3125 -9.875 35.3125 C-10.205 39.6025 -10.535 43.8925 -10.875 48.3125 C-3.65658878 52.64354673 3.90746321 52.54405167 12.125 51.3125 C20.13849613 49.10152904 27.33220512 45.02161547 34.125 40.3125 C35.115 40.8075 35.115 40.8075 36.125 41.3125 C35.795 42.9625 35.465 44.6125 35.125 46.3125 C34.465 46.3125 33.805 46.3125 33.125 46.3125 C33.125 46.9725 33.125 47.6325 33.125 48.3125 C31.2996875 48.498125 31.2996875 48.498125 29.4375 48.6875 C26.00802442 49.03626023 23.31475129 50.02645865 20.125 51.3125 C17.60771561 52.03056282 15.09570439 52.71990388 12.5625 53.375 C11.90314453 53.54837891 11.24378906 53.72175781 10.56445312 53.90039062 C8.75250065 54.3756867 6.93881293 54.84435387 5.125 55.3125 C4.43019531 55.51617187 3.73539063 55.71984375 3.01953125 55.9296875 C0.44904465 56.44908479 -2.00602722 56.40617825 -4.625 56.375 C-5.60984375 56.36597656 -6.5946875 56.35695312 -7.609375 56.34765625 C-8.35703125 56.33605469 -9.1046875 56.32445312 -9.875 56.3125 C-9.875 55.6525 -9.875 54.9925 -9.875 54.3125 C-10.82375 54.065 -11.7725 53.8175 -12.75 53.5625 C-15.875 52.3125 -15.875 52.3125 -17.125 50.25 C-17.49625 49.2909375 -17.49625 49.2909375 -17.875 48.3125 C-18.535 47.9825 -19.195 47.6525 -19.875 47.3125 C-21.47212091 42.52113728 -21.45550244 38.05400731 -19.875 33.3125 C-19.545 32.6525 -19.215 31.9925 -18.875 31.3125 C-18.215 31.3125 -17.555 31.3125 -16.875 31.3125 C-15.44217789 28.78185081 -15.44217789 28.78185081 -14.875 25.3125 C-15.60715541 23.13293232 -15.60715541 23.13293232 -16.75 20.9375 C-19.0257076 16.32394943 -19.64449179 13.44244527 -18.875 8.3125 C-13.52755959 1.43721948 -8.30116974 -0.17038526 0 0 Z M-0.875 4.3125 C0.125 6.3125 0.125 6.3125 0.125 6.3125 Z M-1.875 7.3125 C-0.875 10.3125 -0.875 10.3125 -0.875 10.3125 Z M-12.875 9.3125 C-12.875 11.6225 -12.875 13.9325 -12.875 16.3125 C-12.545 16.3125 -12.215 16.3125 -11.875 16.3125 C-11.875 14.0025 -11.875 11.6925 -11.875 9.3125 C-12.205 9.3125 -12.535 9.3125 -12.875 9.3125 Z M-3.875 23.3125 C-4.205 25.2925 -4.535 27.2725 -4.875 29.3125 C-3.885 29.8075 -3.885 29.8075 -2.875 30.3125 C-2.875 28.0025 -2.875 25.6925 -2.875 23.3125 C-3.205 23.3125 -3.535 23.3125 -3.875 23.3125 Z M2.125 24.3125 C3.125 28.3125 3.125 28.3125 3.125 28.3125 Z M-5.875 26.3125 C-4.875 28.3125 -4.875 28.3125 -4.875 28.3125 Z M-9.875 31.3125 C-8.875 33.3125 -8.875 33.3125 -8.875 33.3125 Z M-10.875 33.3125 C-9.875 35.3125 -9.875 35.3125 -9.875 35.3125 Z M-18.875 34.3125 C-17.875 37.3125 -17.875 37.3125 -17.875 37.3125 Z M-11.875 35.3125 C-10.875 38.3125 -10.875 38.3125 -10.875 38.3125 Z M-19.875 37.3125 C-19.875 39.6225 -19.875 41.9325 -19.875 44.3125 C-19.545 44.3125 -19.215 44.3125 -18.875 44.3125 C-18.875 42.0025 -18.875 39.6925 -18.875 37.3125 C-19.205 37.3125 -19.535 37.3125 -19.875 37.3125 Z M-12.875 39.3125 C-11.875 42.3125 -11.875 42.3125 -11.875 42.3125 Z M-1.875 42.3125 C-0.875 45.3125 -0.875 45.3125 -0.875 45.3125 Z M-18.875 44.3125 C-17.875 46.3125 -17.875 46.3125 -17.875 46.3125 Z " fill="#1372BE" transform="translate(29.875,23.6875)"/>
<path d="M0 0 C4.26204655 0.43342846 5.7002238 1.3877238 8.6875 4.375 C11.1169516 8.0191774 10.84929575 10.08741272 10.6875 14.375 C10.0275 14.375 9.3675 14.375 8.6875 14.375 C7.11476432 17.2174854 7.11476432 17.2174854 6.6875 20.375 C3.4164827 22.69197059 0.43369799 22.7741694 -3.40234375 22.171875 C-5.8749185 21.14037142 -6.58132852 20.07590412 -7.875 17.75 C-9.53105006 13.66116843 -9.54983412 10.66442494 -8.3125 6.375 C-6.03087373 2.70455774 -4.42088417 0.50047745 0 0 Z M-3.3125 1.375 C-3.3125 1.705 -3.3125 2.035 -3.3125 2.375 C-1.3325 2.375 0.6475 2.375 2.6875 2.375 C2.6875 2.045 2.6875 1.715 2.6875 1.375 C0.7075 1.375 -1.2725 1.375 -3.3125 1.375 Z M-2.3125 20.375 C1.6875 21.375 1.6875 21.375 1.6875 21.375 Z " fill="#C08510" transform="translate(50.3125,38.625)"/>
<path d="M0 0 C0.79736572 0.00088623 1.59473145 0.00177246 2.41625977 0.00268555 C9.26419849 0.1405823 14.42733563 1.46001019 19.890625 5.6953125 C21.66754512 7.99674518 21.55506397 9.56146674 21.5 12.4375 C21.49613281 13.31535156 21.49226563 14.19320312 21.48828125 15.09765625 C21.1875 17.375 21.1875 17.375 19.1875 19.375 C17.03495967 21.95804839 15.3824164 23.96396307 15.1875 27.375 C16.01764143 29.8231241 17.06290613 32.03584474 18.1875 34.375 C14.56914994 33.16888331 13.84452143 31.67931291 12.11328125 28.390625 C9.1385936 21.91408986 8.99361737 17.38209194 10.875 10.4765625 C10.978125 9.78304687 11.08125 9.08953125 11.1875 8.375 C9.34866119 6.08771266 9.34866119 6.08771266 6.5625 6.25 C5.77875 6.29125 4.995 6.3325 4.1875 6.375 C3.5275 7.695 2.8675 9.015 2.1875 10.375 C1.18733813 8.37467627 0.69353992 6.54374252 0.1875 4.375 C-0.4725 4.375 -1.1325 4.375 -1.8125 4.375 C-2.1425 5.695 -2.4725 7.015 -2.8125 8.375 C-3.1425 6.725 -3.4725 5.075 -3.8125 3.375 C-4.885 3.725625 -5.9575 4.07625 -7.0625 4.4375 C-11.73557692 5.60576923 -11.73557692 5.60576923 -14.8125 4.375 C-14.8125 3.715 -14.8125 3.055 -14.8125 2.375 C-9.76802314 0.36364559 -5.35081575 -0.01060673 0 0 Z M12.1875 8.375 C12.1875 11.015 12.1875 13.655 12.1875 16.375 C12.5175 16.375 12.8475 16.375 13.1875 16.375 C13.1875 13.735 13.1875 11.095 13.1875 8.375 C12.8575 8.375 12.5275 8.375 12.1875 8.375 Z M19.1875 8.375 C19.1875 11.015 19.1875 13.655 19.1875 16.375 C19.5175 16.375 19.8475 16.375 20.1875 16.375 C20.1875 13.735 20.1875 11.095 20.1875 8.375 C19.8575 8.375 19.5275 8.375 19.1875 8.375 Z M11.1875 17.375 C12.1875 19.375 12.1875 19.375 12.1875 19.375 Z " fill="#166EC9" transform="translate(69.8125,23.625)"/>
<path d="M0 0 C0.66 0.33 1.32 0.66 2 1 C3.193083 5.26101072 3.26344848 9.0691487 2.0625 13.3125 C-1.41362582 17.84199728 -5.36635107 19.58762602 -10.96875 20.46484375 C-13.64822776 20.71690802 -16.31087439 20.90113509 -19 21 C-19.165 21.86625 -19.33 22.7325 -19.5 23.625 C-21.7660255 28.72355739 -26.0693796 31.5346898 -31 34 C-35.23971058 34.23553948 -38.36178302 34.32845886 -42 32 C-42 31.34 -42 30.68 -42 30 C-43.45833358 28.37485532 -43.45833358 28.37485532 -45 27 C-44.11957031 27.02320312 -43.23914062 27.04640625 -42.33203125 27.0703125 C-40.58986328 27.09738281 -40.58986328 27.09738281 -38.8125 27.125 C-37.66394531 27.14820312 -36.51539063 27.17140625 -35.33203125 27.1953125 C-32.05276273 27.00309277 -29.8972328 26.51205946 -27 25 C-26.30062468 23.68352881 -25.63270867 22.34977849 -25 21 C-24.34 20.71125 -23.68 20.4225 -23 20.125 C-20.65312369 19.0800808 -20.65312369 19.0800808 -19.75 15.875 C-19.5025 14.92625 -19.255 13.9775 -19 13 C-18.34 13.66 -17.68 14.32 -17 15 C-17.33 15.66 -17.66 16.32 -18 17 C-14.37 16.67 -10.74 16.34 -7 16 C-7 15.34 -7 14.68 -7 14 C-6.34 14 -5.68 14 -5 14 C-4.566875 13.1028125 -4.566875 13.1028125 -4.125 12.1875 C-3 10 -3 10 -1 7 C-0.60612212 4.67612053 -0.26513915 2.34206251 0 0 Z M-16 18 C-16 18.33 -16 18.66 -16 19 C-13.36 19 -10.72 19 -8 19 C-8 18.67 -8 18.34 -8 18 C-10.64 18 -13.28 18 -16 18 Z M-38 32 C-38 32.33 -38 32.66 -38 33 C-36.02 33 -34.04 33 -32 33 C-32 32.67 -32 32.34 -32 32 C-33.98 32 -35.96 32 -38 32 Z " fill="#1F44C5" transform="translate(85,61)"/>
<path d="M0 0 C3.94120709 0.56302958 6.7508723 1.6791945 10 4 C10 4.66 10 5.32 10 6 C14.62 6 19.24 6 24 6 C24.33 5.01 24.66 4.02 25 3 C27.375 1.25 27.375 1.25 30 0 C30.99 0.33 31.98 0.66 33 1 C33 1.99 33 2.98 33 4 C28.37504793 6.74564878 23.71054706 9.40412702 19 12 C17.75089844 12.70382813 17.75089844 12.70382813 16.4765625 13.421875 C11.00712958 16.07023199 5.7348666 16.39909097 -0.25 16.5 C-1.01924805 16.51869141 -1.78849609 16.53738281 -2.58105469 16.55664062 C-7.95753399 16.49588945 -10.80411484 15.36739828 -15 12 C-14.67 10.35 -14.34 8.7 -14 7 C-13.484375 7.45375 -12.96875 7.9075 -12.4375 8.375 C-9.42699426 10.38200383 -6.49072763 11.12731809 -3 12 C-3 12.66 -3 13.32 -3 14 C-2.01 13.67 -1.02 13.34 0 13 C-0.33 12.34 -0.66 11.68 -1 11 C-1.039992 9.00039988 -1.04346799 6.99952758 -1 5 C1.0245738 6.93254772 2.42105792 8.63158688 4 11 C6.42521494 11.58189266 6.42521494 11.58189266 9.125 11.6875 C10.49011719 11.78611328 10.49011719 11.78611328 11.8828125 11.88671875 C12.93082031 11.94279297 12.93082031 11.94279297 14 12 C14 11.34 14 10.68 14 10 C13.175 9.79375 12.35 9.5875 11.5 9.375 C7.10856178 7.64979213 3.45318451 5.22530939 0 2 C0 1.34 0 0.68 0 0 Z " fill="#3FC6EE" transform="translate(33,60)"/>
<path d="M0 0 C6.77304704 2.91762026 11.18486067 9.37614275 14 16 C14.99 16 15.98 16 17 16 C19 18 19 18 19.265625 20.3125 C19.26046875 21.199375 19.2553125 22.08625 19.25 23 C19.25515625 23.886875 19.2603125 24.77375 19.265625 25.6875 C19 28 19 28 17 30 C16.01 27.03 15.02 24.06 14 21 C13.731875 22.258125 13.46375 23.51625 13.1875 24.8125 C11.84355096 30.10429936 11.84355096 30.10429936 9 32 C4.95603293 34.13431596 1.5242666 34.17742222 -3 34 C-2.01 33.505 -2.01 33.505 -1 33 C-0.34227572 29.97065509 -0.34227572 29.97065509 0 27 C0.33 27.99 0.66 28.98 1 30 C3.31 29.01 5.62 28.02 8 27 C7.67 24.03 7.34 21.06 7 18 C4.33264727 20.48952921 2.44253657 22.63408134 1 26 C0.875 23.625 0.875 23.625 1 21 C1.66 20.34 2.32 19.68 3 19 C4.20244854 16.04325456 4.93881554 13.19827868 5 10 C2.70817728 7.20802268 2.70817728 7.20802268 0 5 C-0.3125 2.1875 -0.3125 2.1875 0 0 Z M8 15 C9 17 9 17 9 17 Z M9 17 C10 20 10 20 10 20 Z M17 19 C17 21.64 17 24.28 17 27 C17.33 27 17.66 27 18 27 C18 24.36 18 21.72 18 19 C17.67 19 17.34 19 17 19 Z M10 21 C10 22.65 10 24.3 10 26 C10.33 26 10.66 26 11 26 C11 24.35 11 22.7 11 21 C10.67 21 10.34 21 10 21 Z M9 27 C10 29 10 29 10 29 Z " fill="#185DCB" transform="translate(72,41)"/>
<path d="M0 0 C0.33 0.99 0.66 1.98 1 3 C0.67 3.66 0.34 4.32 0 5 C0.94875 4.814375 1.8975 4.62875 2.875 4.4375 C6 4 6 4 8 5 C8 5.66 8 6.32 8 7 C13.5054039 5.71059669 13.5054039 5.71059669 18.8125 3.8125 C21 3 21 3 24 4 C24.66 4.66 25.32 5.32 26 6 C24.55367187 6.59748047 24.55367187 6.59748047 23.078125 7.20703125 C21.80196043 7.74189434 20.52592555 8.27706696 19.25 8.8125 C18.61578125 9.07353516 17.9815625 9.33457031 17.328125 9.60351562 C13.84762527 11.07185145 10.95412877 12.66186669 8 15 C6.96875 15.4125 5.9375 15.825 4.875 16.25 C-2.55886313 19.28749246 -8.98317638 24.7748637 -15 30 C-13.60050373 26.75345281 -11.99671201 24.84592593 -9.3125 22.5625 C-8.60609375 21.96050781 -7.8996875 21.35851562 -7.171875 20.73828125 C-5.18507074 19.14812316 -3.16211239 17.68589194 -1.0625 16.25 C2.22444967 14.28881033 2.22444967 14.28881033 3 11 C6.465 10.505 6.465 10.505 10 10 C4.86606362 7.93159225 0.38160642 7.66516978 -5.0625 7.6875 C-5.85205078 7.67138672 -6.64160156 7.65527344 -7.45507812 7.63867188 C-12.18401462 7.63470797 -15.10381279 8.06177441 -19 11 C-19.99 11.66 -20.98 12.32 -22 13 C-21.33333333 11.66666667 -20.66666667 10.33333333 -20 9 C-19.773125 8.319375 -19.54625 7.63875 -19.3125 6.9375 C-17.25633627 3.90221069 -14.41095783 2.93646297 -11 2 C-8.34394034 1.62783825 -5.71539225 1.38073486 -3.0390625 1.2109375 C-1.00713712 1.21733466 -1.00713712 1.21733466 0 0 Z M-11 3 C-11 3.33 -11 3.66 -11 4 C-8.69 4 -6.38 4 -4 4 C-4 3.67 -4 3.34 -4 3 C-6.31 3 -8.62 3 -11 3 Z " fill="#68D8F3" transform="translate(35,17)"/>
<path d="M0 0 C2.80723492 2.80723492 2.26592566 5.55430904 2.3125 9.3125 C2.35528267 15.07880412 2.35528267 15.07880412 5.3125 19.83984375 C8.9998876 22.80368873 12.76692661 24.88346331 17 27 C17 27.66 17 28.32 17 29 C13.04 28.67 9.08 28.34 5 28 C4.67 26.68 4.34 25.36 4 24 C3.67 23.67 3.34 23.34 3 23 C3.33 25.64 3.66 28.28 4 31 C2.68 30.67 1.36 30.34 0 30 C-1.00109515 26.68929162 -1.10356134 23.69915231 -1.0625 20.25 C-1.05347656 19.26515625 -1.04445313 18.2803125 -1.03515625 17.265625 C-1.02355469 16.51796875 -1.01195312 15.7703125 -1 15 C-1.62390625 14.87496094 -2.2478125 14.74992187 -2.890625 14.62109375 C-5.710681 13.79074393 -6.50337439 12.46943225 -8 10 C-8 9.34 -8 8.68 -8 8 C-6.02 8.99 -6.02 8.99 -4 10 C-3.896875 8.906875 -3.79375 7.81375 -3.6875 6.6875 C-3.02692273 3.14440371 -2.7972908 2.06756277 0 0 Z " fill="#1B7EE4" transform="translate(30,43)"/>
<path d="M0 0 C1.051875 -0.00773438 2.10375 -0.01546875 3.1875 -0.0234375 C6.37257758 0.42778182 7.07582085 0.89126727 9 3.375 C9.50660156 3.95378906 10.01320313 4.53257813 10.53515625 5.12890625 C11.03917969 5.72574219 11.54320313 6.32257812 12.0625 6.9375 C15.75533051 11.30687961 17.34558967 12.57574644 23.1875 13.1875 C29.21478898 14.00940304 32.47288272 15.3742917 37 19.375 C36.67 20.035 36.34 20.695 36 21.375 C33.61674091 20.80301782 31.32899374 20.15133125 29 19.375 C25.57754406 18.32821846 22.3796606 18.27874284 18.8125 18.1875 C13.48836739 17.82856971 13.48836739 17.82856971 11.41015625 15.8984375 C10.375 14.0625 10.375 14.0625 9 10.375 C7.67987551 7.20964707 7.67987551 7.20964707 5 5.375 C0.07112465 4.7841333 -4.92242739 4.18929716 -9.34765625 6.71484375 C-11.03482865 8.18722213 -12.55542078 9.66592036 -14 11.375 C-12.57017797 8.43558046 -11.05706908 5.92576566 -9 3.375 C-8.59652344 2.84777344 -8.19304688 2.32054687 -7.77734375 1.77734375 C-5.20801673 -0.24988351 -3.23040696 -0.02375299 0 0 Z M19 14.375 C19 14.705 19 15.035 19 15.375 C21.64 15.375 24.28 15.375 27 15.375 C27 15.045 27 14.715 27 14.375 C24.36 14.375 21.72 14.375 19 14.375 Z " fill="#73DBF6" transform="translate(50,5.625)"/>
<path d="M0 0 C0.33 0.66 0.66 1.32 1 2 C-2.96 3.98 -2.96 3.98 -7 6 C-6.01 7.485 -6.01 7.485 -5 9 C-2.56306689 9.36416047 -2.56306689 9.36416047 0.125 9.1875 C1.49011719 9.14689453 1.49011719 9.14689453 2.8828125 9.10546875 C3.58148438 9.07066406 4.28015625 9.03585938 5 9 C4.34 10.65 3.68 12.3 3 14 C-8.78404275 14.55721393 -8.78404275 14.55721393 -13 11 C-14.01868662 10.01904252 -15.02351983 9.02297922 -16 8 C-18.29629994 6.85185003 -20.07698086 6.69230191 -22.625 6.4375 C-23.44226563 6.35371094 -24.25953125 6.26992187 -25.1015625 6.18359375 C-25.72804688 6.12300781 -26.35453125 6.06242187 -27 6 C-27 5.67 -27 5.34 -27 5 C-26.32453125 4.95101562 -25.6490625 4.90203125 -24.953125 4.8515625 C-24.06109375 4.77679688 -23.1690625 4.70203125 -22.25 4.625 C-21.36828125 4.55539063 -20.4865625 4.48578125 -19.578125 4.4140625 C-16.97364213 3.99576677 -15.30305152 3.23830061 -13 2 C-8.68217656 0.60936899 -4.56074384 -0.28504649 0 0 Z M-2 11 C2 12 2 12 2 12 Z " fill="#247BEA" transform="translate(50,75)"/>
<path d="M0 0 C1.17949219 -0.01836914 1.17949219 -0.01836914 2.3828125 -0.03710938 C7.39430555 -0.04959648 11.49964503 0.58076229 16.25 2.1875 C15.92 2.8475 15.59 3.5075 15.25 4.1875 C12.60139573 4.78105614 9.95802678 4.92959269 7.25 5.1875 C6.92 6.1775 6.59 7.1675 6.25 8.1875 C0.78488372 13.1875 0.78488372 13.1875 -1.75 13.1875 C-2.5 9.9375 -2.5 9.9375 -2.75 6.1875 C-0.765625 3.953125 -0.765625 3.953125 1.25 2.1875 C0.34636719 2.331875 -0.55726562 2.47625 -1.48828125 2.625 C-2.66777344 2.810625 -3.84726562 2.99625 -5.0625 3.1875 C-6.82013672 3.4659375 -6.82013672 3.4659375 -8.61328125 3.75 C-11.75 4.1875 -11.75 4.1875 -14.75 4.1875 C-10.51773684 -0.44783584 -5.93500728 0.00477091 0 0 Z M-1.75 7.1875 C-0.75 10.1875 -0.75 10.1875 -0.75 10.1875 Z " fill="#158AD2" transform="translate(29.75,23.8125)"/>
<path d="M0 0 C-2.51830747 3.12270126 -3.7261549 3.94523098 -7.75 4.75 C-9.35875 4.87375 -9.35875 4.87375 -11 5 C-11.33 7.97 -11.66 10.94 -12 14 C-12.99 12.68 -13.98 11.36 -15 10 C-14.48041715 14.37934119 -13.94324258 18.68803391 -13 23 C-13.99 23 -14.98 23 -16 23 C-19.03850119 17.14003343 -20.80162181 12.6420093 -20 6 C-15.3347731 0.02447789 -6.99281741 -0.3814264 0 0 Z " fill="#206AC5" transform="translate(31,26)"/>
<path d="M0 0 C4.19833317 0.42694914 5.70724864 1.48505929 8.6875 4.375 C8.3575 6.025 8.0275 7.675 7.6875 9.375 C4.40230525 10.47006492 1.95086585 10.47460608 -1.5 10.4375 C-3.13001953 10.42396484 -3.13001953 10.42396484 -4.79296875 10.41015625 C-5.62441406 10.39855469 -6.45585938 10.38695312 -7.3125 10.375 C-7.6425 11.365 -7.9725 12.355 -8.3125 13.375 C-8.6425 13.375 -8.9725 13.375 -9.3125 13.375 C-8.70009283 7.00596539 -7.17733057 0.81252799 0 0 Z M-3.3125 1.375 C-3.3125 1.705 -3.3125 2.035 -3.3125 2.375 C-1.3325 2.375 0.6475 2.375 2.6875 2.375 C2.6875 2.045 2.6875 1.715 2.6875 1.375 C0.7075 1.375 -1.2725 1.375 -3.3125 1.375 Z " fill="#E2C62C" transform="translate(50.3125,38.625)"/>
<path d="M0 0 C1.73239737 0.67931802 3.46131677 1.36754312 5.1875 2.0625 C6.53908203 2.60583984 6.53908203 2.60583984 7.91796875 3.16015625 C8.60503906 3.43730469 9.29210937 3.71445312 10 4 C10 4.66 10 5.32 10 6 C11.32 6.33 12.64 6.66 14 7 C13.67 14.26 13.34 21.52 13 29 C12.34 29.33 11.68 29.66 11 30 C11.11601563 28.77023438 11.23203125 27.54046875 11.3515625 26.2734375 C12.28531109 17.34899342 12.28531109 17.34899342 8.984375 9.50390625 C6.34957226 7.92223574 3.94050598 6.87861965 1 6 C-0.0725 5.67 -1.145 5.34 -2.25 5 C-5.51510968 5 -7.98736794 5.78060131 -11 7 C-10.9375 5.25 -10.9375 5.25 -10 3 C-6.69928831 0.41203839 -4.20321079 -1.40107026 0 0 Z " fill="#2B5EB9" transform="translate(53,30)"/>
<path d="M0 0 C2.9375 2 2.9375 2 5 4 C1.0186217 5.3271261 -2.85045227 5.06915913 -7 5 C-7 6.32 -7 7.64 -7 9 C-4.525 9.99 -4.525 9.99 -2 11 C-2.66 11.66 -3.32 12.32 -4 13 C-5.875 12.6875 -5.875 12.6875 -8 12 C-10.94227886 11.17248407 -12.81655846 11 -16 11 C-14.79645581 6.58700462 -13.56751319 3.91887443 -10 1 C-6.39427296 -0.20190901 -3.7897565 -0.32670315 0 0 Z M-3 2 C1 3 1 3 1 3 Z " fill="#1C9BD8" transform="translate(51,11)"/>
<path d="M0 0 C0.66 0.33 1.32 0.66 2 1 C1.67 2.65 1.34 4.3 1 6 C0.34 6 -0.32 6 -1 6 C-1 6.66 -1 7.32 -1 8 C-2.8253125 8.185625 -2.8253125 8.185625 -4.6875 8.375 C-8.11697558 8.72376023 -10.81024871 9.71395865 -14 11 C-16.51728439 11.71806282 -19.02929561 12.40740388 -21.5625 13.0625 C-22.22185547 13.23587891 -22.88121094 13.40925781 -23.56054688 13.58789062 C-26.70205681 14.41194499 -29.84682534 15.22173552 -33 16 C-33 15.34 -33 14.68 -33 14 C-34.98 14 -36.96 14 -39 14 C-39.33 13.34 -39.66 12.68 -40 12 C-38.329375 12.01353516 -38.329375 12.01353516 -36.625 12.02734375 C-22.46139169 11.85709305 -11.65152298 8.09530661 0 0 Z " fill="#0F90E0" transform="translate(64,64)"/>
<path d="M0 0 C0.66 0.33 1.32 0.66 2 1 C3.193083 5.26101072 3.26344848 9.0691487 2.0625 13.3125 C-1.33066629 17.7338985 -5.28618803 19.54062073 -10.74609375 20.46484375 C-13.16662737 20.71548056 -15.56896855 20.90036756 -18 21 C-18 19.68 -18 18.36 -18 17 C-14.37 16.67 -10.74 16.34 -7 16 C-7 15.34 -7 14.68 -7 14 C-6.34 14 -5.68 14 -5 14 C-4.566875 13.1028125 -4.566875 13.1028125 -4.125 12.1875 C-3 10 -3 10 -1 7 C-0.60612212 4.67612053 -0.26513915 2.34206251 0 0 Z M-16 18 C-16 18.33 -16 18.66 -16 19 C-13.36 19 -10.72 19 -8 19 C-8 18.67 -8 18.34 -8 18 C-10.64 18 -13.28 18 -16 18 Z " fill="#123DBD" transform="translate(85,61)"/>
<path d="M0 0 C1.91595968 -0.08133791 3.83291932 -0.13934367 5.75 -0.1875 C7.35101563 -0.23970703 7.35101563 -0.23970703 8.984375 -0.29296875 C12.33661828 0.03270255 13.6016303 0.69644957 16 3 C17.125 5 17.125 5 18 7 C18.99 8.485 18.99 8.485 20 10 C20 10.99 20 11.98 20 13 C23.96 13 27.92 13 32 13 C32 13.33 32 13.66 32 14 C31.0821875 14.03738281 30.164375 14.07476562 29.21875 14.11328125 C21.1145497 14.44797774 21.1145497 14.44797774 13.375 16.625 C9.89876824 18.04124257 9.32717183 18.0896851 6 17 C7.6232687 16.3291288 9.24867578 15.66342971 10.875 15 C11.77992187 14.62875 12.68484375 14.2575 13.6171875 13.875 C16 13 16 13 18 13 C16.74458443 10.48916886 15.49936512 10.12874554 13 9 C13 7.35 13 5.7 13 4 C8.35150485 1.6007767 4.08913926 1.80042591 -1 2 C-0.67 1.34 -0.34 0.68 0 0 Z " fill="#29B7E7" transform="translate(43,10)"/>
<path d="M0 0 C0.99 0.33 1.98 0.66 3 1 C3.33 2.65 3.66 4.3 4 6 C4.66 5.67 5.32 5.34 6 5 C6.2475 5.70125 6.495 6.4025 6.75 7.125 C7.95349979 10.13096552 7.95349979 10.13096552 10.0625 13.0625 C11.7619503 15.63908594 12.39252677 17.08788607 13 20 C12.51789063 19.57847656 12.03578125 19.15695313 11.5390625 18.72265625 C10.90742187 18.17480469 10.27578125 17.62695312 9.625 17.0625 C8.68527344 16.24458984 8.68527344 16.24458984 7.7265625 15.41015625 C6.04367666 13.93041376 6.04367666 13.93041376 4 13 C3.67 14.32 3.34 15.64 3 17 C-0.03901852 11.17521449 -0.3540919 6.51791392 0 0 Z " fill="#31ABE9" transform="translate(68,28)"/>
<path d="M0 0 C0 0.66 0 1.32 0 2 C1.45833358 3.62514468 1.45833358 3.62514468 3 5 C0.11817003 4.49144177 -2.11118621 3.9444069 -4.75 2.625 C-9.23740217 1.76203804 -11.25028002 3.48680008 -14.94921875 5.93359375 C-15.62597656 6.28550781 -16.30273438 6.63742188 -17 7 C-17.99 6.67 -18.98 6.34 -20 6 C-20 6.66 -20 7.32 -20 8 C-20.58007812 8.29132812 -21.16015625 8.58265625 -21.7578125 8.8828125 C-27.08230797 11.67685468 -30.96042633 14.54611108 -35 19 C-35.66 18.67 -36.32 18.34 -37 18 C-29.06255539 9.08730622 -12.80046231 -3.87892797 0 0 Z " fill="#129FDD" transform="translate(58,28)"/>
<path d="M0 0 C0.66 0 1.32 0 2 0 C4.54939734 5.77863397 5.13995284 11.21980511 5.125 17.5 C5.12757812 18.5828125 5.13015625 19.665625 5.1328125 20.78125 C5.00272728 23.93390353 4.5876874 26.90298066 4 30 C3.67 30 3.34 30 3 30 C2.67 23.4 2.34 16.8 2 10 C1.01 9.67 0.02 9.34 -1 9 C-1 8.34 -1 7.68 -1 7 C-1.66 7 -2.32 7 -3 7 C-4.38232443 5.37373596 -5.71937515 3.7074998 -7 2 C-5.02 2 -3.04 2 -1 2 C-0.67 2.66 -0.34 3.32 0 4 C0 2.68 0 1.36 0 0 Z " fill="#1A95E7" transform="translate(64,27)"/>
<path d="M0 0 C1.32 0.33 2.64 0.66 4 1 C2.41278572 3.22209999 0.83943672 5.15584083 -1.125 7.0625 C-4.37387917 10.41967514 -4.03487873 13.4538256 -3.96875 17.92578125 C-4.01024736 20.68016823 -4.46071861 23.30359306 -5 26 C-5.33 26 -5.66 26 -6 26 C-5.96519531 24.77023438 -5.96519531 24.77023438 -5.9296875 23.515625 C-5.91164063 22.43796875 -5.89359375 21.3603125 -5.875 20.25 C-5.85179687 19.18265625 -5.82859375 18.1153125 -5.8046875 17.015625 C-5.99512313 14.07529894 -6.47329896 12.47638122 -8 10 C-9.65 11.65 -11.3 13.3 -13 15 C-13 11.28115772 -12.1259934 10.63852271 -9.6875 7.9375 C-8.76517578 6.89916016 -8.76517578 6.89916016 -7.82421875 5.83984375 C-6 4 -6 4 -3 2 C-2.01 2 -1.02 2 0 2 C0 1.34 0 0.68 0 0 Z " fill="#1B7DB9" transform="translate(38,34)"/>
<path d="M0 0 C0.33 0.66 0.66 1.32 1 2 C-0.57725347 2.70133599 -2.16211333 3.385583 -3.75 4.0625 C-4.63171875 4.44535156 -5.5134375 4.82820313 -6.421875 5.22265625 C-9.15256309 6.04600008 -10.36901347 5.9773992 -13 5 C-13 5.99 -13 6.98 -13 8 C-12.34 8 -11.68 8 -11 8 C-10.67 9.65 -10.34 11.3 -10 13 C-11.49739583 11.73046875 -12.99479167 10.4609375 -14.4921875 9.19140625 C-17.16193648 7.08188957 -19.29743759 6.77025624 -22.625 6.4375 C-23.44226563 6.35371094 -24.25953125 6.26992187 -25.1015625 6.18359375 C-25.72804688 6.12300781 -26.35453125 6.06242187 -27 6 C-27 5.67 -27 5.34 -27 5 C-26.32453125 4.95101562 -25.6490625 4.90203125 -24.953125 4.8515625 C-24.06109375 4.77679688 -23.1690625 4.70203125 -22.25 4.625 C-21.36828125 4.55539063 -20.4865625 4.48578125 -19.578125 4.4140625 C-16.97364213 3.99576677 -15.30305152 3.23830061 -13 2 C-8.68217656 0.60936899 -4.56074384 -0.28504649 0 0 Z " fill="#2254C4" transform="translate(50,75)"/>
<path d="M0 0 C3.00793074 1.50396537 3.24666951 3.64519798 4.375 6.75 C5.4296875 10.0625 5.4296875 10.0625 6 13 C4.5 15.75 4.5 15.75 2 18 C1.20016339 19.41037855 0.45162592 20.85077933 -0.25 22.3125 C-0.75273437 23.35857422 -0.75273437 23.35857422 -1.265625 24.42578125 C-1.62914062 25.20501953 -1.62914062 25.20501953 -2 26 C-2.66 26 -3.32 26 -4 26 C-4.33 28.31 -4.66 30.62 -5 33 C-5.33 33 -5.66 33 -6 33 C-6.16682272 28.07872966 -6.24828052 24.49656104 -4 20 C-3.34 20 -2.68 20 -2 20 C1.17497067 16.3009445 1.17497067 16.3009445 1.8125 11.6875 C1.544375 10.800625 1.27625 9.91375 1 9 C0.78902471 7.39875162 0.60317724 5.79406715 0.4375 4.1875 C0.35371094 3.39730469 0.26992187 2.60710938 0.18359375 1.79296875 C0.12300781 1.20128906 0.06242188 0.60960937 0 0 Z " fill="#25A6E3" transform="translate(15,35)"/>
<path d="M0 0 C0.99 0.33 1.98 0.66 3 1 C3.20579599 6.24779767 3.09279765 10.11680547 1 15 C1.5065625 18.03304296 2.65784709 20.53131695 4.0625 23.25 C4.60583984 24.30960938 4.60583984 24.30960938 5.16015625 25.390625 C5.43730469 25.92171875 5.71445313 26.4528125 6 27 C2.38164994 25.79388331 1.65702143 24.30431291 -0.07421875 21.015625 C-3.30589369 13.97957322 -3.24621531 8.4342481 -1 1 C-0.67 0.67 -0.34 0.34 0 0 Z M0 1 C0 3.64 0 6.28 0 9 C0.33 9 0.66 9 1 9 C1 6.36 1 3.72 1 1 C0.67 1 0.34 1 0 1 Z M-1 10 C0 12 0 12 0 12 Z " fill="#1E8EDE" transform="translate(82,31)"/>
<path d="M0 0 C-1 3 -1 3 -4 5 C-6.91796875 5.4140625 -6.91796875 5.4140625 -10.1875 5.625 C-11.27417969 5.69976562 -12.36085937 5.77453125 -13.48046875 5.8515625 C-14.72763672 5.92503906 -14.72763672 5.92503906 -16 6 C-15.67 4.35 -15.34 2.7 -15 1 C-13.06263299 0.83179449 -11.12510094 0.66548905 -9.1875 0.5 C-7.56908203 0.36078125 -7.56908203 0.36078125 -5.91796875 0.21875 C-3 0 -3 0 0 0 Z " fill="#D0A511" transform="translate(58,48)"/>
<path d="M0 0 C0.99 0.66 1.98 1.32 3 2 C3 2.66 3 3.32 3 4 C4.32 4.33 5.64 4.66 7 5 C7 9.62 7 14.24 7 19 C5 17 5 17 4.8046875 15.0546875 C4.90234375 12.02734375 4.90234375 12.02734375 5 9 C4.401875 8.87625 3.80375 8.7525 3.1875 8.625 C1 8 1 8 -2 6 C-1.34 4.02 -0.68 2.04 0 0 Z " fill="#184DB5" transform="translate(22,53)"/>
<path d="M0 0 C0.81146484 -0.01224609 1.62292969 -0.02449219 2.45898438 -0.03710938 C3.24466797 -0.03904297 4.03035156 -0.04097656 4.83984375 -0.04296875 C5.55390381 -0.04707764 6.26796387 -0.05118652 7.00366211 -0.05541992 C9.37386132 0.22423717 10.99957267 1.01635141 13.0625 2.1875 C13.0625 2.5175 13.0625 2.8475 13.0625 3.1875 C10.4999282 3.21460123 7.93764635 3.23438771 5.375 3.25 C4.2931543 3.26256836 4.2931543 3.26256836 3.18945312 3.27539062 C-0.6747177 3.29303524 -4.16844306 2.98377964 -7.9375 2.1875 C-10.27915499 2.45621451 -12.61634289 2.77788404 -14.9375 3.1875 C-9.89687963 -0.17291358 -5.83026998 0.00460891 0 0 Z " fill="#0F85D0" transform="translate(69.9375,23.8125)"/>
<path d="M0 0 C4.31134737 1.56776268 8.05250912 3.69109024 12 6 C12.66 6.33 13.32 6.66 14 7 C14 7.66 14 8.32 14 9 C10.04 8.67 6.08 8.34 2 8 C1.33333333 5.33333333 0.66666667 2.66666667 0 0 Z " fill="#135ACE" transform="translate(33,63)"/>
<path d="M0 0 C3.94120709 0.56302958 6.7508723 1.6791945 10 4 C10 4.66 10 5.32 10 6 C13.465 7.485 13.465 7.485 17 9 C17 9.66 17 10.32 17 11 C16.01 11.33 15.02 11.66 14 12 C14 11.34 14 10.68 14 10 C13.175 9.79375 12.35 9.5875 11.5 9.375 C7.10856178 7.64979213 3.45318451 5.22530939 0 2 C0 1.34 0 0.68 0 0 Z " fill="#5CBCF2" transform="translate(33,60)"/>
<path d="M0 0 C2.475 0.99 2.475 0.99 5 2 C5 5.27275026 4.70074844 7.846632 4 11 C2.68 11 1.36 11 0 11 C0 10.01 0 9.02 0 8 C-0.99 8.33 -1.98 8.66 -3 9 C-2.44271087 5.65626525 -1.64826111 2.96687001 0 0 Z M1 2 C1.33 3.32 1.66 4.64 2 6 C2.33 5.34 2.66 4.68 3 4 C2.34 3.34 1.68 2.68 1 2 Z " fill="#0F85D9" transform="translate(72,48)"/>
<path d="M0 0 C0.33 1.65 0.66 3.3 1 5 C-0.65 4.67 -2.3 4.34 -4 4 C-4.33 4.99 -4.66 5.98 -5 7 C-6.65 6.67 -8.3 6.34 -10 6 C-10 6.66 -10 7.32 -10 8 C-10.66 8 -11.32 8 -12 8 C-11.690625 7.401875 -11.38125 6.80375 -11.0625 6.1875 C-9.89790296 3.91043228 -9.89790296 3.91043228 -9 1 C-6.04335481 -0.4783226 -3.25770263 -0.06032783 0 0 Z M-7 1 C-7 1.33 -7 1.66 -7 2 C-5.02 2 -3.04 2 -1 2 C-1 1.67 -1 1.34 -1 1 C-2.98 1 -4.96 1 -7 1 Z " fill="#F5EA7A" transform="translate(54,39)"/>
<path d="M0 0 C4.75 1.875 4.75 1.875 7 3 C6.38253906 3.27972656 5.76507813 3.55945313 5.12890625 3.84765625 C-1.26801309 6.87572614 -6.568111 10.48768276 -12 15 C-13.010625 15.804375 -14.02125 16.60875 -15.0625 17.4375 C-15.701875 17.953125 -16.34125 18.46875 -17 19 C-15.60050373 15.75345281 -13.99671201 13.84592593 -11.3125 11.5625 C-10.60738281 10.96050781 -9.90226562 10.35851562 -9.17578125 9.73828125 C-7.17116127 8.13674464 -5.12636857 6.68345824 -3 5.25 C-2.01 4.5075 -1.02 3.765 0 3 C0 2.01 0 1.02 0 0 Z " fill="#56D5F2" transform="translate(37,28)"/>
<path d="M0 0 C2.97 0.495 2.97 0.495 6 1 C6 1.66 6 2.32 6 3 C7.32 3.33 8.64 3.66 10 4 C9.67 11.26 9.34 18.52 9 26 C8.34 26.33 7.68 26.66 7 27 C7.03480469 25.77023438 7.06960937 24.54046875 7.10546875 23.2734375 C7.13362045 21.64063873 7.16091913 20.0078251 7.1875 18.375 C7.21263672 17.56675781 7.23777344 16.75851563 7.26367188 15.92578125 C7.32568158 10.84098574 6.82910143 7.40686953 4 3 C1.95053601 1.14684743 1.95053601 1.14684743 0 0 Z " fill="#0D75C7" transform="translate(57,33)"/>
<path d="M0 0 C1.03603689 3.10811066 1.01058664 4.73074451 0.6875 7.9375 C0.60886719 8.79214844 0.53023437 9.64679687 0.44921875 10.52734375 C-0.00302624 13.0166575 -0.75596291 14.81151027 -2 17 C-4.51475368 13.22786948 -4.44796416 11.47964158 -4 7 C-2.86762288 4.46445994 -1.52726865 2.33863012 0 0 Z M-1 5 C0 8 0 8 0 8 Z M-2 9 C-1 12 -1 12 -1 12 Z " fill="#1983D0" transform="translate(19,54)"/>
<path d="M0 0 C0.66 0.33 1.32 0.66 2 1 C2 1.99 2 2.98 2 4 C2.886875 3.814375 3.77375 3.62875 4.6875 3.4375 C7.85178811 3.01957516 9.94839642 3.19222258 13 4 C13 4.66 13 5.32 13 6 C9.6645925 8.36258031 6.73052948 8.26377901 2.83984375 7.69140625 C1 7 1 7 -1 3.9375 C-1.33 2.968125 -1.66 1.99875 -2 1 C-1.34 0.67 -0.68 0.34 0 0 Z M4 6 C8 7 8 7 8 7 Z " fill="#B77A38" transform="translate(44,53)"/>
<path d="M0 0 C0.66 0 1.32 0 2 0 C2 0.99 2 1.98 2 3 C2.99 3.33 3.98 3.66 5 4 C4.34 4.66 3.68 5.32 3 6 C2.32348793 8.19704511 2.32348793 8.19704511 1.875 10.625 C1.70742187 11.44226563 1.53984375 12.25953125 1.3671875 13.1015625 C1.24601562 13.72804688 1.12484375 14.35453125 1 15 C0.67 15 0.34 15 0 15 C0 11.7 0 8.4 0 5 C-0.99 8.465 -0.99 8.465 -2 12 C-2.33 12 -2.66 12 -3 12 C-3.34833144 7.12335991 -2.41685712 4.22949995 0 0 Z " fill="#1370D7" transform="translate(70,56)"/>
<path d="M0 0 C3.35829104 1.43714007 5.39970698 3.20977399 7.8125 5.9375 C8.43769531 6.62714844 9.06289062 7.31679688 9.70703125 8.02734375 C10.34705078 9.00380859 10.34705078 9.00380859 11 10 C10.67 10.99 10.34 11.98 10 13 C8.5 11.6875 8.5 11.6875 7 10 C7 9.01 7 8.02 7 7 C6.21625 7.04125 5.4325 7.0825 4.625 7.125 C2 7 2 7 0 5 C-0.125 2.375 -0.125 2.375 0 0 Z " fill="#0E6DD1" transform="translate(72,41)"/>
<path d="M0 0 C0.66 0.33 1.32 0.66 2 1 C1.67 2.65 1.34 4.3 1 6 C0.34 6 -0.32 6 -1 6 C-1 6.66 -1 7.32 -1 8 C-3.97 8 -6.94 8 -10 8 C-10 7.34 -10 6.68 -10 6 C-7.8828125 4.45703125 -7.8828125 4.45703125 -5.125 2.8125 C-4.22007813 2.26207031 -3.31515625 1.71164063 -2.3828125 1.14453125 C-1.20332031 0.57798828 -1.20332031 0.57798828 0 0 Z " fill="#107FD3" transform="translate(64,64)"/>
<path d="M0 0 C2 2 2 2 2.1953125 5.2578125 C2.16050781 7.17207031 2.16050781 7.17207031 2.125 9.125 C2.10695313 10.40632813 2.08890625 11.68765625 2.0703125 13.0078125 C2.04710937 13.99523438 2.02390625 14.98265625 2 16 C1.34 16 0.68 16 0 16 C-1.33128076 13.33743847 -1.41344012 10.96127034 -1.6875 8 C-1.79449219 6.9275 -1.90148437 5.855 -2.01171875 4.75 C-2 2 -2 2 0 0 Z " fill="#159BEF" transform="translate(30,43)"/>
<path d="M0 0 C1.20366211 0.00483398 1.20366211 0.00483398 2.43164062 0.00976562 C3.68170898 0.02233398 3.68170898 0.02233398 4.95703125 0.03515625 C6.22450195 0.04192383 6.22450195 0.04192383 7.51757812 0.04882812 C9.6015928 0.06060222 11.68557102 0.07853735 13.76953125 0.09765625 C13.76953125 0.42765625 13.76953125 0.75765625 13.76953125 1.09765625 C10.33252497 1.60108997 6.89485117 2.09981149 3.45703125 2.59765625 C2.48056641 2.74074219 1.50410156 2.88382813 0.49804688 3.03125 C-0.43974609 3.16660156 -1.37753906 3.30195313 -2.34375 3.44140625 C-3.20782471 3.56708984 -4.07189941 3.69277344 -4.9621582 3.82226562 C-7.23046875 4.09765625 -7.23046875 4.09765625 -10.23046875 4.09765625 C-7.11994479 0.69089191 -4.53813926 -0.03218538 0 0 Z " fill="#149EDE" transform="translate(25.23046875,23.90234375)"/>
<path d="M0 0 C3.40245228 1.2961723 5.21739472 3.31723983 7.625 6 C5.07355176 6.93045933 3.88493522 7.08564091 1.265625 6.22265625 C0.47671875 5.83980469 -0.3121875 5.45695312 -1.125 5.0625 C-1.92421875 4.68222656 -2.7234375 4.30195313 -3.546875 3.91015625 C-4.15015625 3.60980469 -4.7534375 3.30945313 -5.375 3 C-2.671875 0 -2.671875 0 0 0 Z " fill="#5ECBF4" transform="translate(79.375,20)"/>
<path d="M0 0 C0.86321499 2.69754683 0.97805016 4.61459549 0.875 7.5 C1.01133896 11.31749096 1.60533086 12.20621933 4 15 C4 15.99 4 16.98 4 18 C1 17 1 17 -0.0625 15 C-0.371875 14.34 -0.68125 13.68 -1 13 C-1.66 12.67 -2.32 12.34 -3 12 C-2.67 8.7 -2.34 5.4 -2 2 C-1.34 2 -0.68 2 0 2 C0 1.34 0 0.68 0 0 Z M-2 9 C-1 11 -1 11 -1 11 Z " fill="#3271B8" transform="translate(13,59)"/>
<path d="M0 0 C0.66 0.66 1.32 1.32 2 2 C-1.9813783 3.3271261 -5.85045227 3.06915913 -10 3 C-10.33 3.99 -10.66 4.98 -11 6 C-11.66 5.67 -12.32 5.34 -13 5 C-13 3.68 -13 2.36 -13 1 C-8.25502375 -0.96742918 -5.01023306 -1.15620763 0 0 Z M-6 0 C-2 1 -2 1 -2 1 Z " fill="#2C70C1" transform="translate(54,13)"/>
<path d="M0 0 C0.268125 0.5775 0.53625 1.155 0.8125 1.75 C2.43962939 4.832982 4.49901246 7.4095504 6.75 10.0625 C7.1625 10.701875 7.575 11.34125 8 12 C7.67 12.99 7.34 13.98 7 15 C4.0642549 12.52677929 1.33433956 10.05750626 -1 7 C-1 3 -1 3 0 0 Z " fill="#3AA2DF" transform="translate(73,33)"/>
<path d="M0 0 C0.66 0.33 1.32 0.66 2 1 C1.67 1.33 1.34 1.66 1 2 C0.54074573 7.16928066 0.89544559 11.22967668 3 16 C2.67 16.99 2.34 17.98 2 19 C-1.86859046 13.43890122 -3.06715589 8.78760781 -2 2 C-1.34 1.34 -0.68 0.68 0 0 Z " fill="#0D5AC0" transform="translate(15,30)"/>
<path d="M0 0 C1.86323318 0.25288812 3.71708432 0.57690153 5.5625 0.9375 C6.57441406 1.13214844 7.58632813 1.32679687 8.62890625 1.52734375 C9.80259766 1.76130859 9.80259766 1.76130859 11 2 C11 2.99 11 3.98 11 5 C8.36 4.67 5.72 4.34 3 4 C2.67 4.66 2.34 5.32 2 6 C0 4 0 4 -1 1 C-0.67 0.67 -0.34 0.34 0 0 Z " fill="#173ABC" transform="translate(51,73)"/>
<path d="M0 0 C0.33 0.99 0.66 1.98 1 3 C3.64 2.01 6.28 1.02 9 0 C8.75 2.375 8.75 2.375 8 5 C4.7044247 7.66181082 1.06660119 7.15640774 -3 7 C-2.34 6.67 -1.68 6.34 -1 6 C-0.34227572 2.97065509 -0.34227572 2.97065509 0 0 Z " fill="#5190D5" transform="translate(72,68)"/>
<path d="M0 0 C0.515625 0.45375 1.03125 0.9075 1.5625 1.375 C4.57300574 3.38200383 7.50927237 4.12731809 11 5 C10.67 5.66 10.34 6.32 10 7 C8.68 6.67 7.36 6.34 6 6 C6.33 6.99 6.66 7.98 7 9 C1.25 7.25 1.25 7.25 -1 5 C-0.625 2.375 -0.625 2.375 0 0 Z " fill="#24C0EA" transform="translate(19,67)"/>
<path d="M0 0 C0.66 0.33 1.32 0.66 2 1 C2 3.31 2 5.62 2 8 C0.35 8.66 -1.3 9.32 -3 10 C-3.33 7.69 -3.66 5.38 -4 3 C-2.68 2.01 -1.36 1.02 0 0 Z M-3 4 C-2 7 -2 7 -2 7 Z " fill="#1CA0DD" transform="translate(31,27)"/>
<path d="M0 0 C0.66 0 1.32 0 2 0 C0.51915923 5.3063461 -1.35030658 9.4543455 -6.25 12.3125 C-7.11625 12.6528125 -7.11625 12.6528125 -8 13 C-6.5 10 -6.5 10 -5 7 C-5.99 5.68 -6.98 4.36 -8 3 C-5.03 3.495 -5.03 3.495 -2 4 C-1.34 2.68 -0.68 1.36 0 0 Z " fill="#1562E2" transform="translate(62,75)"/>
<path d="M0 0 C0 0.66 0 1.32 0 2 C-0.66 2 -1.32 2 -2 2 C-2 2.66 -2 3.32 -2 4 C-5.67410785 5.17571451 -9.16929183 5.07366746 -13 5 C-12.34 3.68 -11.68 2.36 -11 1 C-9.88625 1.020625 -8.7725 1.04125 -7.625 1.0625 C-4.58237918 1.01004102 -2.83730029 0 0 0 Z " fill="#1962E3" transform="translate(80,73)"/>
<path d="M0 0 C2.02045442 0.60183749 4.02111039 1.27306096 6 2 C7.23887548 4.47775095 7.16741669 6.23653707 7.1875 9 C7.20167969 9.886875 7.21585937 10.77375 7.23046875 11.6875 C7 14 7 14 5 16 C5.0825 14.783125 5.165 13.56625 5.25 12.3125 C5.27285423 8.00066864 3.97652486 6.15692031 1 3 C0.67 2.01 0.34 1.02 0 0 Z " fill="#0F97E0" transform="translate(84,27)"/>
<path d="M0 0 C0.99 0.33 1.98 0.66 3 1 C3.33 1.99 3.66 2.98 4 4 C3.67 4.66 3.34 5.32 3 6 C2.85624578 9.37822416 2.92463652 11.77390955 4 15 C3.01 15 2.02 15 1 15 C0.15318867 9.91913204 -0.09038099 5.15171623 0 0 Z " fill="#3091EE" transform="translate(30,59)"/>
<path d="M0 0 C1.91595968 -0.08133791 3.83291932 -0.13934367 5.75 -0.1875 C7.35101563 -0.23970703 7.35101563 -0.23970703 8.984375 -0.29296875 C12.30027855 0.02917214 13.59016673 0.77148914 16 3 C15.67 3.66 15.34 4.32 15 5 C9.125 3.125 9.125 3.125 8 2 C6.48071962 1.92820036 4.95832518 1.91607993 3.4375 1.9375 C2.19806641 1.95103516 2.19806641 1.95103516 0.93359375 1.96484375 C-0.02353516 1.98224609 -0.02353516 1.98224609 -1 2 C-0.67 1.34 -0.34 0.68 0 0 Z " fill="#2DCFF3" transform="translate(43,10)"/>
<path d="M0 0 C0.66 0.33 1.32 0.66 2 1 C1.55527344 1.45890625 1.11054688 1.9178125 0.65234375 2.390625 C0.08644531 3.00421875 -0.47945312 3.6178125 -1.0625 4.25 C-1.63097656 4.85328125 -2.19945312 5.4565625 -2.78515625 6.078125 C-4.25409331 7.94272384 -4.25409331 7.94272384 -3.68359375 10.234375 C-3.45800781 10.81703125 -3.23242188 11.3996875 -3 12 C-5.31 11.34 -7.62 10.68 -10 10 C-6.66666667 6.66666667 -3.33333333 3.33333333 0 0 Z " fill="#0D7BC9" transform="translate(29,40)"/>
<path d="M0 0 C1.65 0.33 3.3 0.66 5 1 C3.24135754 3.1793144 2.30604 3.93686419 -0.48046875 4.51171875 C-1.82044922 4.59873047 -1.82044922 4.59873047 -3.1875 4.6875 C-4.53908203 4.78611328 -4.53908203 4.78611328 -5.91796875 4.88671875 C-6.60503906 4.92410156 -7.29210938 4.96148437 -8 5 C-8.33 6.32 -8.66 7.64 -9 9 C-9 7.35 -9 5.7 -9 4 C-8.01 4 -7.02 4 -6 4 C-6 3.34 -6 2.68 -6 2 C-4.35 2 -2.7 2 -1 2 C-0.67 1.34 -0.34 0.68 0 0 Z " fill="#E8D442" transform="translate(50,43)"/>
<path d="M0 0 C-0.928125 0.1546875 -0.928125 0.1546875 -1.875 0.3125 C-4.36526484 0.87525373 -4.36526484 0.87525373 -6 4 C-7.63631892 5.04892238 -9.30485863 6.04906703 -11 7 C-11.99 7.66 -12.98 8.32 -14 9 C-13.33333333 7.66666667 -12.66666667 6.33333333 -12 5 C-11.5359375 3.948125 -11.5359375 3.948125 -11.0625 2.875 C-8.2759371 -2.04246395 -4.83963169 -0.91313805 0 0 Z " fill="#80E0F2" transform="translate(27,21)"/>
<path d="M0 0 C0.5625 1.9375 0.5625 1.9375 1 4 C-0.66342837 5.66342837 -2.7825709 5.36048097 -5.0625 5.5625 C-5.98160156 5.64628906 -6.90070312 5.73007812 -7.84765625 5.81640625 C-8.55792969 5.87699219 -9.26820312 5.93757813 -10 6 C-10 5.34 -10 4.68 -10 4 C-8.35 3.67 -6.7 3.34 -5 3 C-5.99 2.34 -6.98 1.68 -8 1 C-5.36 0.67 -2.72 0.34 0 0 Z " fill="#5EECFD" transform="translate(32,18)"/>
<path d="M0 0 C0.66 0.66 1.32 1.32 2 2 C-2.455 3.485 -2.455 3.485 -7 5 C-7.33 3.68 -7.66 2.36 -8 1 C-3.375 -1.125 -3.375 -1.125 0 0 Z " fill="#4BE2F9" transform="translate(59,21)"/>
<path d="M0 0 C0.66 0.33 1.32 0.66 2 1 C2 3.31 2 5.62 2 8 C1.34 8 0.68 8 0 8 C-1.37310707 9.29233607 -2.71034824 10.62437146 -4 12 C-4.33 11.01 -4.66 10.02 -5 9 C-4.54625 8.62875 -4.0925 8.2575 -3.625 7.875 C-1.52970606 5.45735315 -0.87986715 3.04569398 0 0 Z " fill="#C38C27" transform="translate(59,45)"/>
<path d="M0 0 C0.99 0.33 1.98 0.66 3 1 C2.34 1.66 1.68 2.32 1 3 C0.53993654 5.20250992 0.53993654 5.20250992 0.375 7.625 C0.30023437 8.44226562 0.22546875 9.25953125 0.1484375 10.1015625 C0.09945313 10.72804688 0.05046875 11.35453125 0 12 C-3.89830508 7.25423729 -3.89830508 7.25423729 -4 4 C-2.0625 1.75 -2.0625 1.75 0 0 Z " fill="#1F6BD0" transform="translate(19,28)"/>
<path d="M0 0 C0.33 0 0.66 0 1 0 C1.39253254 4.44870215 0.15305957 7.14243493 -2 11 C-2.99 10.67 -3.98 10.34 -5 10 C-4.625 8.0625 -4.625 8.0625 -4 6 C-3.34 5.67 -2.68 5.34 -2 5 C-1.27840576 3.35636866 -0.60648579 1.68949614 0 0 Z " fill="#2144C0" transform="translate(87,66)"/>
<path d="M0 0 C2 1 2 1 2.8515625 3.28515625 C3.10679688 4.20167969 3.36203125 5.11820313 3.625 6.0625 C3.88539062 6.98160156 4.14578125 7.90070312 4.4140625 8.84765625 C4.60742188 9.55792969 4.80078125 10.26820312 5 11 C4.34 11.66 3.68 12.32 3 13 C0.78145293 8.37802694 -0.38281159 5.23175837 0 0 Z " fill="#108AE0" transform="translate(15,35)"/>
<path d="M0 0 C1.32 0 2.64 0 4 0 C4 4.62 4 9.24 4 14 C3.34 13.34 2.68 12.68 2 12 C2 9.99207942 2.00411247 7.98363399 2.0625 5.9765625 C1.98661364 3.57665626 1.32645852 1.98968778 0 0 Z " fill="#1D50C8" transform="translate(25,58)"/>
<path d="M0 0 C2.97 0 5.94 0 9 0 C9 0.99 9 1.98 9 3 C6.03 3 3.06 3 0 3 C0 2.01 0 1.02 0 0 Z " fill="#4290ED" transform="translate(55,72)"/>
<path d="M0 0 C2 1 2 1 4 3 C5.64991582 3.70710678 7.31562256 4.37943989 9 5 C9 5.66 9 6.32 9 7 C8.01 7.33 7.02 7.66 6 8 C6 7.34 6 6.68 6 6 C4.02 5.34 2.04 4.68 0 4 C0 2.68 0 1.36 0 0 Z " fill="#54A2EF" transform="translate(41,64)"/>
<path d="M0 0 C2.52259061 1.97420135 2.9929808 2.96745642 3.6875 6.1875 C3.790625 7.115625 3.89375 8.04375 4 9 C3.01 8.67 2.02 8.34 1 8 C-0.35439668 5.29120665 -0.06501451 2.99066732 0 0 Z " fill="#4BA4F4" transform="translate(32,65)"/>
<path d="M0 0 C1.98 0.99 1.98 0.99 4 2 C3.67 3.65 3.34 5.3 3 7 C2.01 7 1.02 7 0 7 C0 4.69 0 2.38 0 0 Z " fill="#CDBA37" transform="translate(55,41)"/>
<path d="M0 0 C1.32 0.33 2.64 0.66 4 1 C4 2.32 4 3.64 4 5 C2.02 5.99 2.02 5.99 0 7 C0.2784375 6.1028125 0.2784375 6.1028125 0.5625 5.1875 C1.22093687 2.83591238 1.22093687 2.83591238 0 0 Z " fill="#50B6E6" transform="translate(73,49)"/>
<path d="M0 0 C1.32 1.32 2.64 2.64 4 4 C3.34 5.32 2.68 6.64 2 8 C1.34 7.67 0.68 7.34 0 7 C0 4.69 0 2.38 0 0 Z " fill="#1696E5" transform="translate(69,42)"/>
<path d="M0 0 C1.98 0 3.96 0 6 0 C6.66 1.32 7.32 2.64 8 4 C4.31245243 3.50168276 2.39509338 2.89932357 0 0 Z " fill="#4CC3EE" transform="translate(57,29)"/>
<path d="M0 0 C2.97 0.33 5.94 0.66 9 1 C8.67 1.66 8.34 2.32 8 3 C5.69 3 3.38 3 1 3 C0.67 2.01 0.34 1.02 0 0 Z " fill="#7FE2FB" transform="translate(66,20)"/>
<path d="M0 0 C0.99 0.33 1.98 0.66 3 1 C3 1.99 3 2.98 3 4 C1.02 4.99 1.02 4.99 -1 6 C-1.66 5.34 -2.32 4.68 -3 4 C-2.34 3.34 -1.68 2.68 -1 2 C-0.67 1.34 -0.34 0.68 0 0 Z " fill="#4ABEE2" transform="translate(63,60)"/>
<path d="M0 0 C2.62187494 1.04874998 3.79371361 1.64931313 5.25 4.125 C5.4975 4.74375 5.745 5.3625 6 6 C5.01 6 4.02 6 3 6 C0 2.66666667 0 2.66666667 0 0 Z " fill="#2796EE" transform="translate(22,51)"/>
<path d="M0 0 C0.66 0.33 1.32 0.66 2 1 C-0.97 3.475 -0.97 3.475 -4 6 C-4.33 4.68 -4.66 3.36 -5 2 C-4.01 2 -3.02 2 -2 2 C-1.34 1.34 -0.68 0.68 0 0 Z " fill="#2DD2FA" transform="translate(24,38)"/>
<path d="M0 0 C2.62187494 1.04874998 3.79371361 1.64931313 5.25 4.125 C5.4975 4.74375 5.745 5.3625 6 6 C3.97945196 4.35830472 1.97956942 2.69088222 0 1 C0 0.67 0 0.34 0 0 Z " fill="#67FFFF" transform="translate(59,9)"/>
<path d="M0 0 C0.33 0 0.66 0 1 0 C1.33 2.64 1.66 5.28 2 8 C0 6 0 6 -0.125 2.875 C-0.08375 1.92625 -0.0425 0.9775 0 0 Z " fill="#F5C146" transform="translate(39,47)"/>
<path d="M0 0 C0.33 0 0.66 0 1 0 C1 2.64 1 5.28 1 8 C0.67 8 0.34 8 0 8 C0 5.36 0 2.72 0 0 Z " fill="#008AFF" transform="translate(9,32)"/>
<path d="M0 0 C0.66 0.33 1.32 0.66 2 1 C0.68 1.99 -0.64 2.98 -2 4 C-1.34 2.68 -0.68 1.36 0 0 Z " fill="#2797FF" transform="translate(15,23)"/>
<path d="M0 0 C1.98 0 3.96 0 6 0 C6 0.33 6 0.66 6 1 C4.02 1 2.04 1 0 1 C0 0.67 0 0.34 0 0 Z " fill="#A9FFFF" transform="translate(47,5)"/>
<path d="M0 0 C0.33 0.66 0.66 1.32 1 2 C0.34 2.66 -0.32 3.32 -1 4 C-0.67 2.68 -0.34 1.36 0 0 Z " fill="#26CBF2" transform="translate(11,28)"/>
<path d="" fill="#1188EE" transform="translate(0,0)"/>
<path d="M0 0 C0.99 0.495 0.99 0.495 2 1 C1.01 1.495 1.01 1.495 0 2 C0 1.34 0 0.68 0 0 Z " fill="#FFFFD4" transform="translate(43,41)"/>
<path d="" fill="#3F69D4" transform="translate(0,0)"/>
<path d="M0 0 C2 1 2 1 2 1 Z " fill="#0000D4" transform="translate(41,91)"/>
<path d="" fill="#0000FF" transform="translate(0,0)"/>
<path d="" fill="#0000BF" transform="translate(0,0)"/>
<path d="M0 0 C2 1 2 1 2 1 Z " fill="#4A4A94" transform="translate(18,78)"/>
<path d="" fill="#0000FF" transform="translate(0,0)"/>
<path d="" fill="#00003F" transform="translate(0,0)"/>
<path d="M0 0 C2 1 2 1 2 1 Z " fill="#5FDFFF" transform="translate(55,65)"/>
<path d="M0 0 C2 1 2 1 2 1 Z " fill="#5FDFFF" transform="translate(43,65)"/>
<path d="" fill="#0000FF" transform="translate(0,0)"/>
<path d="" fill="#00DFFF" transform="translate(0,0)"/>
<path d="" fill="#00BFFF" transform="translate(0,0)"/>
<path d="" fill="#D42A00" transform="translate(0,0)"/>
<path d="" fill="#00BFBF" transform="translate(0,0)"/>
<path d="" fill="#0094D4" transform="translate(0,0)"/>
<path d="" fill="#00D4FF" transform="translate(0,0)"/>
<path d="" fill="#0077D4" transform="translate(0,0)"/>
<path d="" fill="#1F79C5" transform="translate(0,0)"/>
<path d="" fill="#007FFF" transform="translate(0,0)"/>
<path d="" fill="#007FFF" transform="translate(0,0)"/>
<path d="" fill="#00BFBF" transform="translate(0,0)"/>
<path d="" fill="#FFFF2A" transform="translate(0,0)"/>
<path d="" fill="#003FBF" transform="translate(0,0)"/>
<path d="" fill="#005FFF" transform="translate(0,0)"/>
<path d="" fill="#3F59E5" transform="translate(0,0)"/>
<path d="M0 0 C2 1 2 1 2 1 Z " fill="#6A6AD4" transform="translate(40,37)"/>
<path d="" fill="#00DF7F" transform="translate(0,0)"/>
<path d="" fill="#00FFFF" transform="translate(0,0)"/>
<path d="" fill="#55FFFF" transform="translate(0,0)"/>
<path d="" fill="#7FFFFF" transform="translate(0,0)"/>
<path d="" fill="#007FFF" transform="translate(0,0)"/>
<path d="" fill="#3333CC" transform="translate(0,0)"/>
<path d="" fill="#3F3FBF" transform="translate(0,0)"/>
<path d="" fill="#0000AA" transform="translate(0,0)"/>
<path d="" fill="#5555AA" transform="translate(0,0)"/>
<path d="" fill="#003FBF" transform="translate(0,0)"/>
<path d="" fill="#0055FF" transform="translate(0,0)"/>
<path d="" fill="#0066FF" transform="translate(0,0)"/>
<path d="" fill="#00AAFF" transform="translate(0,0)"/>
<path d="" fill="#2A7FD4" transform="translate(0,0)"/>
<path d="" fill="#5555AA" transform="translate(0,0)"/>
<path d="" fill="#0000FF" transform="translate(0,0)"/>
<path d="" fill="#007FFF" transform="translate(0,0)"/>
<path d="" fill="#3F3FBF" transform="translate(0,0)"/>
<path d="" fill="#7F7F7F" transform="translate(0,0)"/>
<path d="" fill="#BF3F00" transform="translate(0,0)"/>
<path d="" fill="#AA5555" transform="translate(0,0)"/>
<path d="" fill="#FF7F00" transform="translate(0,0)"/>
<path d="" fill="#AA5555" transform="translate(0,0)"/>
<path d="" fill="#FFFF7F" transform="translate(0,0)"/>
<path d="" fill="#FFFF7F" transform="translate(0,0)"/>
<path d="" fill="#00FFFF" transform="translate(0,0)"/>
<path d="" fill="#3F7FBF" transform="translate(0,0)"/>
<path d="" fill="#003FFF" transform="translate(0,0)"/>
<path d="" fill="#0055FF" transform="translate(0,0)"/>
<path d="" fill="#00FFFF" transform="translate(0,0)"/>
<path d="" fill="#55AAFF" transform="translate(0,0)"/>
<path d="" fill="#00BFFF" transform="translate(0,0)"/>
<path d="" fill="#0055AA" transform="translate(0,0)"/>
<path d="" fill="#AAFFFF" transform="translate(0,0)"/>
<path d="" fill="#3FBFFF" transform="translate(0,0)"/>
<path d="" fill="#3F7FBF" transform="translate(0,0)"/>
<path d="" fill="#7FFFFF" transform="translate(0,0)"/>
<path d="" fill="#7FFFFF" transform="translate(0,0)"/>
<path d="" fill="#7FD4D4" transform="translate(0,0)"/>
<path d="" fill="#7FFFFF" transform="translate(0,0)"/>
</svg>
