<?xml version="1.0" encoding="UTF-8"?>
<svg version="1.1" xmlns="http://www.w3.org/2000/svg" width="100" height="100">
<path d="M0 0 C1.31291016 -0.02513672 1.31291016 -0.02513672 2.65234375 -0.05078125 C5.0625 0.3125 5.0625 0.3125 6.8359375 1.6328125 C8.59551076 4.0424192 8.73814398 6.39329579 9.0625 9.3125 C10.320625 9.68375 11.57875 10.055 12.875 10.4375 C13.58269531 10.64632813 14.29039063 10.85515625 15.01953125 11.0703125 C17.37395413 11.57343748 17.37395413 11.57343748 20.0625 9.3125 C23.9598724 8.80414708 25.56806726 8.98287817 28.875 11.1875 C31.50623179 13.74355374 32.01181217 14.53528659 32.25 18.1875 C32.0625 21.3125 32.0625 21.3125 30.9375 23.25 C29.78008907 25.50200586 29.78008907 25.50200586 30.5 28.9375 C31.74384661 32.6602057 31.74384661 32.6602057 35.5625 33.625 C37.295 33.9653125 37.295 33.9653125 39.0625 34.3125 C41.0625 36.3125 41.0625 36.3125 41.0625 40.3125 C39.7425 40.3125 38.4225 40.3125 37.0625 40.3125 C36.7325 39.6525 36.4025 38.9925 36.0625 38.3125 C34.969375 37.94125 33.87625 37.57 32.75 37.1875 C28.76313866 35.55987413 27.3254418 33.32538254 25.64453125 29.44140625 C24.46234411 25.11729894 25.68924784 21.43225647 27.0625 17.3125 C26.0725 16.3225 25.0825 15.3325 24.0625 14.3125 C23.381875 14.663125 22.70125 15.01375 22 15.375 C17.21399286 16.90244909 13.4637581 15.79755088 8.8125 14.1875 C5.10244428 11.65791656 4.48870881 9.51189261 3.0625 5.3125 C1.0825 5.3125 -0.8975 5.3125 -2.9375 5.3125 C-3.2675 6.385 -3.5975 7.4575 -3.9375 8.5625 C-5.65159952 12.54050454 -7.89725621 14.03771678 -11.80859375 15.73046875 C-16.13270106 16.91265589 -19.81774353 15.68575216 -23.9375 14.3125 C-24.9275 15.3025 -25.9175 16.2925 -26.9375 17.3125 C-26.586875 17.993125 -26.23625 18.67375 -25.875 19.375 C-24.34755091 24.16100714 -25.45244912 27.9112419 -27.0625 32.5625 C-29.59208344 36.27255572 -31.73810739 36.88629119 -35.9375 38.3125 C-35.9375 40.2925 -35.9375 42.2725 -35.9375 44.3125 C-34.865 44.6425 -33.7925 44.9725 -32.6875 45.3125 C-28.70949546 47.02659952 -27.21228322 49.27225621 -25.51953125 53.18359375 C-24.33734411 57.50770106 -25.56424784 61.19274353 -26.9375 65.3125 C-25.9475 66.3025 -24.9575 67.2925 -23.9375 68.3125 C-23.256875 67.961875 -22.57625 67.61125 -21.875 67.25 C-17.08899286 65.72255091 -13.3387581 66.82744912 -8.6875 68.4375 C-4.97744428 70.96708344 -4.36370881 73.11310739 -2.9375 77.3125 C-0.9575 77.3125 1.0225 77.3125 3.0625 77.3125 C3.475 76.178125 3.8875 75.04375 4.3125 73.875 C6.0625 70.3125 6.0625 70.3125 8.25 69.375 C8.848125 69.354375 9.44625 69.33375 10.0625 69.3125 C10.3925 70.6325 10.7225 71.9525 11.0625 73.3125 C10.4025 73.3125 9.7425 73.3125 9.0625 73.3125 C8.77375 74.42625 8.485 75.54 8.1875 76.6875 C7.0625 80.3125 7.0625 80.3125 5.0625 82.3125 C2.78515625 82.61328125 2.78515625 82.61328125 0.125 82.625 C-0.75027344 82.64175781 -1.62554687 82.65851563 -2.52734375 82.67578125 C-4.9375 82.3125 -4.9375 82.3125 -6.7109375 80.9921875 C-8.47051076 78.5825808 -8.61314398 76.23170421 -8.9375 73.3125 C-10.8246875 72.755625 -10.8246875 72.755625 -12.75 72.1875 C-13.45769531 71.97867188 -14.16539063 71.76984375 -14.89453125 71.5546875 C-17.24895413 71.05156252 -17.24895413 71.05156252 -19.9375 73.3125 C-23.8348724 73.82085292 -25.44306726 73.64212183 -28.75 71.4375 C-31.38123179 68.88144626 -31.88681217 68.08971341 -32.125 64.4375 C-31.9375 61.3125 -31.9375 61.3125 -30.8125 59.375 C-29.65508907 57.12299414 -29.65508907 57.12299414 -30.375 53.6875 C-31.61884661 49.9647943 -31.61884661 49.9647943 -35.4375 49 C-36.5925 48.773125 -37.7475 48.54625 -38.9375 48.3125 C-41.44762963 45.80237037 -41.23471609 44.84444763 -41.25 41.375 C-41.26675781 40.49972656 -41.28351562 39.62445313 -41.30078125 38.72265625 C-40.9375 36.3125 -40.9375 36.3125 -39.6171875 34.5390625 C-37.2075808 32.77948924 -34.85670421 32.63685602 -31.9375 32.3125 C-31.56625 31.054375 -31.195 29.79625 -30.8125 28.5 C-30.60367187 27.79230469 -30.39484375 27.08460937 -30.1796875 26.35546875 C-29.67656252 24.00104587 -29.67656252 24.00104587 -31.9375 21.3125 C-32.44585292 17.4151276 -32.26712183 15.80693274 -30.0625 12.5 C-27.50644626 9.86876821 -26.71471341 9.36318783 -23.0625 9.125 C-19.9375 9.3125 -19.9375 9.3125 -18 10.4375 C-15.74799414 11.59491093 -15.74799414 11.59491093 -12.3125 10.875 C-8.5897943 9.63115339 -8.5897943 9.63115339 -7.625 5.8125 C-7.398125 4.6575 -7.17125 3.5025 -6.9375 2.3125 C-4.42737037 -0.19762963 -3.46944763 0.01528391 0 0 Z " fill="#664AFF" transform="translate(49.9375,8.6875)"/>
<path d="M0 0 C0 4.29 0 8.58 0 13 C5.28199593 14.19988045 5.28199593 14.19988045 10 12 C10.58481121 9.11404054 10.58481121 9.11404054 10.6875 5.875 C10.75324219 4.77929688 10.81898437 3.68359375 10.88671875 2.5546875 C10.92410156 1.71164063 10.96148437 0.86859375 11 0 C17.35227273 0.48863636 17.35227273 0.48863636 20.375 2.875 C23.64081667 7.14568334 23.60729554 11.84226462 23 17 C22.02580403 19.95598891 20.97355245 21.45515605 19 24 C15.75 25.4375 15.75 25.4375 13 26 C12.87882812 26.69867188 12.75765625 27.39734375 12.6328125 28.1171875 C12.46523437 29.02726562 12.29765625 29.93734375 12.125 30.875 C11.96257812 31.77992187 11.80015625 32.68484375 11.6328125 33.6171875 C11 36 11 36 9 38 C5.5 38.25 5.5 38.25 2 38 C-0.45573703 35.54426297 -0.30553929 34.44062004 -0.6875 31.0625 C-1.08990562 28.36425549 -1.08990562 28.36425549 -2 26 C-5.37668094 24.10040371 -5.37668094 24.10040371 -9 23 C-12.09944967 19.80056809 -12.23093903 16.78725439 -12.375 12.5 C-12.24851719 8.22833066 -11.96532952 5.2830434 -9 2 C-5.70008006 -0.30994395 -4.34890362 0 0 0 Z " fill="#A6B9FF" transform="translate(68,53)"/>
<path d="M0 0 C0.13526139 2.24834496 0.23210804 4.49902514 0.3125 6.75 C0.37050781 8.00296875 0.42851563 9.2559375 0.48828125 10.546875 C0 14 0 14 -2.45703125 16.328125 C-3.71580078 17.15570313 -3.71580078 17.15570313 -5 18 C-6.26502075 20.5300415 -5.81096957 21.83491194 -5.5 24.625 C-5.41548077 28.25932708 -5.66107942 29.58694054 -8 32.4375 C-10.263259 34.41785163 -12.54889252 36.25893556 -15 38 C-15.99 37.67 -16.98 37.34 -18 37 C-21.26905618 30.34081148 -22.40762526 23.76776298 -20.2734375 16.5390625 C-18.31791072 11.7535864 -15.98382648 8.38625251 -12 5 C-11.360625 4.443125 -10.72125 3.88625 -10.0625 3.3125 C-6.98102983 1.35156444 -3.68462219 0 0 0 Z M-12.0859375 10.94921875 C-15.69329685 14.81424662 -17.05105866 18.45071405 -16.9453125 23.73046875 C-16.71757013 26.1769739 -16.41188008 28.57834362 -16 31 C-14.35 30.34 -12.7 29.68 -11 29 C-10.99742188 28.28714844 -10.99484375 27.57429688 -10.9921875 26.83984375 C-10.73098061 20.37061967 -9.91094012 17.07005406 -5.30078125 12.50390625 C-3.71909 10.95543841 -3.71909 10.95543841 -3.625 8.0625 C-3.74875 7.381875 -3.8725 6.70125 -4 6 C-7.49393257 6 -9.59612114 8.69027627 -12.0859375 10.94921875 Z " fill="#634BFF" transform="translate(47,26)"/>
<path d="M0 0 C7.4180883 1.90133525 12.41040667 3.59653448 17.1875 9.875 C19.91444285 14.57662561 21.32112506 18.54087399 21 24 C19.68 24 18.36 24 17 24 C16.79246094 23.27554688 16.58492187 22.55109375 16.37109375 21.8046875 C14.22066238 15.05647191 12.01049803 10.87869577 6 7 C5.34 6.67 4.68 6.34 4 6 C4.93628514 9.35502176 5.7738276 11.72435239 8 14.4375 C10.4773651 17.61162403 11.08446598 20.10898041 12 24 C10.35 24 8.7 24 7 24 C6.34895833 22.27473958 5.69791667 20.54947917 5.046875 18.82421875 C4.09537227 16.82813838 4.09537227 16.82813838 1.90625 15.71875 C0 14 0 14 -0.390625 10.64453125 C-0.34421875 9.37996094 -0.2978125 8.11539063 -0.25 6.8125 C-0.21390625 5.54019531 -0.1778125 4.26789062 -0.140625 2.95703125 C-0.09421875 1.98121094 -0.0478125 1.00539063 0 0 Z " fill="#5750FF" transform="translate(53,26)"/>
<path d="M0 0 C2.5 1.75 2.5 1.75 4 4 C4 5.32 4 6.64 4 8 C2.68 8 1.36 8 0 8 C-0.66 7.01 -1.32 6.02 -2 5 C-3.65 5.33 -5.3 5.66 -7 6 C-6.65555119 8.47266765 -6.65555119 8.47266765 -6 11 C-5.34 11.33 -4.68 11.66 -4 12 C-4 13.32 -4 14.64 -4 16 C-6.55687669 15.65447612 -8.57501375 15.24912987 -10.8125 13.9375 C-12.74927342 10.77750125 -12.61939342 7.53837391 -12 4 C-9.17479166 -0.70868057 -5.06004922 -1.03689533 0 0 Z " fill="#6B47FF" transform="translate(54,42)"/>
<path d="M0 0 C0.825 0.33 1.65 0.66 2.5 1 C2.5 2.65 2.5 4.3 2.5 6 C1.71625 5.938125 0.9325 5.87625 0.125 5.8125 C-1.174375 5.9053125 -1.174375 5.9053125 -2.5 6 C-3.49 7.485 -3.49 7.485 -4.5 9 C-2.19 9.66 0.12 10.32 2.5 11 C2.5 12.32 2.5 13.64 2.5 15 C-2.91390868 14.53328373 -6.70517932 13.75702189 -11.5 11 C-11.5 7.16858437 -10.48175071 6.46414494 -7.875 3.75 C-4.02919708 0 -4.02919708 0 0 0 Z " fill="#9138FF" transform="translate(47.5,59)"/>
</svg>
