<?xml version="1.0" encoding="utf-8"?>
<!-- Generator: Adobe Illustrator 18.0.0, SVG Export Plug-In . SVG Version: 6.00 Build 0)  -->
<!DOCTYPE svg PUBLIC "-//W3C//DTD SVG 1.1//EN" "http://www.w3.org/Graphics/SVG/1.1/DTD/svg11.dtd">
<svg version="1.1" id="Icon_Set" xmlns="http://www.w3.org/2000/svg" xmlns:xlink="http://www.w3.org/1999/xlink" x="0px" y="0px"
	 viewBox="0 0 512 512" style="enable-background:new 0 0 512 512;" xml:space="preserve">
<style type="text/css">
	.st0{fill:#4C4372;}
	.st1{fill:#F0C48A;}
	.st2{fill:#FD919E;}
	.st3{fill:#E8677D;}
	.st4{fill:#D3E6F8;}
	.st5{fill:#A4CFF2;}
	.st6{fill:#7BABF1;}
	.st7{fill:#FFFFFF;}
</style>
<g>
	<g>
		<g>
			<g>
				<circle class="st1" cx="256" cy="256" r="207"/>
			</g>
		</g>
	</g>
	<g>
		<g>
			<g>
				<g>
					<path class="st2" d="M256,5.863L256,5.863c-43.837,0-79.374,35.537-79.374,79.374v39.44h158.747v-39.44
						C335.373,41.399,299.837,5.863,256,5.863z"/>
				</g>
			</g>
		</g>
		<g>
			<g>
				<g>
					<path class="st7" d="M256,284.573L256,284.573c-38.773,0-70.205-31.432-70.205-70.206v-58.426h140.41v58.426
						C326.205,253.141,294.773,284.573,256,284.573z"/>
				</g>
			</g>
		</g>
		<g>
			<g>
				<path class="st5" d="M373.63,306.086h-79.517v3.399c0,21.05-17.064,38.114-38.113,38.114s-38.113-17.064-38.113-38.114v-3.399
					H138.37c-18.054,0-32.688,14.635-32.688,32.688v95.014h300.637v-95.014C406.318,320.721,391.684,306.086,373.63,306.086z"/>
			</g>
		</g>
		<g>
			<g>
				<path class="st4" d="M256,284.573L256,284.573c-14.056,0-27.136-4.147-38.113-11.26v36.172c0,21.05,17.063,38.114,38.113,38.114
					s38.113-17.064,38.113-38.114v-36.172C283.135,280.427,270.056,284.573,256,284.573z"/>
			</g>
		</g>
		<g>
			<g>
				<g>
					<rect x="155.417" y="306.086" class="st7" width="28.888" height="127.702"/>
				</g>
			</g>
		</g>
		<g>
			<g>
				<g>
					<rect x="327.694" y="306.086" class="st7" width="28.889" height="127.702"/>
				</g>
			</g>
		</g>
		<g>
			<g>
				<g>
					<path class="st6" d="M384.588,307.974v125.814h21.73v-95.014C406.318,324.566,397.25,312.48,384.588,307.974z"/>
				</g>
			</g>
		</g>
		<g>
			<g>
				<g>
					<path class="st2" d="M349.791,155.942H162.208c-8.634,0-15.633-6.999-15.633-15.633l0,0c0-8.634,6.999-15.633,15.633-15.633
						h187.583c8.634,0,15.633,6.999,15.633,15.633l0,0C365.424,148.943,358.425,155.942,349.791,155.942z"/>
				</g>
			</g>
		</g>
		<g>
			<g>
				<g>
					<path class="st3" d="M365.377,141.238H146.622c0.483,8.199,7.267,14.704,15.586,14.704h187.583
						C358.111,155.942,364.895,149.437,365.377,141.238z"/>
				</g>
			</g>
		</g>
		<g>
			<g>
				<path class="st3" d="M256,5.863L256,5.863c-3.049,0-6.056,0.178-9.015,0.512c39.591,4.477,70.359,38.073,70.359,78.861v39.44
					h18.028v-39.44C335.373,41.399,299.837,5.863,256,5.863z"/>
			</g>
		</g>
		<g>
			<g>
				<g>
					<path class="st2" d="M256,5.863L256,5.863c-6.201,0-12.236,0.712-18.029,2.058v116.756h36.059V7.92
						C268.236,6.575,262.201,5.863,256,5.863z"/>
				</g>
			</g>
		</g>
		<g>
			<g>
				<g>
					<path class="st4" d="M303.609,213.936c0,35.382-26.178,64.636-60.22,69.486c4.093,0.743,8.303,1.152,12.61,1.152l0,0
						c38.773,0,70.205-31.432,70.205-70.206v-58.426h-22.596V213.936z"/>
				</g>
			</g>
		</g>
		<g>
			<g>
				<path class="st5" d="M272.383,282.631v61.273c12.85-6.127,21.73-19.233,21.73-34.417v-36.174
					C287.543,277.571,280.221,280.757,272.383,282.631z"/>
			</g>
		</g>
		<g>
			<g>
				<g>
					<path class="st0" d="M341.235,130.539H170.764V85.236C170.764,38.237,209.001,0,256,0s85.235,38.237,85.235,85.236V130.539z
						 M182.489,118.813h147.02V85.236c0-40.534-32.977-73.511-73.51-73.511s-73.511,32.977-73.511,73.511V118.813z"/>
				</g>
			</g>
		</g>
		<g>
			<g>
				<g>
					<path class="st0" d="M256,290.436c-41.943,0-76.068-34.124-76.068-76.068V150.08h152.136v64.288
						C332.067,256.312,297.943,290.436,256,290.436z M191.657,161.805v52.563c0,35.479,28.863,64.343,64.343,64.343
						c35.478,0,64.342-28.864,64.342-64.343v-52.563H191.657z"/>
				</g>
			</g>
		</g>
		<g>
			<g>
				<path class="st0" d="M412.182,439.651H99.818V338.775c0-21.257,17.294-38.551,38.552-38.551h85.379v9.261
					c0,17.783,14.468,32.251,32.251,32.251s32.251-14.468,32.251-32.251v-9.261h85.379c21.257,0,38.552,17.294,38.552,38.551
					V439.651z M111.544,427.926h288.912v-89.151c0-14.792-12.034-26.826-26.826-26.826h-73.722
					c-1.283,23.106-20.487,41.512-43.908,41.512s-42.625-18.406-43.908-41.512H138.37c-14.792,0-26.826,12.034-26.826,26.826
					V427.926z"/>
			</g>
		</g>
		<g>
			<g>
				<path class="st0" d="M256,353.461c-24.248,0-43.977-19.728-43.977-43.976v-46.957l9.051,5.865
					c10.417,6.75,22.493,10.317,34.926,10.317c12.432,0,24.508-3.568,34.926-10.317l9.051-5.865v46.957
					C299.977,333.734,280.248,353.461,256,353.461z M223.749,283.26v26.225c0,17.783,14.468,32.251,32.251,32.251
					s32.251-14.468,32.251-32.251V283.26c-10.049,4.716-21.028,7.176-32.251,7.176C244.776,290.436,233.798,287.977,223.749,283.26z
					"/>
			</g>
		</g>
		<g>
			<g>
				<g>
					<path class="st0" d="M190.168,439.651h-40.613V300.224h40.613V439.651z M161.279,427.926h17.163V311.949h-17.163V427.926z"/>
				</g>
			</g>
		</g>
		<g>
			<g>
				<g>
					<path class="st0" d="M362.445,439.651h-40.613V300.224h40.613V439.651z M333.557,427.926h17.164V311.949h-17.164V427.926z"/>
				</g>
			</g>
		</g>
		<g>
			<g>
				<g>
					<path class="st0" d="M349.791,161.805H162.208c-11.852,0-21.495-9.643-21.495-21.496c0-11.853,9.643-21.496,21.495-21.496
						h187.583c11.854,0,21.496,9.643,21.496,21.496C371.287,152.162,361.645,161.805,349.791,161.805z M162.208,130.539
						c-5.388,0-9.77,4.383-9.77,9.77c0,5.387,4.383,9.771,9.77,9.771h187.583c5.387,0,9.772-4.383,9.772-9.771
						c0-5.387-4.385-9.77-9.772-9.77H162.208z"/>
				</g>
			</g>
		</g>
		<g>
			<g>
				<g>
					<path class="st0" d="M279.891,130.539h-47.782V3.263l4.536-1.053c12.625-2.933,26.086-2.933,38.71,0l4.536,1.053V130.539z
						 M243.834,118.813h24.332V12.728c-8.012-1.333-16.32-1.333-24.332,0V118.813z"/>
				</g>
			</g>
		</g>
		<g>
			<g>
				<path class="st2" d="M327.694,451.24v-33.594h-15.188c-1.172-3.949-2.743-7.726-4.673-11.282l10.74-10.74l-23.755-23.755
					l-10.74,10.74c-3.555-1.93-7.332-3.501-11.281-4.673v-15.189h-33.594v15.189c-3.949,1.172-7.727,2.743-11.281,4.673
					l-10.74-10.74l-23.755,23.755l10.74,10.74c-1.93,3.555-3.501,7.333-4.673,11.282h-15.189v33.594h15.189
					c1.172,3.949,2.743,7.727,4.673,11.282l-10.74,10.74l23.755,23.755l10.74-10.74c3.555,1.93,7.332,3.501,11.281,4.673v15.189
					h33.594v-15.189c3.949-1.172,7.727-2.743,11.281-4.673l10.74,10.74l23.755-23.755l-10.74-10.74
					c1.93-3.555,3.501-7.333,4.673-11.282H327.694z M256,469.837c-19.548,0-35.395-15.847-35.395-35.395
					c0-19.548,15.847-35.395,35.395-35.395s35.395,15.847,35.395,35.395C291.395,453.991,275.548,469.837,256,469.837z"/>
			</g>
		</g>
		<g>
			<g>
				<path class="st3" d="M304.21,434.443c0-26.626-21.585-48.21-48.21-48.21c-26.626,0-48.21,21.584-48.21,48.21
					c0,26.625,21.584,48.21,48.21,48.21C282.625,482.653,304.21,461.068,304.21,434.443z M256,469.837
					c-19.548,0-35.395-15.847-35.395-35.395c0-19.548,15.847-35.395,35.395-35.395s35.395,15.847,35.395,35.395
					C291.395,453.991,275.548,469.837,256,469.837z"/>
			</g>
		</g>
		<g>
			<g>
				<path class="st0" d="M256,475.7c-22.75,0-41.258-18.508-41.258-41.257c0-22.749,18.508-41.257,41.258-41.257
					s41.258,18.508,41.258,41.257C297.258,457.192,278.75,475.7,256,475.7z M256,404.911c-16.284,0-29.532,13.248-29.532,29.532
					c0,16.284,13.248,29.532,29.532,29.532s29.532-13.248,29.532-29.532C285.532,418.159,272.284,404.911,256,404.911z"/>
			</g>
		</g>
		<g>
			<g>
				<g>
					<path class="st0" d="M272.797,512h-33.594c-3.237,0-5.863-2.625-5.863-5.862v-10.972c-1.439-0.537-2.859-1.125-4.255-1.762
						l-7.759,7.758c-2.289,2.289-6.003,2.289-8.29,0l-23.755-23.754c-1.1-1.099-1.718-2.591-1.718-4.146
						c0-1.555,0.618-3.046,1.718-4.146l7.758-7.758c-0.638-1.396-1.226-2.816-1.763-4.255h-10.972c-3.237,0-5.862-2.625-5.862-5.863
						v-33.594c0-3.238,2.625-5.863,5.862-5.863h10.972c0.537-1.439,1.125-2.859,1.763-4.256l-7.758-7.758
						c-1.1-1.099-1.718-2.591-1.718-4.145c0-1.555,0.618-3.046,1.718-4.146l23.755-23.755c2.288-2.289,6.002-2.289,8.29,0
						l7.759,7.758c1.395-0.637,2.815-1.225,4.255-1.762v-10.972c0-3.237,2.626-5.862,5.863-5.862h33.594
						c3.237,0,5.862,2.625,5.862,5.862v10.972c1.44,0.537,2.86,1.125,4.256,1.762l7.759-7.758c2.289-2.29,6.002-2.289,8.29,0
						l23.755,23.755c1.1,1.1,1.717,2.591,1.717,4.146c0,1.555-0.617,3.046-1.717,4.145l-7.758,7.758
						c0.637,1.397,1.225,2.816,1.762,4.256h10.972c3.237,0,5.862,2.625,5.862,5.863v33.594c0,3.238-2.625,5.863-5.862,5.863h-10.972
						c-0.537,1.439-1.125,2.859-1.762,4.255l7.758,7.758c1.1,1.1,1.717,2.591,1.717,4.146c0,1.555-0.617,3.046-1.717,4.146
						l-23.755,23.754c-2.288,2.289-6.003,2.289-8.29,0l-7.759-7.758c-1.396,0.637-2.815,1.225-4.256,1.762v10.972
						C278.659,509.375,276.034,512,272.797,512z M245.065,500.275h21.868v-9.326c0-2.595,1.707-4.882,4.195-5.62
						c3.524-1.046,6.94-2.461,10.151-4.205c2.282-1.24,5.106-0.83,6.942,1.007l6.596,6.595l15.464-15.463l-6.595-6.595
						c-1.836-1.836-2.246-4.66-1.008-6.942c1.746-3.216,3.16-6.632,4.205-10.152c0.739-2.488,3.025-4.195,5.621-4.195h9.326v-21.869
						h-9.326c-2.596,0-4.882-1.707-5.621-4.195c-1.045-3.521-2.459-6.936-4.205-10.152c-1.238-2.282-0.828-5.107,1.008-6.942
						l6.595-6.594l-15.464-15.464l-6.596,6.594c-1.836,1.836-4.66,2.245-6.942,1.007c-3.211-1.744-6.627-3.159-10.151-4.205
						c-2.488-0.739-4.195-3.025-4.195-5.62v-9.326h-21.868v9.326c0,2.595-1.706,4.882-4.194,5.62
						c-3.524,1.046-6.941,2.461-10.152,4.205c-2.283,1.238-5.106,0.829-6.942-1.007l-6.595-6.594l-15.464,15.464l6.595,6.594
						c1.835,1.836,2.245,4.66,1.007,6.942c-1.745,3.216-3.16,6.632-4.205,10.152c-0.738,2.488-3.025,4.195-5.62,4.195h-9.326v21.869
						h9.326c2.596,0,4.882,1.707,5.62,4.195c1.045,3.52,2.459,6.936,4.205,10.152c1.238,2.282,0.828,5.107-1.007,6.942l-6.595,6.595
						l15.464,15.463l6.595-6.595c1.834-1.836,4.659-2.246,6.942-1.007c3.211,1.744,6.628,3.159,10.152,4.205
						c2.488,0.739,4.194,3.025,4.194,5.62V500.275z"/>
				</g>
			</g>
		</g>
	</g>
</g>
</svg>
