<?xml version="1.0" encoding="UTF-8"?>
<svg version="1.1" xmlns="http://www.w3.org/2000/svg" width="100" height="100">
<path d="M0 0 C6.31928 3.41891505 11.72549316 7.38200497 14.49609375 14.16796875 C15.14092479 16.51235446 15.30151956 18.58784348 15 21 C16.32 21.66 17.64 22.32 19 23 C19.62552427 32.92150989 19.62552427 32.92150989 17.1875 37.125 C15 39 15 39 12 40 C10.86156892 41.96952906 10.03913851 43.99322372 9.16015625 46.08984375 C7.75745339 48.39934441 6.4732887 49.01378258 4 50 C8.18073907 54.68749532 12.16862038 56.78637699 18.12109375 58.671875 C18.82363281 58.90390625 19.52617188 59.1359375 20.25 59.375 C20.89453125 59.56835938 21.5390625 59.76171875 22.203125 59.9609375 C24.92234243 61.53335453 25.71892062 63.13866701 27 66 C27.3386367 68.80901914 27.55421111 71.43866984 27.625 74.25 C27.36266486 79.00561135 27.36266486 79.00561135 29 83 C28.67 87.62 28.34 92.24 28 97 C6.88 97 -14.24 97 -36 97 C-36.33 92.38 -36.66 87.76 -37 83 C-36.505 82.505 -36.505 82.505 -36 82 C-35.79607799 78.6919318 -35.6537346 75.39117412 -35.5703125 72.078125 C-35.37243381 67.59287478 -34.86055912 64.51967412 -32 61 C-30.203125 59.9609375 -30.203125 59.9609375 -28.25 59.375 C-27.198125 59.02888672 -27.198125 59.02888672 -26.125 58.67578125 C-25.42375 58.45277344 -24.7225 58.22976562 -24 58 C-19.53665917 56.37124054 -16.15845735 54.66381052 -13 51 C-13.63228516 50.32904297 -13.63228516 50.32904297 -14.27734375 49.64453125 C-19.71880492 43.6397188 -19.71880492 43.6397188 -20 39 C-20.78375 38.896875 -21.5675 38.79375 -22.375 38.6875 C-25 38 -25 38 -27 35 C-27.30078125 32.22265625 -27.30078125 32.22265625 -27.3125 29.0625 C-27.32925781 28.02222656 -27.34601562 26.98195313 -27.36328125 25.91015625 C-26.95381407 22.63001594 -26.08780612 21.48350005 -24 19 C-23.20266862 17.08632649 -23.20266862 17.08632649 -22.625 15.125 C-20.27631055 8.63298146 -16.03237558 4.31284898 -10.09375 0.93359375 C-6.50439401 -0.66688401 -3.71357812 -1.13306704 0 0 Z " fill="#0B0906" transform="translate(54,3)"/>
<path d="M0 0 C0 1.32 0 2.64 0 4 C1.32 4.33 2.64 4.66 4 5 C4.495 6.98 4.495 6.98 5 9 C5.66 8.67 6.32 8.34 7 8 C6.979375 8.969375 6.95875 9.93875 6.9375 10.9375 C6.64381501 13.87465895 6.64381501 13.87465895 8 15 C8.33 13.02 8.66 11.04 9 9 C10.6065676 9.25620684 12.2102483 9.53055871 13.8125 9.8125 C15.15248047 10.03873047 15.15248047 10.03873047 16.51953125 10.26953125 C19.29381129 11.08652395 20.20559127 11.77798748 22 14 C22.43237305 15.90112305 22.43237305 15.90112305 22.51171875 18.01171875 C22.54716797 18.76904297 22.58261719 19.52636719 22.61914062 20.30664062 C22.65297852 21.48516602 22.65297852 21.48516602 22.6875 22.6875 C22.72166016 23.48478516 22.75582031 24.28207031 22.79101562 25.10351562 C22.87338104 27.06851904 22.93837067 29.03423696 23 31 C20.36 31 17.72 31 15 31 C15 28.03 15 25.06 15 22 C14.34 22 13.68 22 13 22 C13 25.63 13 29.26 13 33 C12.01 33.495 12.01 33.495 11 34 C11.99 34.495 11.99 34.495 13 35 C13 38.3 13 41.6 13 45 C3.12263947 45.7515383 -6.71792249 46.10678846 -16.625 46.125 C-17.64335938 46.12951172 -18.66171875 46.13402344 -19.7109375 46.13867188 C-33.88946011 46.11053989 -33.88946011 46.11053989 -36 44 C-36.07226502 42.14712498 -36.0838122 40.29166122 -36.0625 38.4375 C-36.05347656 37.42558594 -36.04445313 36.41367188 -36.03515625 35.37109375 C-36.02355469 34.58863281 -36.01195313 33.80617187 -36 33 C-32.7 33 -29.4 33 -26 33 C-26.33 32.34 -26.66 31.68 -27 31 C-29.64 31 -32.28 31 -35 31 C-35.44728916 17.48192771 -35.44728916 17.48192771 -33 12 C-29.16976625 9.8197131 -25.37913624 9 -21 9 C-20.67 12.96 -20.34 16.92 -20 21 C-18.35 21 -16.7 21 -15 21 C-15 19.02 -15 17.04 -15 15 C-16.32 14.67 -17.64 14.34 -19 14 C-18.01 13.67 -17.02 13.34 -16 13 C-15.26676204 10.98491642 -15.26676204 10.98491642 -15 9 C-13.35 10.32 -11.7 11.64 -10 13 C-9.01 12.01 -8.02 11.02 -7 10 C-7.825 9.071875 -8.65 8.14375 -9.5 7.1875 C-12 4.375 -12 4.375 -12 1 C-10.37512529 0.83211627 -8.75009558 0.66573213 -7.125 0.5 C-6.22007813 0.4071875 -5.31515625 0.314375 -4.3828125 0.21875 C-2 0 -2 0 0 0 Z " fill="#120D09" transform="translate(56,54)"/>
<path d="M0 0 C0.66 0.33 1.32 0.66 2 1 C2 1.66 2 2.32 2 3 C20.315 3.495 20.315 3.495 39 4 C39 4.33 39 4.66 39 5 C25.8 5 12.6 5 -1 5 C-1 5.66 -1 6.32 -1 7 C0.65 7 2.3 7 4 7 C4.10957031 7.94101562 4.21914063 8.88203125 4.33203125 9.8515625 C4.49058594 11.09679688 4.64914063 12.34203125 4.8125 13.625 C4.96332031 14.85476562 5.11414063 16.08453125 5.26953125 17.3515625 C6.20476142 22.02271214 7.509945 25.68524559 11.125 28.875 C15.16933838 30.45756719 18.71446096 30.68659164 23 30 C27.16143135 27.88145313 29.11703476 26.20046092 31 22 C31.99 21.67 32.98 21.34 34 21 C33.49890042 25.38462134 32.01704885 27.8000997 29 31 C28.34 31 27.68 31 27 31 C31.18073907 35.68749532 35.16862038 37.78637699 41.12109375 39.671875 C41.82363281 39.90390625 42.52617188 40.1359375 43.25 40.375 C43.89453125 40.56835938 44.5390625 40.76171875 45.203125 40.9609375 C47.92234243 42.53335453 48.71892062 44.13866701 50 47 C50.3386367 49.80901914 50.55421111 52.43866984 50.625 55.25 C50.36266486 60.00561135 50.36266486 60.00561135 52 64 C51.67 68.62 51.34 73.24 51 78 C41.1 78 31.2 78 21 78 C21 77.67 21 77.34 21 77 C26.61 77 32.22 77 38 77 C38 74.69 38 72.38 38 70 C32.39 70 26.78 70 21 70 C21 69.67 21 69.34 21 69 C26.61 69 32.22 69 38 69 C38 68.34 38 67.68 38 67 C37.01 66.67 36.02 66.34 35 66 C35.99 65.67 36.98 65.34 38 65 C38 61.37 38 57.74 38 54 C38.66 54 39.32 54 40 54 C40 56.97 40 59.94 40 63 C42.64 63 45.28 63 48 63 C47.34 56.73 46.68 50.46 46 44 C42.04 43.01 38.08 42.02 34 41 C34 44.63 34 48.26 34 52 C33.67 52 33.34 52 33 52 C32.8453125 50.824375 32.8453125 50.824375 32.6875 49.625 C32.22404978 46.66954819 32.22404978 46.66954819 29 45 C29.99 45 30.98 45 32 45 C31.505 43.02 31.505 43.02 31 41 C30.01 41.495 30.01 41.495 29 42 C28.67 40.35 28.34 38.7 28 37 C27.01 36.67 26.02 36.34 25 36 C25 34.68 25 33.36 25 32 C24.01 32.495 24.01 32.495 23 33 C21.29297265 33.06996014 19.58331997 33.08440154 17.875 33.0625 C16.96492188 33.05347656 16.05484375 33.04445312 15.1171875 33.03515625 C14.41851562 33.02355469 13.71984375 33.01195312 13 33 C14.96318174 36.53372712 17.04070881 39.24479785 20 42 C19.34 42 18.68 42 18 42 C17.34 43.32 16.68 44.64 16 46 C15.195625 45.505 14.39125 45.01 13.5625 44.5 C11.35103815 42.91580347 11.35103815 42.91580347 10 43 C10 44.32 10 45.64 10 47 C10 49 10 51 10 53 C8.35 53 6.7 53 5 53 C4.67 49.04 4.34 45.08 4 41 C0.04 41.99 -3.92 42.98 -8 44 C-8.66 50.27 -9.32 56.54 -10 63 C-7.36 63 -4.72 63 -2 63 C-2 60.03 -2 57.06 -2 54 C-1.67 54 -1.34 54 -1 54 C-1 57.63 -1 61.26 -1 65 C-4.3 65 -7.6 65 -11 65 C-11 66.32 -11 67.64 -11 69 C-8.36 69 -5.72 69 -3 69 C-3 69.33 -3 69.66 -3 70 C-5.64 70 -8.28 70 -11 70 C-10.67 71.98 -10.34 73.96 -10 76 C-7.69 76.33 -5.38 76.66 -3 77 C-3 77.33 -3 77.66 -3 78 C-6.3 78 -9.6 78 -13 78 C-13.19390729 75.68802845 -13.37996367 73.3753971 -13.5625 71.0625 C-13.66691406 69.77472656 -13.77132813 68.48695312 -13.87890625 67.16015625 C-13.91886719 66.11730469 -13.95882813 65.07445313 -14 64 C-13.505 63.505 -13.505 63.505 -13 63 C-12.79607799 59.6919318 -12.6537346 56.39117412 -12.5703125 53.078125 C-12.37243381 48.59287478 -11.86055912 45.51967412 -9 42 C-7.203125 40.9609375 -7.203125 40.9609375 -5.25 40.375 C-4.198125 40.02888672 -4.198125 40.02888672 -3.125 39.67578125 C-2.42375 39.45277344 -1.7225 39.22976562 -1 39 C3.46334083 37.37124054 6.84154265 35.66381052 10 32 C9.36771484 31.32904297 9.36771484 31.32904297 8.72265625 30.64453125 C3.28119508 24.6397188 3.28119508 24.6397188 3 20 C2.21625 19.896875 1.4325 19.79375 0.625 19.6875 C-2 19 -2 19 -4 16 C-4.3359375 13.22265625 -4.3359375 13.22265625 -4.375 10.0625 C-4.40335938 9.02222656 -4.43171875 7.98195313 -4.4609375 6.91015625 C-3.90019633 3.36988362 -2.72384266 2.23398163 0 0 Z " fill="#1B1811" transform="translate(31,22)"/>
<path d="M0 0 C8.91 0 17.82 0 27 0 C27 14.89189189 27 14.89189189 23 19 C19.31184781 22.16127331 15.92071277 22.52774774 11.21484375 22.34765625 C6.51856362 21.61049764 3.89488299 19.19317732 1.125 15.5 C0 12 0 12 0 0 Z " fill="#E1BCA2" transform="translate(36,31)"/>
<path d="M0 0 C0.33 0.99 0.66 1.98 1 3 C-2.21311475 8.73770492 -2.21311475 8.73770492 -6 10 C-1.81926093 14.68749532 2.16862038 16.78637699 8.12109375 18.671875 C8.82363281 18.90390625 9.52617188 19.1359375 10.25 19.375 C10.89453125 19.56835938 11.5390625 19.76171875 12.203125 19.9609375 C14.92234243 21.53335453 15.71892062 23.13866701 17 26 C17.3386367 28.80901914 17.55421111 31.43866984 17.625 34.25 C17.36266486 39.00561135 17.36266486 39.00561135 19 43 C18.67 47.62 18.34 52.24 18 57 C8.1 57 -1.8 57 -12 57 C-12 56.67 -12 56.34 -12 56 C-6.39 56 -0.78 56 5 56 C5 53.69 5 51.38 5 49 C-0.61 49 -6.22 49 -12 49 C-12 48.67 -12 48.34 -12 48 C-6.39 48 -0.78 48 5 48 C5 47.34 5 46.68 5 46 C3.515 45.505 3.515 45.505 2 45 C3.485 44.505 3.485 44.505 5 44 C5 40.37 5 36.74 5 33 C5.66 33 6.32 33 7 33 C7 35.97 7 38.94 7 42 C9.64 42 12.28 42 15 42 C14.34 35.73 13.68 29.46 13 23 C9.04 22.01 5.08 21.02 1 20 C1 23.63 1 27.26 1 31 C0.67 31 0.34 31 0 31 C-0.1546875 29.824375 -0.1546875 29.824375 -0.3125 28.625 C-0.77595022 25.66954819 -0.77595022 25.66954819 -4 24 C-3.01 24 -2.02 24 -1 24 C-1.33 22.68 -1.66 21.36 -2 20 C-2.66 20.33 -3.32 20.66 -4 21 C-4.33 19.35 -4.66 17.7 -5 16 C-5.99 15.67 -6.98 15.34 -8 15 C-8.875 12.9375 -8.875 12.9375 -9 10 C-6.53665824 6.22232488 -3.18474822 3.16556299 0 0 Z " fill="#0B0A09" transform="translate(64,43)"/>
<path d="M0 0 C0.33 0 0.66 0 1 0 C1 3.63 1 7.26 1 11 C4.12606964 9.39519216 4.12606964 9.39519216 4.51171875 7.0546875 C4.56972656 6.33539063 4.62773438 5.61609375 4.6875 4.875 C4.790625 3.59625 4.89375 2.3175 5 1 C6.98 1 8.96 1 11 1 C11.20625 1.763125 11.4125 2.52625 11.625 3.3125 C13.42070704 6.82229103 15.43136312 7.52599781 19 9 C19 10.65 19 12.3 19 14 C10.585 14.495 10.585 14.495 2 15 C7.61 15.33 13.22 15.66 19 16 C19 18.31 19 20.62 19 23 C17.44226915 24.55773085 15.9357775 24.12971776 13.7734375 24.1328125 C12.90589844 24.13410156 12.03835937 24.13539062 11.14453125 24.13671875 C10.23058594 24.13285156 9.31664063 24.12898438 8.375 24.125 C7.48425781 24.12886719 6.59351562 24.13273437 5.67578125 24.13671875 C-7.88325037 24.11674963 -7.88325037 24.11674963 -10 22 C-10.07226502 20.14712498 -10.0838122 18.29166122 -10.0625 16.4375 C-10.05347656 15.42558594 -10.04445313 14.41367188 -10.03515625 13.37109375 C-10.02355469 12.58863281 -10.01195313 11.80617188 -10 11 C-6.7 11 -3.4 11 0 11 C0 7.37 0 3.74 0 0 Z " fill="#0F0B08" transform="translate(30,76)"/>
<path d="M0 0 C0 7.26 0 14.52 0 22 C-1.98 22.99 -1.98 22.99 -4 24 C-4 20.37 -4 16.74 -4 13 C-4.66 13 -5.32 13 -6 13 C-6 15.97 -6 18.94 -6 22 C-8.64 22 -11.28 22 -14 22 C-14.44728916 8.48192771 -14.44728916 8.48192771 -12 3 C-8.16976625 0.8197131 -4.37913624 0 0 0 Z " fill="#CED9E4" transform="translate(35,63)"/>
<path d="M0 0 C10 2 10 2 13 5 C13.43237305 6.90112305 13.43237305 6.90112305 13.51171875 9.01171875 C13.54716797 9.76904297 13.58261719 10.52636719 13.61914062 11.30664062 C13.64169922 12.09232422 13.66425781 12.87800781 13.6875 13.6875 C13.73874023 14.88342773 13.73874023 14.88342773 13.79101562 16.10351562 C13.87338104 18.06851904 13.93837067 20.03423696 14 22 C11.36 22 8.72 22 6 22 C6 19.03 6 16.06 6 13 C5.34 13 4.68 13 4 13 C4 16.63 4 20.26 4 24 C2.68 23.34 1.36 22.68 0 22 C0 14.74 0 7.48 0 0 Z " fill="#D0DBE6" transform="translate(65,63)"/>
<path d="M0 0 C1.64574566 -0.02688151 3.29161413 -0.04634123 4.9375 -0.0625 C5.85402344 -0.07410156 6.77054688 -0.08570313 7.71484375 -0.09765625 C10 0 10 0 11 1 C11.08631874 2.34267413 11.10706473 3.68974322 11.09765625 5.03515625 C11.09443359 5.84404297 11.09121094 6.65292969 11.08789062 7.48632812 C11.07951172 8.33646484 11.07113281 9.18660156 11.0625 10.0625 C11.05798828 10.91650391 11.05347656 11.77050781 11.04882812 12.65039062 C11.03700373 14.76695663 11.01906769 16.88348685 11 19 C7.04 19 3.08 19 -1 19 C-1.02690104 16.20826945 -1.04679053 13.41679652 -1.0625 10.625 C-1.07087891 9.8309375 -1.07925781 9.036875 -1.08789062 8.21875 C-1.11328125 2.2265625 -1.11328125 2.2265625 0 0 Z " fill="#9F8231" transform="translate(45,6)"/>
<path d="M0 0 C0.556875 0.309375 1.11375 0.61875 1.6875 0.9375 C4.12827986 2.05893939 6.36817818 2.51553529 9 3 C9.61442979 12.89914663 9.61442979 12.89914663 7.5 16.6875 C3.72351506 18.67015459 1.2519518 18.47243909 -3 18 C-4.71484375 16.81640625 -4.71484375 16.81640625 -6 15 C-6.67132913 11.28531214 -6.63527724 7.72009193 -6 4 C-3.5625 1.875 -3.5625 1.875 -1 1 C-0.67 0.67 -0.34 0.34 0 0 Z " fill="#D1DDE7" transform="translate(49,65)"/>
<path d="M0 0 C13.2 0 26.4 0 40 0 C39.67 1.32 39.34 2.64 39 4 C39.495 4.495 39.495 4.495 40 5 C40.25 7.9375 40.25 7.9375 40 11 C37 13 37 13 34 13 C34 10.03 34 7.06 34 4 C24.76 4 15.52 4 6 4 C6 6.31 6 8.62 6 11 C5.67 11 5.34 11 5 11 C5 8.03 5 5.06 5 2 C3.35 2 1.7 2 0 2 C0 1.34 0 0.68 0 0 Z " fill="#7E6F44" transform="translate(30,27)"/>
<path d="M0 0 C0 1.32 0 2.64 0 4 C1.32 4.33 2.64 4.66 4 5 C4.33 6.32 4.66 7.64 5 9 C5.66 8.67 6.32 8.34 7 8 C7 12.29 7 16.58 7 21 C5.68 21 4.36 21 3 21 C2.67 19.02 2.34 17.04 2 15 C1.2575 14.9175 0.515 14.835 -0.25 14.75 C-3.64143786 13.8250624 -4.71217182 12.64530133 -7 10 C-7.67289063 9.26136719 -7.67289063 9.26136719 -8.359375 8.5078125 C-12 4.39676966 -12 4.39676966 -12 1 C-10.37512529 0.83211627 -8.75009558 0.66573213 -7.125 0.5 C-6.22007813 0.4071875 -5.31515625 0.314375 -4.3828125 0.21875 C-2 0 -2 0 0 0 Z " fill="#4D331E" transform="translate(56,54)"/>
<path d="M0 0 C0 5.28 0 10.56 0 16 C-3.3 16 -6.6 16 -10 16 C-10.50731767 10.67316448 -9.26718004 8.17473006 -6 4 C-2.42105263 0 -2.42105263 0 0 0 Z " fill="#D29E0F" transform="translate(43,9)"/>
<path d="M0 0 C1.32 0 2.64 0 4 0 C4.20625 0.763125 4.4125 1.52625 4.625 2.3125 C6.42070704 5.82229103 8.43136312 6.52599781 12 8 C12 9.65 12 11.3 12 13 C6.06 13 0.12 13 -6 13 C-4.35 11.35 -2.7 9.7 -1 8 C-0.20857131 5.82235622 -0.20857131 5.82235622 -0.1875 3.6875 C-0.125625 2.470625 -0.06375 1.25375 0 0 Z " fill="#F88946" transform="translate(37,77)"/>
<path d="M0 0 C6.10813413 4.07208942 7.21131146 4.88633667 10 11 C10 12.65 10 14.3 10 16 C6.7 16 3.4 16 0 16 C0 10.72 0 5.44 0 0 Z " fill="#CF9C0E" transform="translate(57,9)"/>
<path d="M0 0 C-0.23771118 0.86286621 -0.23771118 0.86286621 -0.48022461 1.74316406 C-0.97913326 3.90939777 -1.19888324 5.89322683 -1.31640625 8.109375 C-1.35830078 8.86347656 -1.40019531 9.61757812 -1.44335938 10.39453125 C-1.50233398 11.56048828 -1.50233398 11.56048828 -1.5625 12.75 C-1.60568359 13.54277344 -1.64886719 14.33554687 -1.69335938 15.15234375 C-1.79902991 17.10137815 -1.89997966 19.05066748 -2 21 C1.96 21 5.92 21 10 21 C10 16.38 10 11.76 10 7 C10.33 7 10.66 7 11 7 C11 11.62 11 16.24 11 21 C13.97 21 16.94 21 20 21 C20 21.33 20 21.66 20 22 C12.08 22 4.16 22 -4 22 C-3.67 16.39 -3.34 10.78 -3 5 C-8.67541126 9.28332925 -10.9991426 12.17354533 -13 19 C-13.66 18.67 -14.32 18.34 -15 18 C-14.73876812 11.59981901 -12.65264186 8.34103306 -8 4 C-3 0 -3 0 0 0 Z " fill="#020200" transform="translate(46,4)"/>
<path d="M0 0 C0.99 0 1.98 0 3 0 C3.14695312 1.03060547 3.14695312 1.03060547 3.296875 2.08203125 C3.44640625 2.98308594 3.5959375 3.88414063 3.75 4.8125 C3.88921875 5.70582031 4.0284375 6.59914063 4.171875 7.51953125 C4.91522246 10.52893928 4.91522246 10.52893928 9 13 C3.06 13 -2.88 13 -9 13 C-9 11.35 -9 9.7 -9 8 C-7.88625 7.79375 -6.7725 7.5875 -5.625 7.375 C-1.73400805 6.38371699 -1.73400805 6.38371699 -0.5625 2.875 C-0.376875 1.92625 -0.19125 0.9775 0 0 Z " fill="#F88946" transform="translate(60,77)"/>
<path d="M0 0 C0.33 0 0.66 0 1 0 C1 5.28 1 10.56 1 16 C3.64 16 6.28 16 9 16 C9 13.03 9 10.06 9 7 C9.33 7 9.66 7 10 7 C10 10.63 10 14.26 10 18 C6.7 18 3.4 18 0 18 C0 19.32 0 20.64 0 22 C2.64 22 5.28 22 8 22 C8 22.33 8 22.66 8 23 C5.36 23 2.72 23 0 23 C0.33 24.98 0.66 26.96 1 29 C3.31 29.33 5.62 29.66 8 30 C8 30.33 8 30.66 8 31 C4.7 31 1.4 31 -2 31 C-2.19390729 28.68802845 -2.37996367 26.3753971 -2.5625 24.0625 C-2.71912109 22.13083984 -2.71912109 22.13083984 -2.87890625 20.16015625 C-2.91886719 19.11730469 -2.95882813 18.07445312 -3 17 C-2.67 16.67 -2.34 16.34 -2 16 C-1.78936893 13.49583065 -1.62427923 11.00859919 -1.5 8.5 C-1.13513514 1.13513514 -1.13513514 1.13513514 0 0 Z " fill="#030303" transform="translate(20,69)"/>
<path d="M0 0 C0.66 0 1.32 0 2 0 C2 2.97 2 5.94 2 9 C4.31 9 6.62 9 9 9 C9 9.33 9 9.66 9 10 C6.69 10 4.38 10 2 10 C2 11.65 2 13.3 2 15 C4.64 15 7.28 15 10 15 C10 15.33 10 15.66 10 16 C7.36 16 4.72 16 2 16 C2 18.31 2 20.62 2 23 C4.31 23 6.62 23 9 23 C9 23.33 9 23.66 9 24 C0.42 24 -8.16 24 -17 24 C-17 23.67 -17 23.34 -17 23 C-11.39 23 -5.78 23 0 23 C0 20.69 0 18.38 0 16 C-5.61 16 -11.22 16 -17 16 C-17 15.67 -17 15.34 -17 15 C-11.39 15 -5.78 15 0 15 C0 14.34 0 13.68 0 13 C-0.99 12.67 -1.98 12.34 -3 12 C-2.01 11.67 -1.02 11.34 0 11 C0 7.37 0 3.74 0 0 Z " fill="#030303" transform="translate(69,76)"/>
<path d="M0 0 C5.94 0 11.88 0 18 0 C18 1.98 18 3.96 18 6 C12.06 6 6.12 6 0 6 C0 4.02 0 2.04 0 0 Z " fill="#F5C84C" transform="translate(51,92)"/>
<path d="M0 0 C5.94 0 11.88 0 18 0 C18 1.98 18 3.96 18 6 C12.06 6 6.12 6 0 6 C0 4.02 0 2.04 0 0 Z " fill="#F5C84C" transform="translate(31,92)"/>
<path d="M0 0 C1.98 0 3.96 0 6 0 C5.01 0.495 5.01 0.495 4 1 C4.33 6.61 4.66 12.22 5 18 C3.35 18 1.7 18 0 18 C0 12.06 0 6.12 0 0 Z " fill="#F3C74B" transform="translate(45,6)"/>
<path d="M0 0 C-0.4793247 4.31392226 -1.7457985 6.16569547 -5 9 C-7.86207152 7.71700242 -10.0245088 6.469364 -12 4 C-12 3.01 -12 2.02 -12 1 C-10.37512529 0.83211627 -8.75009558 0.66573213 -7.125 0.5 C-6.22007813 0.4071875 -5.31515625 0.314375 -4.3828125 0.21875 C-2 0 -2 0 0 0 Z " fill="#E9C3A8" transform="translate(56,54)"/>
<path d="M0 0 C2.97 0 5.94 0 9 0 C9 1.98 9 3.96 9 6 C6.03 6 3.06 6 0 6 C0 4.02 0 2.04 0 0 Z " fill="#E5BFA5" transform="translate(71,92)"/>
<path d="M0 0 C2.97 0 5.94 0 9 0 C9 1.98 9 3.96 9 6 C6.03 6 3.06 6 0 6 C0 4.02 0 2.04 0 0 Z " fill="#E5BFA5" transform="translate(20,92)"/>
<path d="M0 0 C2 1.25 2 1.25 4 3 C4 6.33333333 4 9.66666667 4 13 C2.35 13 0.7 13 -1 13 C-1.22151549 11.20991533 -1.42682213 9.41781838 -1.625 7.625 C-1.74101563 6.62726563 -1.85703125 5.62953125 -1.9765625 4.6015625 C-1.98429687 3.74304688 -1.99203125 2.88453125 -2 2 C-1.34 1.34 -0.68 0.68 0 0 Z " fill="#774522" transform="translate(37,62)"/>
<path d="M0 0 C2.03833424 1.2739589 4.03852126 2.61061923 6 4 C6 4.66 6 5.32 6 6 C4.68 5.67 3.36 5.34 2 5 C2 9.29 2 13.58 2 18 C1.67 16.68 1.34 15.36 1 14 C-0.98 14 -2.96 14 -5 14 C-5 11.36 -5 8.72 -5 6 C-4.67 6 -4.34 6 -4 6 C-4 7.98 -4 9.96 -4 12 C-2.35 12 -0.7 12 1 12 C1 10.02 1 8.04 1 6 C-0.32 5.67 -1.64 5.34 -3 5 C-2.01 4.67 -1.02 4.34 0 4 C0 2.68 0 1.36 0 0 Z " fill="#070503" transform="translate(40,63)"/>
<path d="M0 0 C2.475 0.495 2.475 0.495 5 1 C5 2.98 5 4.96 5 7 C3.35 7.66 1.7 8.32 0 9 C0 6.03 0 3.06 0 0 Z " fill="#DEB9A1" transform="translate(65,31)"/>
<path d="M0 0 C0.33 0 0.66 0 1 0 C1.33559955 2.60389297 1.66856858 5.2080761 2 7.8125 C2.09539062 8.55048828 2.19078125 9.28847656 2.2890625 10.04882812 C2.66984677 13.05430395 3 15.96714441 3 19 C1.5 18 1.5 18 0 16 C-0.27345479 13.28153765 -0.13491285 10.74322801 0 8 C-0.99 7.67 -1.98 7.34 -3 7 C-2.34 6.67 -1.68 6.34 -1 6 C-0.34227572 2.97065509 -0.34227572 2.97065509 0 0 Z " fill="#24170B" transform="translate(63,69)"/>
<path d="M0 0 C2.16874252 0.50603992 3.99967627 0.99983813 6 2 C5.25 3.9375 5.25 3.9375 4 6 C1.875 6.75 1.875 6.75 0 7 C0 6.34 0 5.68 0 5 C-0.66 5 -1.32 5 -2 5 C-2 4.01 -2 3.02 -2 2 C-1.34 2 -0.68 2 0 2 C0 1.34 0 0.68 0 0 Z " fill="#6FD5F9" transform="translate(25,45)"/>
<path d="M0 0 C1.32 0 2.64 0 4 0 C4 2.97 4 5.94 4 9 C2.68 8.34 1.36 7.68 0 7 C-0.93580311 4.12060581 -1.37245106 2.74490212 0 0 Z " fill="#E5BFA6" transform="translate(30,31)"/>
<path d="M0 0 C0.99 0.99 1.98 1.98 3 3 C1.35 4.98 -0.3 6.96 -2 9 C-2.99 8.34 -3.98 7.68 -5 7 C-3.70700306 4.11562221 -2.34058637 2.12780579 0 0 Z " fill="#E1E8EF" transform="translate(58,58)"/>
<path d="M0 0 C1.98 1.65 3.96 3.3 6 5 C5.34 6.32 4.68 7.64 4 9 C1.5 6.6875 1.5 6.6875 -1 4 C-1 1 -1 1 0 0 Z " fill="#E1E8F0" transform="translate(41,58)"/>
<path d="M0 0 C1.625 1.375 1.625 1.375 3 3 C3 5 3 5 1.625 6.625 C0 8 0 8 -2 8 C-3.625 6.625 -3.625 6.625 -5 5 C-5 3 -5 3 -3.625 1.375 C-2 0 -2 0 0 0 Z " fill="#F5C74B" transform="translate(77,7)"/>
<path d="M0 0 C2.97 0 5.94 0 9 0 C9 0.99 9 1.98 9 3 C6.03 3 3.06 3 0 3 C0 2.01 0 1.02 0 0 Z " fill="#E7EEF6" transform="translate(71,87)"/>
<path d="M0 0 C2.97 0 5.94 0 9 0 C9 0.99 9 1.98 9 3 C6.03 3 3.06 3 0 3 C0 2.01 0 1.02 0 0 Z " fill="#E7EEF6" transform="translate(20,87)"/>
<path d="M0 0 C1.32 0 2.64 0 4 0 C4 1.98 4 3.96 4 6 C2.68 6 1.36 6 0 6 C0 4.02 0 2.04 0 0 Z " fill="#E9BE48" transform="translate(37,69)"/>
<path d="M0 0 C0.99 0 1.98 0 3 0 C3 1.98 3 3.96 3 6 C2.01 6 1.02 6 0 6 C0 4.02 0 2.04 0 0 Z " fill="#F5C84C" transform="translate(60,69)"/>
<path d="M0 0 C0.99 0.33 1.98 0.66 3 1 C1.35 2.98 -0.3 4.96 -2 7 C-2.66 6.01 -3.32 5.02 -4 4 C-2.68 2.68 -1.36 1.36 0 0 Z " fill="#22201F" transform="translate(55,58)"/>
<path d="M0 0 C1.32 0.99 2.64 1.98 4 3 C2.68 3.99 1.36 4.98 0 6 C-0.66 4.68 -1.32 3.36 -2 2 C-1.34 2 -0.68 2 0 2 C0 1.34 0 0.68 0 0 Z " fill="#FC687D" transform="translate(76,41)"/>
<path d="M0 0 C1.32 0 2.64 0 4 0 C4 0.99 4 1.98 4 3 C2.68 3 1.36 3 0 3 C0 2.01 0 1.02 0 0 Z " fill="#F5D154" transform="translate(19,58)"/>
<path d="M0 0 C0.99 0 1.98 0 3 0 C3 0.99 3 1.98 3 3 C2.01 3 1.02 3 0 3 C0 2.01 0 1.02 0 0 Z " fill="#86D046" transform="translate(68,0)"/>
</svg>
