<?xml version="1.0" encoding="UTF-8"?>
<svg version="1.1" xmlns="http://www.w3.org/2000/svg" width="100" height="100">
<path d="M0 0 C1.61784893 0.97856646 3.19631193 2.02149962 4.76953125 3.0703125 C5.42953125 2.4103125 6.08953125 1.7503125 6.76953125 1.0703125 C9.4579251 0.80039344 12.06095061 0.98293893 14.76953125 1.0703125 C16.53415808 4.15840945 16.76953125 5.30343386 16.76953125 9.0703125 C17.49140625 8.5546875 18.21328125 8.0390625 18.95703125 7.5078125 C21.76953125 6.0703125 21.76953125 6.0703125 24.33203125 6.1328125 C27.23635735 7.249861 28.74216431 8.7425949 30.76953125 11.0703125 C30.30546875 12.215 30.30546875 12.215 29.83203125 13.3828125 C29.09059532 15.25820927 28.40724908 17.15715902 27.76953125 19.0703125 C30.07953125 19.7303125 32.38953125 20.3903125 34.76953125 21.0703125 C34.76953125 24.0403125 34.76953125 27.0103125 34.76953125 30.0703125 C32.78953125 30.7303125 30.80953125 31.3903125 28.76953125 32.0703125 C29.20265625 33.2871875 29.63578125 34.5040625 30.08203125 35.7578125 C30.63671875 37.953125 30.63671875 37.953125 30.76953125 40.0703125 C28.70703125 43.1328125 28.70703125 43.1328125 25.76953125 45.0703125 C22.33289593 44.98649213 19.74813521 43.72509248 16.76953125 42.0703125 C16.43953125 44.3803125 16.10953125 46.6903125 15.76953125 49.0703125 C15.0940625 49.06128906 14.41859375 49.05226562 13.72265625 49.04296875 C7.80335035 49.22276984 7.80335035 49.22276984 3.20703125 52.6953125 C0.99088161 57.64060939 1.26803133 63.1984885 1.03125 68.5234375 C0.71013738 72.87523236 0.10128341 75.40613053 -2.23046875 79.0703125 C-6.19821069 82.0703125 -6.19821069 82.0703125 -9.23046875 82.0703125 C-9.37484375 82.7096875 -9.51921875 83.3490625 -9.66796875 84.0078125 C-10.23046875 86.0703125 -10.23046875 86.0703125 -11.23046875 87.0703125 C-14.16796875 87.2578125 -14.16796875 87.2578125 -17.23046875 87.0703125 C-17.89046875 86.4103125 -18.55046875 85.7503125 -19.23046875 85.0703125 C-19.23046875 84.0803125 -19.23046875 83.0903125 -19.23046875 82.0703125 C-20.62265625 81.6990625 -20.62265625 81.6990625 -22.04296875 81.3203125 C-25.4580779 79.98105401 -26.47488264 79.21188765 -28.23046875 76.0703125 C-29.30779114 72.91264343 -29.28974191 69.9015069 -29.31713867 66.58813477 C-29.48268162 57.60347558 -31.65445983 52.258935 -37.23046875 45.0703125 C-38.36847877 43.4125019 -39.49441519 41.74630855 -40.60546875 40.0703125 C-41.32863281 39.0184375 -41.32863281 39.0184375 -42.06640625 37.9453125 C-45.39219863 32.58833149 -44.72448615 26.13261172 -44.23046875 20.0703125 C-42.18351094 11.94413661 -36.6665752 5.73504811 -30.16796875 0.6953125 C-20.80969704 -4.48160376 -9.55188739 -4.93118469 0 0 Z M-34.7578125 10.0234375 C-38.73805056 15.55565167 -41.03012185 21.93356053 -40.6796875 28.78515625 C-39.28616079 35.87396601 -34.95731245 41.6840285 -30.5859375 47.2578125 C-27.80533459 50.97596739 -26.34908351 54.59585348 -25.23046875 59.0703125 C-22.26046875 59.0703125 -19.29046875 59.0703125 -16.23046875 59.0703125 C-16.23046875 57.0903125 -16.23046875 55.1103125 -16.23046875 53.0703125 C-14.91046875 53.0703125 -13.59046875 53.0703125 -12.23046875 53.0703125 C-12.23046875 55.0503125 -12.23046875 57.0303125 -12.23046875 59.0703125 C-9.26046875 59.0703125 -6.29046875 59.0703125 -3.23046875 59.0703125 C-2.988125 58.42964844 -2.74578125 57.78898437 -2.49609375 57.12890625 C-0.43762248 51.81646693 1.80722804 46.93695349 4.76953125 42.0703125 C4.16625 42.26109375 3.56296875 42.451875 2.94140625 42.6484375 C-3.51094032 44.43844332 -3.51094032 44.43844332 -6.91796875 42.6953125 C-8.42120228 39.68884544 -8.24907229 38.97327008 -7.48046875 35.8203125 C-7.06796875 34.5828125 -6.65546875 33.3453125 -6.23046875 32.0703125 C-8.54046875 31.4103125 -10.85046875 30.7503125 -13.23046875 30.0703125 C-12.90046875 27.1003125 -12.57046875 24.1303125 -12.23046875 21.0703125 C-10.25046875 20.4103125 -8.27046875 19.7503125 -6.23046875 19.0703125 C-6.84921875 17.2140625 -6.84921875 17.2140625 -7.48046875 15.3203125 C-8.43829265 11.44078118 -8.43829265 11.44078118 -6.79296875 8.5078125 C-3.28168087 6.53806564 -1.0656472 7.18527132 2.76953125 8.0703125 C-1.12544531 3.36388249 -5.67834402 1.55205491 -11.62109375 0.74609375 C-20.65976163 0.33395323 -28.64319354 3.25832716 -34.7578125 10.0234375 Z M8.76953125 6.0703125 C8.43953125 8.0503125 8.10953125 10.0303125 7.76953125 12.0703125 C0.34095982 12.21316964 0.34095982 12.21316964 -3.23046875 11.0703125 C-3.56046875 11.7303125 -3.89046875 12.3903125 -4.23046875 13.0703125 C-3.24046875 14.5553125 -3.24046875 14.5553125 -2.23046875 16.0703125 C-2.60546875 19.2578125 -2.60546875 19.2578125 -3.23046875 22.0703125 C-5.21046875 22.7303125 -7.19046875 23.3903125 -9.23046875 24.0703125 C-9.23046875 25.0603125 -9.23046875 26.0503125 -9.23046875 27.0703125 C-7.25046875 27.7303125 -5.27046875 28.3903125 -3.23046875 29.0703125 C-2.07209249 33.12462942 -2.39355618 35.28843369 -4.23046875 39.0703125 C-0.46422204 40.32572807 1.14142059 39.44093208 4.76953125 38.0703125 C7.26990859 40.24455367 8.20581711 41.80077048 8.76953125 45.0703125 C10.72847486 44.95724553 10.72847486 44.95724553 12.76953125 44.0703125 C13.09953125 43.2453125 13.42953125 42.4203125 13.76953125 41.5703125 C14.76953125 39.0703125 14.76953125 39.0703125 16.51953125 38.1328125 C19.57012874 38.04807368 21.94548663 38.97920435 24.76953125 40.0703125 C25.26453125 39.0803125 25.26453125 39.0803125 25.76953125 38.0703125 C25.10953125 37.0803125 24.44953125 36.0903125 23.76953125 35.0703125 C24.14453125 31.8828125 24.14453125 31.8828125 24.76953125 29.0703125 C26.74953125 28.4103125 28.72953125 27.7503125 30.76953125 27.0703125 C30.76953125 26.0803125 30.76953125 25.0903125 30.76953125 24.0703125 C28.78953125 23.4103125 26.80953125 22.7503125 24.76953125 22.0703125 C23.53876202 16.65492788 23.53876202 16.65492788 24.70703125 13.6953125 C25.23296875 12.8909375 25.23296875 12.8909375 25.76953125 12.0703125 C23.82349851 11.47961236 23.82349851 11.47961236 21.76953125 11.0703125 C21.43953125 11.4003125 21.10953125 11.7303125 20.76953125 12.0703125 C18.76994761 12.11112033 16.76907871 12.11285606 14.76953125 12.0703125 C14.10953125 10.0903125 13.44953125 8.1103125 12.76953125 6.0703125 C11.44953125 6.0703125 10.12953125 6.0703125 8.76953125 6.0703125 Z M-24.23046875 63.0703125 C-24.23046875 64.3903125 -24.23046875 65.7103125 -24.23046875 67.0703125 C-21.2707642 66.78929005 -18.31318075 66.4960207 -15.35546875 66.1953125 C-14.51371094 66.11667969 -13.67195313 66.03804688 -12.8046875 65.95703125 C-11.99902344 65.87324219 -11.19335938 65.78945312 -10.36328125 65.703125 C-9.24783936 65.59315186 -9.24783936 65.59315186 -8.10986328 65.48095703 C-5.99664371 65.19639968 -5.99664371 65.19639968 -4.23046875 63.0703125 C-10.83046875 63.0703125 -17.43046875 63.0703125 -24.23046875 63.0703125 Z M-24.23046875 71.0703125 C-23.88260167 73.04567995 -23.88260167 73.04567995 -23.23046875 75.0703125 C-22.57046875 75.4003125 -21.91046875 75.7303125 -21.23046875 76.0703125 C-20.90046875 75.0803125 -20.57046875 74.0903125 -20.23046875 73.0703125 C-14.95046875 72.4103125 -9.67046875 71.7503125 -4.23046875 71.0703125 C-4.23046875 70.4103125 -4.23046875 69.7503125 -4.23046875 69.0703125 C-11.09562737 68.80626794 -17.48893592 69.81189304 -24.23046875 71.0703125 Z M-16.54296875 75.5703125 C-17.86748047 75.70953125 -17.86748047 75.70953125 -19.21875 75.8515625 C-20.21455078 75.95984375 -20.21455078 75.95984375 -21.23046875 76.0703125 C-18.72033912 78.58044213 -17.76241638 78.36752859 -14.29296875 78.3828125 C-13.41769531 78.39957031 -12.54242188 78.41632813 -11.640625 78.43359375 C-8.82838363 78.00970648 -7.97592396 77.25357165 -6.23046875 75.0703125 C-9.70978149 75.02016024 -13.08365512 75.20131905 -16.54296875 75.5703125 Z " fill="#5B7AFA" transform="translate(64.23046875,8.9296875)"/>
<path d="M0 0 C4.10703441 0.85563217 5.55401113 2.24378009 8 5.625 C8.63127485 9.62307408 8.67917484 11.63235985 6.375 15 C3.43721938 17.01006043 1.5603504 17.55233979 -2 17.625 C-6.56521739 15.49456522 -6.56521739 15.49456522 -8 12.625 C-8.49512681 8.25137986 -8.49223866 6.30544756 -5.875 2.6875 C-3 0.625 -3 0.625 0 0 Z M-4 6.625 C-3.67 8.605 -3.34 10.585 -3 12.625 C-0.58354218 12.79187448 -0.58354218 12.79187448 2 12.625 C2.66 11.965 3.32 11.305 4 10.625 C3.67958603 8.02219432 3.67958603 8.02219432 3 5.625 C-0.48581856 4.4229936 -0.67992344 4.41161563 -4 6.625 Z " fill="#5A79FA" transform="translate(75,25.375)"/>
<path d="M0 0 C3.79588866 0.54226981 5.47211993 2.20127563 8 5 C9.32 4.34 10.64 3.68 12 3 C12.625 4.875 12.625 4.875 13 7 C12.34 7.66 11.68 8.32 11 9 C10.53837573 11.43252661 10.53837573 11.43252661 10.375 14.125 C10.30023438 15.03507812 10.22546875 15.94515625 10.1484375 16.8828125 C10.09945312 17.58148438 10.05046875 18.28015625 10 19 C8.68 19 7.36 19 6 19 C6 15.04 6 11.08 6 7 C4.68 6.67 3.36 6.34 2 6 C1.34 5.34 0.68 4.68 0 4 C0 2.68 0 1.36 0 0 Z " fill="#5B7BF9" transform="translate(42,40)"/>
<path d="M0 0 C0 1.32 0 2.64 0 4 C-1.32064453 4.19916016 -1.32064453 4.19916016 -2.66796875 4.40234375 C-3.82941406 4.57894531 -4.99085937 4.75554688 -6.1875 4.9375 C-7.91033203 5.19853516 -7.91033203 5.19853516 -9.66796875 5.46484375 C-12.46325212 5.91379313 -15.22933586 6.42082162 -18 7 C-18 5.68 -18 4.36 -18 3 C-12.27544841 -0.81636773 -6.70250505 -0.29282789 0 0 Z " fill="#5A79F9" transform="translate(55,14)"/>
<path d="M0 0 C4.29 0 8.58 0 13 0 C13 1.32 13 2.64 13 4 C9.04 4 5.08 4 1 4 C0.67 2.68 0.34 1.36 0 0 Z " fill="#5A78F9" transform="translate(1,34)"/>
<path d="M0 0 C6.75 0.875 6.75 0.875 9 2 C9 3.32 9 4.64 9 6 C5.28111761 5.49287967 2.26545761 4.88391785 -1 3 C-0.67 2.01 -0.34 1.02 0 0 Z " fill="#5774FA" transform="translate(8,18)"/>
<path d="M0 0 C0 1.32 0 2.64 0 4 C-3.78187881 5.83691257 -5.94568308 6.15837626 -10 5 C-9 2 -9 2 -6.6875 0.8125 C-4 0 -4 0 0 0 Z " fill="#5B79FA" transform="translate(17,48)"/>
</svg>
