<?xml version="1.0" encoding="UTF-8"?>
<svg version="1.1" xmlns="http://www.w3.org/2000/svg" width="80" height="80">
<path d="M0 0 C2.68863982 1.42712763 5.17672552 3.09528484 7.6875 4.8125 C9.17887037 5.80591532 10.67109304 6.79805203 12.1640625 7.7890625 C12.94426758 8.31016602 13.72447266 8.83126953 14.52832031 9.36816406 C18.83040415 12.20845727 23.19786268 14.94470864 27.5625 17.6875 C29.18880592 18.7122335 30.81510834 19.73697254 32.44140625 20.76171875 C33.62751618 21.50795237 34.81367771 22.25410403 36 23 C34.13383417 27.29926811 31.32434285 28.97153297 27.375 31.25 C26.76398438 31.61351562 26.15296875 31.97703125 25.5234375 32.3515625 C24.02106273 33.24359752 22.51123449 34.12305829 21 35 C21.15984375 35.5671875 21.3196875 36.134375 21.484375 36.71875 C22.3330082 40.47330903 22.41301588 44.17604259 22 48 C20.625 50.0625 20.625 50.0625 19 52 C18.51823213 53.9913072 18.03784071 55.98305983 17.58203125 57.98046875 C15.88673231 63.86281474 11.71574524 67.41603362 7 71 C6.0925 71.763125 5.185 72.52625 4.25 73.3125 C-0.31876204 75.68474183 -3.96193493 76.10230792 -9 75 C-16.17904396 71.36359022 -22.98592121 65.65112308 -26 58 C-26.495 56.2365625 -26.495 56.2365625 -27 54.4375 C-27.83688497 50.91945123 -27.83688497 50.91945123 -30 48 C-30.23046875 45.87890625 -30.23046875 45.87890625 -30.1875 43.5625 C-30.17783203 42.41974609 -30.17783203 42.41974609 -30.16796875 41.25390625 C-30.00451771 39.06062143 -29.60116513 37.11129193 -29 35 C-30.98 33.68 -32.96 32.36 -35 31 C-35.33 39.58 -35.66 48.16 -36 57 C-34.68 57.66 -33.36 58.32 -32 59 C-31.49389276 65.07328688 -32.95842058 68.77228537 -36 74 C-36.66 74 -37.32 74 -38 74 C-41.04157942 68.77228537 -42.50610724 65.07328688 -42 59 C-40.68 58.34 -39.36 57.68 -38 57 C-38.02277039 52.41556125 -38.10004335 47.8336252 -38.1875 43.25 C-38.19330078 41.94804688 -38.19910156 40.64609375 -38.20507812 39.3046875 C-38.23408203 38.05429687 -38.26308594 36.80390625 -38.29296875 35.515625 C-38.3086792 34.36352539 -38.32438965 33.21142578 -38.34057617 32.02441406 C-39.18871141 28.13448465 -40.81553516 27.22744752 -44 25 C-44 24.34 -44 23.68 -44 23 C-42.01904297 21.53881836 -42.01904297 21.53881836 -39.2421875 19.83984375 C-38.2301123 19.21464844 -37.21803711 18.58945312 -36.17529297 17.9453125 C-34.54164795 16.95144531 -34.54164795 16.95144531 -32.875 15.9375 C-30.66591275 14.58326031 -28.4575759 13.22779574 -26.25 11.87109375 C-25.17492187 11.21093262 -24.09984375 10.55077148 -22.9921875 9.87060547 C-20.45655164 8.28541928 -17.96803483 6.66018662 -15.5 4.97265625 C-14.8723877 4.54670166 -14.24477539 4.12074707 -13.59814453 3.68188477 C-11.99245504 2.58056105 -10.39808817 1.46277948 -8.8046875 0.34375 C-5.20064683 -1.38297701 -3.78607638 -1.23985688 0 0 Z " fill="#6B7D92" transform="translate(44,3)"/>
<path d="M0 0 C2.82918382 1.45691828 4.55535751 2.65250671 6.54296875 5.15234375 C8.144176 12.35777636 7.26179782 19.78943222 3.80078125 26.32421875 C0.21257906 31.53936977 -5.50526625 35.13736264 -11.45703125 37.15234375 C-18.32737646 37.5340296 -23.48918413 33.53166543 -28.45703125 29.15234375 C-32.40625078 24.08659095 -33.64685646 18.97677502 -33.83203125 12.65234375 C-33.88101563 11.50765625 -33.93 10.36296875 -33.98046875 9.18359375 C-33.45703125 6.15234375 -33.45703125 6.15234375 -31.44140625 4.34765625 C-27.80189872 2.88994774 -24.18304529 2.14462833 -20.33203125 1.52734375 C-3.72555072 -1.28528538 -3.72555072 -1.28528538 0 0 Z " fill="#F3CC83" transform="translate(53.45703125,38.84765625)"/>
<path d="M0 0 C3.94666612 1.57750224 7.43315781 3.73564632 11.0234375 5.99609375 C11.8076709 6.48247314 12.5919043 6.96885254 13.39990234 7.4699707 C20.92643991 12.16703424 28.31242162 17.07053575 35.6484375 22.05859375 C33.34560496 24.59990733 30.97529957 26.1296967 27.9609375 27.74609375 C27.15269531 28.18308594 26.34445313 28.62007812 25.51171875 29.0703125 C24.58939453 29.55951172 24.58939453 29.55951172 23.6484375 30.05859375 C23.6484375 28.07859375 23.6484375 26.09859375 23.6484375 24.05859375 C9.30711362 19.38590831 -5.97807542 17.68246389 -20.3515625 23.05859375 C-21.68047133 23.40915074 -23.01274652 23.74801257 -24.3515625 24.05859375 C-24.3515625 26.03859375 -24.3515625 28.01859375 -24.3515625 30.05859375 C-31.2265625 26.18359375 -31.2265625 26.18359375 -32.3515625 25.05859375 C-32.72900391 22.22900391 -32.72900391 22.22900391 -32.3515625 19.05859375 C-30.24365234 17.06396484 -30.24365234 17.06396484 -27.3125 15.33203125 C-25.72888672 14.37296875 -25.72888672 14.37296875 -24.11328125 13.39453125 C-22.99566406 12.74742188 -21.87804687 12.1003125 -20.7265625 11.43359375 C-18.5466682 10.12925181 -16.36697466 8.82457426 -14.1875 7.51953125 C-13.16108398 6.91979492 -12.13466797 6.32005859 -11.07714844 5.70214844 C-8.91341379 4.39739551 -6.91091181 3.04292956 -4.890625 1.53515625 C-2.3515625 0.05859375 -2.3515625 0.05859375 0 0 Z " fill="#AEBFD2" transform="translate(40.3515625,4.94140625)"/>
<path d="M0 0 C0 2.97 0 5.94 0 9 C-0.65226562 8.86722656 -1.30453125 8.73445313 -1.9765625 8.59765625 C-2.85054687 8.42105469 -3.72453125 8.24445312 -4.625 8.0625 C-5.48351563 7.88847656 -6.34203125 7.71445312 -7.2265625 7.53515625 C-20.06887109 5.05713333 -31.38392221 5.77887376 -44 9 C-44 6.03 -44 3.06 -44 0 C-29.7487985 -6.37179468 -14.32204139 -5.75967194 0 0 Z " fill="#ADBED1" transform="translate(62,30)"/>
<path d="M0 0 C-1 2 -1 2 -3.6484375 3.0625 C-8.05490772 4.29507908 -12.44722434 4.84625772 -16.9765625 5.4375 C-19.71241611 5.94649602 -21.61851966 6.60596273 -24 8 C-24.712101 19.66394282 -24.712101 19.66394282 -20 30 C-15.92847237 33.75288634 -11.72846818 36.34003942 -6.5625 38.3125 C0.10529682 37.72760554 5.82645403 34.12053266 10.5625 29.5 C14.5777336 22.51698504 15.16510092 14.88384953 14 7 C12.14540893 4.52002357 10.96625977 4.11234741 8 3 C12.00919734 1.39632106 15.04199726 2.68066575 19 4 C19.66 4.33 20.32 4.66 21 5 C21.50865052 13.816609 21.50865052 13.816609 18 18 C17.51823213 19.9913072 17.03784071 21.98305983 16.58203125 23.98046875 C14.88673231 29.86281474 10.71574524 33.41603362 6 37 C5.0925 37.763125 4.185 38.52625 3.25 39.3125 C-1.31876204 41.68474183 -4.96193493 42.10230792 -10 41 C-17.17904396 37.36359022 -23.98592121 31.65112308 -27 24 C-27.33 22.824375 -27.66 21.64875 -28 20.4375 C-28.83688497 16.91945123 -28.83688497 16.91945123 -31 14 C-31.1953125 11.73828125 -31.1953125 11.73828125 -31.125 9.3125 C-31.10695313 8.50425781 -31.08890625 7.69601563 -31.0703125 6.86328125 C-31.04710937 6.24839844 -31.02390625 5.63351563 -31 5 C-28.67156312 4.31205274 -26.3384021 3.65285338 -24 3 C-23.10410156 2.73574219 -22.20820313 2.47148438 -21.28515625 2.19921875 C-14.05092468 0.19340684 -7.49074207 -0.35859935 0 0 Z " fill="#9A7D47" transform="translate(45,37)"/>
<path d="M0 0 C2.68756917 1.42924048 5.17664264 3.09522815 7.6875 4.8125 C9.17887037 5.80591532 10.67109304 6.79805203 12.1640625 7.7890625 C12.94426758 8.31016602 13.72447266 8.83126953 14.52832031 9.36816406 C18.83040415 12.20845727 23.19786268 14.94470864 27.5625 17.6875 C29.18880592 18.7122335 30.81510834 19.73697254 32.44140625 20.76171875 C33.62751618 21.50795237 34.81367771 22.25410403 36 23 C34.28331335 26.79542564 32.6213202 28.19129064 29 30.3125 C27.6696875 31.11107422 27.6696875 31.11107422 26.3125 31.92578125 C25.549375 32.28027344 24.78625 32.63476562 24 33 C23.01 32.505 23.01 32.505 22 32 C24.85978513 29.06077639 27.68807787 26.41317403 31 24 C30.49774902 23.68361572 29.99549805 23.36723145 29.47802734 23.04125977 C27.96959835 22.09071225 26.46148964 21.13965636 24.95361328 20.18823242 C23.22654616 19.09937236 21.4983439 18.01231083 19.76904297 16.92700195 C15.74018386 14.39240575 11.73175011 11.84276028 7.796875 9.1640625 C7.17119629 8.74310303 6.54551758 8.32214355 5.90087891 7.88842773 C4.22107768 6.75247197 2.55160377 5.60128791 0.8828125 4.44921875 C-2.53884693 2.72911624 -3.41250818 2.95335619 -7 4 C-9.45125341 5.22711436 -9.45125341 5.22711436 -11.87109375 6.80078125 C-12.77537109 7.36603516 -13.67964844 7.93128906 -14.61132812 8.51367188 C-15.54396484 9.10728516 -16.47660156 9.70089844 -17.4375 10.3125 C-18.36626953 10.89451172 -19.29503906 11.47652344 -20.25195312 12.07617188 C-24.88011374 14.98483082 -29.47166742 17.93827263 -34 21 C-35.32 20.34 -36.64 19.68 -38 19 C-37.52804199 18.71390869 -37.05608398 18.42781738 -36.56982422 18.13305664 C-35.1491856 17.27093175 -33.72915758 16.40780029 -32.30957031 15.54394531 C-30.67718594 14.5506332 -29.04370822 13.55911579 -27.40917969 12.56933594 C-23.51567306 10.19970666 -19.66051779 7.80467079 -15.8984375 5.23046875 C-15.27855957 4.81079834 -14.65868164 4.39112793 -14.02001953 3.95874023 C-12.34300803 2.81351487 -10.67889521 1.64946766 -9.015625 0.484375 C-5.27344516 -1.35763062 -3.93424309 -1.31804604 0 0 Z " fill="#677992" transform="translate(44,3)"/>
<path d="M0 0 C0 12.21 0 24.42 0 37 C1.32 37.66 2.64 38.32 4 39 C4.50610724 45.07328688 3.04157942 48.77228537 0 54 C-0.66 54 -1.32 54 -2 54 C-5.04157942 48.77228537 -6.50610724 45.07328688 -6 39 C-4.68 38.34 -3.36 37.68 -2 37 C-2.02277039 32.41556125 -2.10004335 27.8336252 -2.1875 23.25 C-2.19330078 21.94804688 -2.19910156 20.64609375 -2.20507812 19.3046875 C-2.23408203 18.05429687 -2.26308594 16.80390625 -2.29296875 15.515625 C-2.3086792 14.36352539 -2.32438965 13.21142578 -2.34057617 12.02441406 C-3.18871141 8.13448465 -4.81553516 7.22744752 -8 5 C-8 4.34 -8 3.68 -8 3 C-5.09451118 0.95830515 -3.59857954 0 0 0 Z " fill="#A26B4B" transform="translate(8,23)"/>
<path d="M0 0 C-1 2 -1 2 -3.6484375 3.0625 C-8.05490772 4.29507908 -12.44722434 4.84625772 -16.9765625 5.4375 C-19.7583069 5.95503384 -21.69524709 6.37247307 -24 8 C-24.81870185 11.56206661 -24.81870185 11.56206661 -25 15 C-25.66 15 -26.32 15 -27 15 C-27.33 11.7 -27.66 8.4 -28 5 C-18.63985165 0.61865396 -10.31432993 -0.31414203 0 0 Z " fill="#8B6348" transform="translate(45,37)"/>
<path d="M0 0 C1.0209375 0.2165625 1.0209375 0.2165625 2.0625 0.4375 C4.27934808 0.86200282 6.51267367 1.20168982 8.75 1.5 C12 2 12 2 13 3 C13.42225598 7.00331151 13.81786683 10.75542005 11.5625 14.1875 C11.046875 14.785625 10.53125 15.38375 10 16 C9.27954633 19.15118325 9.27954633 19.15118325 9 22 C8.01 22 7.02 22 6 22 C6.06960937 20.81921875 6.13921875 19.6384375 6.2109375 18.421875 C6.26722309 16.86464027 6.3218224 15.30734396 6.375 13.75 C6.42527344 12.97269531 6.47554687 12.19539063 6.52734375 11.39453125 C6.58579585 9.11489921 6.57012117 7.21076572 6 5 C3.12763931 2.45813043 3.12763931 2.45813043 0 1 C0 0.67 0 0.34 0 0 Z " fill="#9F814A" transform="translate(53,39)"/>
<path d="M0 0 C1.23105469 -0.01417969 2.46210937 -0.02835938 3.73046875 -0.04296875 C6.8125 0.1875 6.8125 0.1875 8.8125 2.1875 C-3.5625 2.6825 -3.5625 2.6825 -16.1875 3.1875 C-10.62023765 0.40386883 -6.19622194 0.03264606 0 0 Z " fill="#75879C" transform="translate(39.1875,34.8125)"/>
<path d="M0 0 C1.65 0.33 3.3 0.66 5 1 C4.125 6.75 4.125 6.75 3 9 C2.34 9 1.68 9 1 9 C-0.61949011 6.42786866 -1.04408751 5.32330841 -0.625 2.25 C-0.41875 1.5075 -0.2125 0.765 0 0 Z " fill="#F5BB94" transform="translate(5,62)"/>
<path d="M0 0 C3.55780196 0.60990891 6.6828589 1.5783681 10 3 C9.67 6.3 9.34 9.6 9 13 C8.34 13 7.68 13 7 13 C6.95875 11.7625 6.9175 10.525 6.875 9.25 C6.43356772 5.41293477 6.20167244 5.1605148 2.9375 2.5625 C1.968125 2.046875 0.99875 1.53125 0 1 C0 0.67 0 0.34 0 0 Z " fill="#7F573C" transform="translate(53,39)"/>
<path d="M0 0 C1.65 0.33 3.3 0.66 5 1 C4.67 2.65 4.34 4.3 4 6 C2.35 5.67 0.7 5.34 -1 5 C-0.67 3.35 -0.34 1.7 0 0 Z " fill="#515454" transform="translate(49,48)"/>
<path d="M0 0 C1.65 0.33 3.3 0.66 5 1 C4.67 2.65 4.34 4.3 4 6 C2.35 5.67 0.7 5.34 -1 5 C-0.67 3.35 -0.34 1.7 0 0 Z " fill="#515454" transform="translate(27,48)"/>
<path d="M0 0 C0 2.97 0 5.94 0 9 C-2.03833424 7.7260411 -4.03852126 6.38938077 -6 5 C-6 4.34 -6 3.68 -6 3 C-1.5 0 -1.5 0 0 0 Z " fill="#6D8095" transform="translate(6,23)"/>
<path d="M0 0 C1.32 0 2.64 0 4 0 C4 3.41099168 3.50854594 6.63088314 3 10 C2.34 10 1.68 10 1 10 C0.67 6.7 0.34 3.4 0 0 Z " fill="#7A4F34" transform="translate(17,42)"/>
<path d="M0 0 C0 0.66 0 1.32 0 2 C-3.3 1.67 -6.6 1.34 -10 1 C-6.1496895 -1.56687367 -4.41430237 -0.83288724 0 0 Z " fill="#727F8D" transform="translate(55,37)"/>
</svg>
