<?xml version="1.0" encoding="UTF-8"?>
<svg version="1.1" xmlns="http://www.w3.org/2000/svg" width="100" height="100">
<path d="M0 0 C1.19150665 0.01617371 2.38301331 0.03234741 3.61062622 0.04901123 C4.2677359 0.05526016 4.92484558 0.06150909 5.60186768 0.06794739 C7.77969021 0.09147452 9.95696041 0.12986323 12.134552 0.16912842 C13.64667948 0.1902229 15.15881565 0.21070213 16.67095947 0.23059082 C19.84369702 0.27465196 23.01621124 0.32602181 26.18875122 0.38250732 C30.25294322 0.45430961 34.31713829 0.50837087 38.38166618 0.55696487 C41.50618791 0.59623589 44.63051217 0.64480671 47.75485611 0.69618988 C49.25311235 0.71973896 50.75141628 0.74043344 52.24975204 0.75821686 C54.34689038 0.784535 56.44344033 0.82333425 58.54031372 0.86541748 C60.32996048 0.8944516 60.32996048 0.8944516 62.15576172 0.92407227 C65.14793729 1.21055302 66.81746364 1.41254196 69.2048645 3.21600342 C71.34291972 7.05056817 71.45768498 10.47674793 71.46365356 14.81048584 C71.46995789 16.12502243 71.47626221 17.43955902 71.48275757 18.79393005 C71.47917869 20.2197788 71.47507696 21.64562631 71.4704895 23.07147217 C71.47183738 24.53927169 71.47377894 26.00707078 71.47628784 27.47486877 C71.47923055 30.54381582 71.47496714 33.61264614 71.46560669 36.68157959 C71.45418232 40.619416 71.46079569 44.55698067 71.47275162 48.49480724 C71.47996757 51.52220216 71.47768406 54.54953226 71.47249603 57.57692909 C71.47116036 59.02943262 71.47280438 60.48194201 71.47745514 61.93443871 C71.48251904 63.95952623 71.47343587 65.98463436 71.46365356 68.00970459 C71.46206238 69.16266525 71.46047119 70.31562592 71.45883179 71.50352478 C71.2048645 74.21600342 71.2048645 74.21600342 69.2048645 76.21600342 C66.37849426 76.49015808 66.37849426 76.49015808 62.72317505 76.5223999 C62.05791809 76.53072342 61.39266113 76.53904694 60.70724487 76.54762268 C58.50196522 76.57177092 56.29698122 76.58050138 54.09158325 76.58709717 C52.55942189 76.59606143 51.02726145 76.60518323 49.49510193 76.61445618 C46.27960074 76.63096291 43.06420387 76.63864905 39.84866333 76.64154053 C35.73247034 76.64691945 31.61726108 76.68457036 27.50134563 76.73028469 C24.33483832 76.76006434 21.16856731 76.7672643 18.00193214 76.76826668 C16.48487668 76.77246897 14.96782052 76.78490388 13.45090294 76.80578423 C11.32478562 76.83271447 9.20093967 76.82787103 7.07473755 76.81536865 C5.86609543 76.8204393 4.65745331 76.82550995 3.41218567 76.83073425 C-0.77240631 76.02869492 -2.24573719 74.58009505 -4.7951355 71.21600342 C-5.39640808 68.75450134 -5.39640808 68.75450134 -5.36276245 66.15032959 C-5.3623848 65.1696904 -5.36200714 64.18905121 -5.36161804 63.17869568 C-5.33581161 62.13268692 -5.31000519 61.08667816 -5.28341675 60.00897217 C-5.27634201 58.9284407 -5.26926727 57.84790924 -5.26197815 56.7346344 C-5.23403396 53.29021397 -5.17129183 49.84743087 -5.1076355 46.40350342 C-5.08255282 44.0656363 -5.05973961 41.72774365 -5.03927612 39.38983154 C-4.98420726 33.6646654 -4.90057969 27.94045139 -4.7951355 22.21600342 C-3.8051355 21.88600342 -2.8151355 21.55600342 -1.7951355 21.21600342 C-1.7951355 20.22600342 -1.7951355 19.23600342 -1.7951355 18.21600342 C-2.7851355 17.88600342 -3.7751355 17.55600342 -4.7951355 17.21600342 C-4.84897398 14.75737941 -4.88872588 12.29992792 -4.9201355 9.84100342 C-4.93689331 9.14233154 -4.95365112 8.44365967 -4.97091675 7.72381592 C-4.98857816 5.88702856 -4.8981681 4.04998379 -4.7951355 2.21600342 C-2.7951355 0.21600342 -2.7951355 0.21600342 0 0 Z " fill="#CBE5FE" transform="translate(16.795135498046875,11.78399658203125)"/>
<path d="M0 0 C4.70588235 0.70588235 4.70588235 0.70588235 6 2 C6.09295815 3.44289787 6.11746513 4.89029785 6.11352539 6.33618164 C6.11340454 7.26998657 6.11328369 8.2037915 6.11315918 9.16589355 C6.10548523 10.64805359 6.10548523 10.64805359 6.09765625 12.16015625 C6.09664917 13.06342651 6.09564209 13.96669678 6.09460449 14.89733887 C6.08935512 18.28573874 6.07539398 21.67412059 6.0625 25.0625 C6.041875 32.631875 6.02125 40.20125 6 48 C28.44 48 50.88 48 74 48 C74.495 50.475 74.495 50.475 75 53 C72.20120914 55.79879086 70.44027955 55.27180267 66.51831055 55.30639648 C65.85305359 55.31472 65.18779663 55.32304352 64.50238037 55.33161926 C62.29710072 55.3557675 60.09211671 55.36449796 57.88671875 55.37109375 C56.35455739 55.38005801 54.82239695 55.38917982 53.29023743 55.39845276 C50.07473624 55.41495949 46.85933937 55.42264563 43.64379883 55.42553711 C39.52760584 55.43091603 35.41239658 55.46856694 31.29648113 55.51428127 C28.12997382 55.54406092 24.96370281 55.55126088 21.79706764 55.55226326 C20.28001218 55.55646555 18.76295602 55.56890046 17.24603844 55.58978081 C15.11992112 55.61671105 12.99607517 55.61186761 10.86987305 55.59936523 C9.66123093 55.60443588 8.45258881 55.60950653 7.20732117 55.61473083 C3.02315688 54.81277348 1.55037191 53.36259179 -1 50 C-1.60800171 47.54522705 -1.60800171 47.54522705 -1.58349609 44.95019531 C-1.58634613 43.97278381 -1.58919617 42.99537231 -1.59213257 41.98834229 C-1.5694632 40.94547058 -1.54679382 39.90259888 -1.5234375 38.828125 C-1.51873444 37.74996521 -1.51403137 36.67180542 -1.50918579 35.56097412 C-1.48785891 32.1233294 -1.43122203 28.68723231 -1.375 25.25 C-1.35849312 22.92058737 -1.34414499 20.59115837 -1.33203125 18.26171875 C-1.29805573 14.01835747 -1.26351117 9.77514854 -1.19287109 5.53222656 C-1.18001068 4.67904846 -1.16715027 3.82587036 -1.15390015 2.94683838 C-1 1 -1 1 0 0 Z " fill="#349EFD" transform="translate(13,33)"/>
<path d="M0 0 C2.42945561 3.64418341 2.0828781 4.92923364 1.625 9.1875 C1.51414063 10.27417969 1.40328125 11.36085938 1.2890625 12.48046875 C1.14597656 13.72763672 1.14597656 13.72763672 1 15 C0.34 14.01 -0.32 13.02 -1 12 C-2.04306085 13.47818387 -3.08435154 14.95761681 -4.125 16.4375 C-5.08599609 17.79294922 -5.08599609 17.79294922 -6.06640625 19.17578125 C-7.29517251 20.9705247 -8.47641204 22.79948262 -9.58984375 24.66796875 C-13.23149834 30.74383278 -13.23149834 30.74383278 -17 32 C-21.35312021 30.54895993 -23.37610492 27.64740025 -26 24 C-26.95712891 25.49853516 -26.95712891 25.49853516 -27.93359375 27.02734375 C-28.76816273 28.33077171 -29.60280177 29.63415481 -30.4375 30.9375 C-30.85837891 31.59685547 -31.27925781 32.25621094 -31.71289062 32.93554688 C-34.88671875 37.88671875 -34.88671875 37.88671875 -36 39 C-38.75 39.375 -38.75 39.375 -42 39 C-44.875 36.625 -44.875 36.625 -47 34 C-47 33.34 -47 32.68 -47 32 C-50.59478807 35.32850747 -53.22364768 38.98971331 -56 43 C-57.65 42.67 -59.3 42.34 -61 42 C-60.42945242 37.53484506 -58.74337589 34.50975472 -56.3125 30.75 C-55.64863281 29.69296875 -54.98476563 28.6359375 -54.30078125 27.546875 C-52 25 -52 25 -48.94140625 23.92578125 C-46 24 -46 24 -44.1015625 25.43359375 C-43.37066406 26.42552734 -43.37066406 26.42552734 -42.625 27.4375 C-41.87089844 28.42556641 -41.87089844 28.42556641 -41.1015625 29.43359375 C-40.73804687 29.95050781 -40.37453125 30.46742187 -40 31 C-36.77352458 27.15304854 -34.01313638 23.0859098 -31.26953125 18.890625 C-29.38807531 16.08870293 -29.38807531 16.08870293 -26.8125 15.5 C-22.40972562 16.28271545 -20.57268638 19.5343881 -18 23 C-17.14413484 21.73030993 -16.29045917 20.45914409 -15.4375 19.1875 C-14.8909375 18.37667969 -14.344375 17.56585938 -13.78125 16.73046875 C-12.55053057 14.84390542 -11.36542915 12.92707429 -10.21875 10.98828125 C-9.33703125 9.50908203 -9.33703125 9.50908203 -8.4375 8 C-7.89996094 7.071875 -7.36242187 6.14375 -6.80859375 5.1875 C-5 3 -5 3 -2.28515625 2.1875 C-1.53105469 2.125625 -0.77695313 2.06375 0 2 C0 1.34 0 0.68 0 0 Z " fill="#359EFE" transform="translate(86,17)"/>
<path d="M0 0 C2.625 0.375 2.625 0.375 5 1 C5.05383848 3.45862401 5.09359038 5.9160755 5.125 8.375 C5.14175781 9.07367188 5.15851562 9.77234375 5.17578125 10.4921875 C5.19344267 12.32897486 5.10303261 14.16601963 5 16 C4.34 16.66 3.68 17.32 3 18 C0.375 17.625 0.375 17.625 -2 17 C-2.05383848 14.54137599 -2.09359038 12.0839245 -2.125 9.625 C-2.14175781 8.92632812 -2.15851562 8.22765625 -2.17578125 7.5078125 C-2.19344267 5.67102514 -2.10303261 3.83398037 -2 2 C-1.34 1.34 -0.68 0.68 0 0 Z " fill="#349DFD" transform="translate(14,12)"/>
</svg>
