<?xml version="1.0" encoding="UTF-8"?>
<svg version="1.1" xmlns="http://www.w3.org/2000/svg" width="100" height="100">
<path d="M0 0 C1.93083088 1.44046113 3.80985853 2.91354148 5.65234375 4.46484375 C8.41969188 3.13651665 10.96528683 1.65230292 13.52734375 -0.03515625 C19.77119038 -3.93324835 25.32832614 -5.34203955 32.65234375 -4.53515625 C38.6257175 -3.06857524 43.58513061 -0.64739703 47.06640625 4.59375 C50.41935414 10.57848101 51.83608503 15.66017285 50.65234375 22.46484375 C47.79319799 29.49005093 43.02970231 34.69042865 37.71875 39.96484375 C36.58541481 41.10747681 36.58541481 41.10747681 35.42918396 42.27319336 C33.84149187 43.86794413 32.2487195 45.45765185 30.65112305 47.04248047 C28.20935908 49.47029709 25.79267418 51.92129977 23.37695312 54.375 C21.82567035 55.92723331 20.27298379 57.47806525 18.71875 59.02734375 C17.99982071 59.75953125 17.28089142 60.49171875 16.54017639 61.24609375 C13.52415855 64.20685919 11.404331 66.20789058 7.36425781 67.58837891 C4.23333589 67.44575679 3.40034684 67.09498008 1.1953125 64.92578125 C0.51774902 64.27577148 -0.15981445 63.62576172 -0.85791016 62.95605469 C-2.09033447 61.72290527 -2.09033447 61.72290527 -3.34765625 60.46484375 C-4.43761594 59.41135079 -5.52939285 58.3597361 -6.62255859 57.30957031 C-9.79777593 54.24704156 -12.93772001 51.15076452 -16.06665039 48.04101562 C-17.37991432 46.73931585 -18.69764435 45.44210658 -20.01977539 44.14941406 C-37.21846604 27.33215887 -37.21846604 27.33215887 -37.91015625 17.46484375 C-37.53998882 11.35233541 -35.92486447 6.02560171 -31.51171875 1.640625 C-21.84433008 -6.00809438 -10.39642208 -6.79832592 0 0 Z " fill="#E12A58" transform="translate(43.34765625,18.53515625)"/>
</svg>
