<?xml version="1.0" encoding="UTF-8"?>
<svg version="1.1" xmlns="http://www.w3.org/2000/svg" width="100" height="100">
<path d="M0 0 C4.36184336 2.54217865 6.76096113 5.50903754 8.8125 10.125 C10.64251103 17.90254688 9.57347685 23.48612594 5.5625 30.3125 C4.675625 31.240625 3.78875 32.16875 2.875 33.125 C-0.12051643 37.25395508 -0.07689517 40.4077658 -0.19921875 45.41015625 C-0.450273 48.46807938 -0.99577769 50.60746248 -2.4375 53.3125 C-3.9225 53.8075 -3.9225 53.8075 -5.4375 54.3125 C-6.0975 55.3025 -6.7575 56.2925 -7.4375 57.3125 C-10.0625 57.5 -10.0625 57.5 -12.4375 57.3125 C-12.7675 55.9925 -13.0975 54.6725 -13.4375 53.3125 C-14.05625 53.23 -14.675 53.1475 -15.3125 53.0625 C-17.4375 52.3125 -17.4375 52.3125 -18.53515625 50.640625 C-19.63252959 47.80930677 -19.82209261 45.34071091 -20 42.3125 C-20.25303888 37.22935372 -20.25303888 37.22935372 -21.4375 32.3125 C-22.05625 32.003125 -22.675 31.69375 -23.3125 31.375 C-26.65749134 29.70250433 -27.83335061 26.90525748 -29.125 23.5 C-30.06996086 16.88527399 -29.68402139 12.24579772 -26.4375 6.3125 C-19.56929625 -1.85509365 -9.90814094 -4.55589284 0 0 Z " fill="#B2E4FB" transform="translate(41.4375,5.6875)"/>
<path d="M0 0 C5.26882094 3.22955968 8.73644896 6.90879674 10.3515625 12.94140625 C11.38963658 19.8036223 10.27689261 25.21696651 6.3515625 30.94140625 C5.4646875 31.82828125 4.5778125 32.71515625 3.6640625 33.62890625 C0.25276268 37.38341611 0.69691488 42.08286185 0.58984375 46.91796875 C0.35699686 49.87245218 0.04336002 51.53101915 -1.6484375 53.94140625 C-3.1334375 54.43640625 -3.1334375 54.43640625 -4.6484375 54.94140625 C-5.3084375 55.93140625 -5.9684375 56.92140625 -6.6484375 57.94140625 C-8.6284375 57.61140625 -10.6084375 57.28140625 -12.6484375 56.94140625 C-12.6484375 55.95140625 -12.6484375 54.96140625 -12.6484375 53.94140625 C-13.2878125 53.79703125 -13.9271875 53.65265625 -14.5859375 53.50390625 C-16.6484375 52.94140625 -16.6484375 52.94140625 -17.6484375 51.94140625 C-17.80759041 49.88126024 -17.92548679 47.81786771 -18.0234375 45.75390625 C-18.51252941 38.96590335 -19.75927032 35.15311417 -24.2109375 29.94140625 C-27.96225588 25.32439901 -28.87398487 21.79554732 -28.5234375 15.94140625 C-27.72839553 9.84608451 -25.15495352 6.12963669 -20.5859375 2.12890625 C-14.74512135 -2.22063769 -6.75492453 -2.69997721 0 0 Z " fill="#FBC02D" transform="translate(81.6484375,30.05859375)"/>
<path d="M0 0 C0.66 0.2475 1.32 0.495 2 0.75 C3.92638012 1.50243555 3.92638012 1.50243555 6 1.75 C6.78375 1.358125 7.5675 0.96625 8.375 0.5625 C9.24125 0.294375 10.1075 0.02625 11 -0.25 C14.3125 1.625 14.3125 1.625 17 3.75 C15.98985952 6.69624305 15.10752019 8.63420902 12.96875 10.9375 C10.51174387 14.44750876 10.33725157 17.41805042 10.25 21.5625 C10.20552734 22.60180664 10.20552734 22.60180664 10.16015625 23.66210938 C10.09000372 25.35746213 10.04267338 27.05373312 10 28.75 C11.32 28.75 12.64 28.75 14 28.75 C14.05437607 30.33294782 14.09296271 31.91644256 14.125 33.5 C14.14820312 34.38171875 14.17140625 35.2634375 14.1953125 36.171875 C13.98720489 38.91889547 13.54477419 40.47887503 12 42.75 C10.515 43.245 10.515 43.245 9 43.75 C8.34 44.74 7.68 45.73 7 46.75 C5.02 46.42 3.04 46.09 1 45.75 C1 44.76 1 43.77 1 42.75 C0.360625 42.605625 -0.27875 42.46125 -0.9375 42.3125 C-3 41.75 -3 41.75 -4 40.75 C-4.07244053 38.73035801 -4.08377188 36.70832876 -4.0625 34.6875 C-4.05347656 33.58277344 -4.04445312 32.47804687 -4.03515625 31.33984375 C-4.02355469 30.48519531 -4.01195312 29.63054687 -4 28.75 C-3.01 28.75 -2.02 28.75 -1 28.75 C-1.03324892 26.20494659 -1.10064363 23.66833268 -1.1875 21.125 C-1.19620117 20.05572266 -1.19620117 20.05572266 -1.20507812 18.96484375 C-1.44155885 13.23675505 -3.10635717 10.89784563 -7 6.75 C-7.0625 4.5625 -7.0625 4.5625 -6 2.75 C-2.88888889 -0.36111111 -2.88888889 -0.36111111 0 0 Z " fill="#FEEF91" transform="translate(68,41.25)"/>
<path d="M0 0 C2.64 0 5.28 0 8 0 C8.08636719 0.75023437 8.17273437 1.50046875 8.26171875 2.2734375 C9.62657256 12.21558357 12.46981725 20.50859692 19.96875 27.46484375 C24.73105439 31.06404688 30.15722796 33.73742397 36 35 C36.33 33.35 36.66 31.7 37 30 C40.18706942 31.43561686 42.62169105 33.20266329 45.25 35.5 C46.30960938 36.41265625 46.30960938 36.41265625 47.390625 37.34375 C49 39 49 39 49 41 C47.24248022 42.60406253 45.41824776 44.13567377 43.5625 45.625 C42.04849609 46.85089844 42.04849609 46.85089844 40.50390625 48.1015625 C38 50 38 50 37 50 C37 47.69 37 45.38 37 43 C36.3709375 42.90203125 35.741875 42.8040625 35.09375 42.703125 C23.18043405 40.62188306 14.67069303 35.26371791 7.13671875 25.61328125 C2.07801401 17.81810595 -0.24689833 9.27240386 0 0 Z " fill="#2096F3" transform="translate(1,43)"/>
<path d="M0 0 C0.66 0 1.32 0 2 0 C3.125 2.8125 3.125 2.8125 4 6 C3.01 7.485 3.01 7.485 2 9 C2.65484375 9.53109375 3.3096875 10.0621875 3.984375 10.609375 C6.575779 13.68290067 6.42204801 15.29289587 6.25 19.25 C6.21390625 20.32765625 6.1778125 21.4053125 6.140625 22.515625 C6.07101563 23.74539062 6.07101563 23.74539062 6 25 C7.7015625 24.9690625 7.7015625 24.9690625 9.4375 24.9375 C13 25 13 25 14 26 C14.43825666 34.76513317 14.43825666 34.76513317 12 39 C10.515 39.495 10.515 39.495 9 40 C8.34 40.99 7.68 41.98 7 43 C4.375 43.1875 4.375 43.1875 2 43 C1.67 41.68 1.34 40.36 1 39 C0.38125 38.9175 -0.2375 38.835 -0.875 38.75 C-3 38 -3 38 -4.125 36.25 C-5.10177725 33.73828708 -5.20388813 31.93219648 -5.125 29.25 C-5.10695313 28.45078125 -5.08890625 27.6515625 -5.0703125 26.828125 C-5.03550781 25.92320313 -5.03550781 25.92320313 -5 25 C-2.36 25 0.28 25 3 25 C2.75105995 15.21128484 2.75105995 15.21128484 -2 7 C-1.2265625 6.38125 -1.2265625 6.38125 -0.4375 5.75 C0.036875 5.1725 0.51125 4.595 1 4 C0.77242269 1.83700789 0.77242269 1.83700789 0 0 Z " fill="#939DD5" transform="translate(27,20)"/>
<path d="M0 0 C5.94 0 11.88 0 18 0 C18.28020134 10.64765101 18.28020134 10.64765101 16 14 C15.01 14.33 14.02 14.66 13 15 C12.01 16.485 12.01 16.485 11 18 C9.02 17.67 7.04 17.34 5 17 C5 16.01 5 15.02 5 14 C4.360625 13.855625 3.72125 13.71125 3.0625 13.5625 C1 13 1 13 0 12 C-0.14355117 7.99779347 -0.04216403 4.00558317 0 0 Z " fill="#6674C4" transform="translate(64,70)"/>
<path d="M0 0 C0.598125 0.33 1.19625 0.66 1.8125 1 C4.63560507 2.29056232 6.03786821 1.74053295 9 1 C10.32 1 11.64 1 13 1 C11.99528778 3.16399555 11.11458717 4.87839729 9.46875 6.625 C7.37392051 10.01238385 7.43228439 13.3758306 7.3125 17.25 C7.27833984 17.99507812 7.24417969 18.74015625 7.20898438 19.5078125 C7.12685946 21.33802492 7.06174347 23.16898669 7 25 C6.01 25 5.02 25 4 25 C3.98582031 23.91460937 3.97164063 22.82921875 3.95703125 21.7109375 C3.91010418 20.26558387 3.86185695 18.82027269 3.8125 17.375 C3.80379883 16.30572266 3.80379883 16.30572266 3.79492188 15.21484375 C3.55860738 9.49078147 1.89798844 7.14044706 -2 3 C-2 2.34 -2 1.68 -2 1 C-1.34 0.67 -0.68 0.34 0 0 Z " fill="#FBC130" transform="translate(67,45)"/>
<path d="M0 0 C-0.8125 2.9375 -0.8125 2.9375 -2 6 C-2.99 6.33 -3.98 6.66 -5 7 C-5.99 8.485 -5.99 8.485 -7 10 C-9.97 9.505 -9.97 9.505 -13 9 C-13 8.01 -13 7.02 -13 6 C-14.32 5.67 -15.64 5.34 -17 5 C-17 4.01 -17 3.02 -17 2 C-14.91727106 1.66291092 -12.83378963 1.33046884 -10.75 1 C-9.58984375 0.814375 -8.4296875 0.62875 -7.234375 0.4375 C-4 0 -4 0 0 0 Z " fill="#949FD6" transform="translate(82,78)"/>
<path d="M0 0 C1 4 1 4 0 6 C-0.99 6.33 -1.98 6.66 -3 7 C-3.99 8.485 -3.99 8.485 -5 10 C-7.625 10.1875 -7.625 10.1875 -10 10 C-10.33 8.68 -10.66 7.36 -11 6 C-12.32 5.67 -13.64 5.34 -15 5 C-15 4.01 -15 3.02 -15 2 C-10.05 1.34 -5.1 0.68 0 0 Z " fill="#9AA5D8" transform="translate(39,53)"/>
<path d="M0 0 C0.66 0 1.32 0 2 0 C3.125 2.8125 3.125 2.8125 4 6 C3.01 7.485 3.01 7.485 2 9 C2.65484375 9.53109375 3.3096875 10.0621875 3.984375 10.609375 C6.575779 13.68290067 6.42204801 15.29289587 6.25 19.25 C6.21390625 20.32765625 6.1778125 21.4053125 6.140625 22.515625 C6.07101563 23.74539062 6.07101563 23.74539062 6 25 C5.01 25 4.02 25 3 25 C2.97421875 24.20335938 2.9484375 23.40671875 2.921875 22.5859375 C2.57910663 16.18240118 2.23755897 11.92103622 -2 7 C-1.2265625 6.38125 -1.2265625 6.38125 -0.4375 5.75 C0.2740625 4.88375 0.2740625 4.88375 1 4 C0.77242269 1.83700789 0.77242269 1.83700789 0 0 Z " fill="#6CB9F6" transform="translate(27,20)"/>
<path d="M0 0 C5.94 0 11.88 0 18 0 C18.33 0.66 18.66 1.32 19 2 C12.56971459 3.32388229 6.5705166 4.24794402 0 4 C0 2.68 0 1.36 0 0 Z " fill="#9EACDC" transform="translate(22,45)"/>
<path d="M0 0 C0 0.99 0 1.98 0 3 C-11.52164009 5.29612756 -11.52164009 5.29612756 -17 5 C-17.33 5.66 -17.66 6.32 -18 7 C-18 5.35 -18 3.7 -18 2 C-15.37518273 1.66517137 -12.75016613 1.3320723 -10.125 1 C-9.37863281 0.90460938 -8.63226563 0.80921875 -7.86328125 0.7109375 C-2.2265625 0 -2.2265625 0 0 0 Z " fill="#9CA5D8" transform="translate(82,75)"/>
<path d="M0 0 C5.94 0 11.88 0 18 0 C18 0.66 18 1.32 18 2 C15.93827387 2.33808686 13.8755797 2.67027361 11.8125 3 C10.08966797 3.2784375 10.08966797 3.2784375 8.33203125 3.5625 C5.49584607 3.93489477 2.85280436 4.08596021 0 4 C0 2.68 0 1.36 0 0 Z " fill="#AAACC8" transform="translate(64,70)"/>
<path d="M0 0 C0 0.99 0 1.98 0 3 C-6.06815522 4.22899346 -11.79895188 5.27560214 -18 5 C-18 4.34 -18 3.68 -18 3 C-15.93918639 2.49309416 -13.87626474 1.99475381 -11.8125 1.5 C-10.66394531 1.2215625 -9.51539063 0.943125 -8.33203125 0.65625 C-5.43181171 0.08504615 -2.93903615 -0.13283779 0 0 Z " fill="#6170C2" transform="translate(41,47)"/>
<path d="M0 0 C-0.33 1.32 -0.66 2.64 -1 4 C-3.2910905 4.19441368 -5.58290337 4.38033135 -7.875 4.5625 C-9.78925781 4.71912109 -9.78925781 4.71912109 -11.7421875 4.87890625 C-15 5 -15 5 -17 4 C-17 3.34 -17 2.68 -17 2 C-14.91727106 1.66291092 -12.83378963 1.33046884 -10.75 1 C-9.58984375 0.814375 -8.4296875 0.62875 -7.234375 0.4375 C-4 0 -4 0 0 0 Z " fill="#6473C3" transform="translate(82,78)"/>
<path d="M0 0 C0.33 0.99 0.66 1.98 1 3 C-4.38027025 4.19088986 -9.45291384 5.2919519 -15 5 C-15 4.01 -15 3.02 -15 2 C-10.05 1.34 -5.1 0.68 0 0 Z " fill="#616FC2" transform="translate(39,53)"/>
<path d="M0 0 C2.31 0 4.62 0 7 0 C6.67 1.32 6.34 2.64 6 4 C4.35 4 2.7 4 1 4 C0.67 2.68 0.34 1.36 0 0 Z " fill="#5C6AC1" transform="translate(28,59)"/>
<path d="M0 0 C2.31 0 4.62 0 7 0 C6.67 1.32 6.34 2.64 6 4 C3.03 3.505 3.03 3.505 0 3 C0 2.01 0 1.02 0 0 Z " fill="#5D6BC2" transform="translate(69,84)"/>
<path d="M0 0 C0.99 0 1.98 0 3 0 C3 1.32 3 2.64 3 4 C1.68 3.67 0.36 3.34 -1 3 C-0.67 2.01 -0.34 1.02 0 0 Z " fill="#FFE800" transform="translate(51,58)"/>
<path d="M0 0 C1.32 0.33 2.64 0.66 4 1 C3.67 1.99 3.34 2.98 3 4 C2.01 4 1.02 4 0 4 C0 2.68 0 1.36 0 0 Z " fill="#FFED00" transform="translate(94,53)"/>
<path d="M0 0 C0.99 0 1.98 0 3 0 C3 1.32 3 2.64 3 4 C1.68 3.67 0.36 3.34 -1 3 C-0.67 2.01 -0.34 1.02 0 0 Z " fill="#FFEC00" transform="translate(95,42)"/>
<path d="M0 0 C1.32 0 2.64 0 4 0 C3.67 1.32 3.34 2.64 3 4 C2.01 3.67 1.02 3.34 0 3 C0 2.01 0 1.02 0 0 Z " fill="#FFEE00" transform="translate(49,37)"/>
<path d="M0 0 C0.99 0 1.98 0 3 0 C3 1.32 3 2.64 3 4 C1.68 3.67 0.36 3.34 -1 3 C-0.67 2.01 -0.34 1.02 0 0 Z " fill="#FFED00" transform="translate(77,23)"/>
<path d="M0 0 C0.99 0.33 1.98 0.66 3 1 C3 1.99 3 2.98 3 4 C1.68 3.67 0.36 3.34 -1 3 C-0.67 2.01 -0.34 1.02 0 0 Z " fill="#FFE800" transform="translate(49,53)"/>
<path d="M0 0 C1.32 0.33 2.64 0.66 4 1 C3.67 1.99 3.34 2.98 3 4 C2.01 3.67 1.02 3.34 0 3 C0 2.01 0 1.02 0 0 Z " fill="#FFEB00" transform="translate(90,32)"/>
<path d="M0 0 C1.32 0.33 2.64 0.66 4 1 C3.67 1.99 3.34 2.98 3 4 C2.01 3.67 1.02 3.34 0 3 C0 2.01 0 1.02 0 0 Z " fill="#FFEB00" transform="translate(52,32)"/>
<path d="M0 0 C0.99 0.33 1.98 0.66 3 1 C3 1.99 3 2.98 3 4 C1.68 3.67 0.36 3.34 -1 3 C-0.67 2.01 -0.34 1.02 0 0 Z " fill="#FFEB00" transform="translate(87,28)"/>
<path d="M0 0 C0.99 0 1.98 0 3 0 C2.67 1.32 2.34 2.64 2 4 C1.01 3.67 0.02 3.34 -1 3 C-0.67 2.01 -0.34 1.02 0 0 Z " fill="#FFEA00" transform="translate(61,25)"/>
<path d="M0 0 C1.32 0 2.64 0 4 0 C4 0.99 4 1.98 4 3 C2.68 3 1.36 3 0 3 C0 2.01 0 1.02 0 0 Z " fill="#FFEC00" transform="translate(88,63)"/>
<path d="M0 0 C0.99 0 1.98 0 3 0 C3 1.32 3 2.64 3 4 C2.01 4 1.02 4 0 4 C0 2.68 0 1.36 0 0 Z " fill="#FFE900" transform="translate(92,58)"/>
<path d="M0 0 C1.32 0 2.64 0 4 0 C4 0.99 4 1.98 4 3 C2.68 3 1.36 3 0 3 C0 2.01 0 1.02 0 0 Z " fill="#FFEA00" transform="translate(47,48)"/>
<path d="M0 0 C0.99 0 1.98 0 3 0 C3 1.32 3 2.64 3 4 C2.01 4 1.02 4 0 4 C0 2.68 0 1.36 0 0 Z " fill="#FFE900" transform="translate(48,42)"/>
<path d="M0 0 C1.32 0.33 2.64 0.66 4 1 C3.67 1.99 3.34 2.98 3 4 C2.01 3.67 1.02 3.34 0 3 C0 2.01 0 1.02 0 0 Z " fill="#FFEA00" transform="translate(93,37)"/>
<path d="M0 0 C0.99 0 1.98 0 3 0 C3 1.32 3 2.64 3 4 C2.01 4 1.02 4 0 4 C0 2.68 0 1.36 0 0 Z " fill="#FFE800" transform="translate(56,28)"/>
<path d="M0 0 C0.99 0 1.98 0 3 0 C3 1.32 3 2.64 3 4 C2.01 4 1.02 4 0 4 C0 2.68 0 1.36 0 0 Z " fill="#FFE800" transform="translate(82,25)"/>
<path d="M0 0 C1.32 0 2.64 0 4 0 C4 0.99 4 1.98 4 3 C2.68 3 1.36 3 0 3 C0 2.01 0 1.02 0 0 Z " fill="#FFEA00" transform="translate(71,23)"/>
<path d="M0 0 C0.99 0 1.98 0 3 0 C3 1.32 3 2.64 3 4 C2.01 4 1.02 4 0 4 C0 2.68 0 1.36 0 0 Z " fill="#FFE900" transform="translate(66,23)"/>
<path d="M0 0 C0.99 0 1.98 0 3 0 C3 0.99 3 1.98 3 3 C2.01 3 1.02 3 0 3 C0 2.01 0 1.02 0 0 Z " fill="#FFE900" transform="translate(54,63)"/>
<path d="M0 0 C0.99 0 1.98 0 3 0 C3 0.99 3 1.98 3 3 C2.01 3 1.02 3 0 3 C0 2.01 0 1.02 0 0 Z " fill="#FFE900" transform="translate(95,48)"/>
</svg>
