<?xml version="1.0" encoding="UTF-8"?>
<svg version="1.1" xmlns="http://www.w3.org/2000/svg" width="100" height="100">
<path d="M0 0 C0.33 0 0.66 0 1 0 C1.15855469 0.90621094 1.31710938 1.81242188 1.48046875 2.74609375 C2.9336506 10.33314818 4.59813644 16.61531502 9 23 C9.721875 24.051875 10.44375 25.10375 11.1875 26.1875 C19.06483292 34.06483292 29.12217357 37.56870705 40 39 C40 39.33 40 39.66 40 40 C38.64068359 40.23783203 38.64068359 40.23783203 37.25390625 40.48046875 C29.66685182 41.9336506 23.38468498 43.59813644 17 48 C15.948125 48.721875 14.89625 49.44375 13.8125 50.1875 C5.93516708 58.06483292 2.43129295 68.12217357 1 79 C0.67 79 0.34 79 0 79 C-0.23783203 77.64068359 -0.23783203 77.64068359 -0.48046875 76.25390625 C-1.9336506 68.66685182 -3.59813644 62.38468498 -8 56 C-8.721875 54.948125 -9.44375 53.89625 -10.1875 52.8125 C-18.06483292 44.93516708 -28.12217357 41.43129295 -39 40 C-39 39.67 -39 39.34 -39 39 C-38.09378906 38.84144531 -37.18757813 38.68289062 -36.25390625 38.51953125 C-28.65898406 37.06484245 -22.41373231 35.36298957 -16 31 C-15.113125 30.4225 -14.22625 29.845 -13.3125 29.25 C-4.98784848 21.15033906 -1.72307446 11.21011975 0 0 Z " fill="#DFB737" transform="translate(57,12)"/>
<path d="M0 0 C0.33 0 0.66 0 1 0 C1.15855469 0.72445313 1.31710938 1.44890625 1.48046875 2.1953125 C3.51195837 10.61308717 5.99493712 14.81106454 13 20 C13 20.66 13 21.32 13 22 C13.969375 22.12375 14.93875 22.2475 15.9375 22.375 C16.948125 22.58125 17.95875 22.7875 19 23 C19.495 23.99 19.495 23.99 20 25 C18.906875 25.433125 17.81375 25.86625 16.6875 26.3125 C13.86209702 27.50873916 12.07431202 28.70733935 10 31 C9.34 31 8.68 31 8 31 C7.7525 31.515625 7.505 32.03125 7.25 32.5625 C5.91454517 35.16663693 4.47144009 37.68971234 3 40.21875 C1.93717391 42.11190897 0.97094286 44.05811428 0 46 C-0.66 43.03 -1.32 40.06 -2 37 C-2.99 37 -3.98 37 -5 37 C-5 36.34 -5 35.68 -5 35 C-6.485 34.505 -6.485 34.505 -8 34 C-8 33.34 -8 32.68 -8 32 C-8.66 32 -9.32 32 -10 32 C-10 31.34 -10 30.68 -10 30 C-11.175625 29.731875 -12.35125 29.46375 -13.5625 29.1875 C-17.60642688 28.18552881 -21.2167107 26.7340076 -25 25 C-22.09907498 23.06604999 -21.10325263 22.69868059 -17.8125 22.375 C-16.554375 22.25125 -15.29625 22.1275 -14 22 C-13.67 21.01 -13.34 20.02 -13 19 C-11.824375 18.319375 -11.824375 18.319375 -10.625 17.625 C-7.63409686 15.77348853 -6.70751226 14.00847398 -5 11 C-4.34 11 -3.68 11 -3 11 C-2.01 7.37 -1.02 3.74 0 0 Z " fill="#EFD576" transform="translate(57,27)"/>
<path d="M0 0 C1.14087 2.23375948 2.21051098 4.47532574 3.2265625 6.76953125 C6.13363431 13.09525454 8.86795114 17.48486209 14.4609375 21.6953125 C15.22277344 22.34113281 15.22277344 22.34113281 16 23 C16 23.66 16 24.32 16 25 C21.28 26.32 26.56 27.64 32 29 C32 29.33 32 29.66 32 30 C30.66195312 30.29003906 30.66195312 30.29003906 29.296875 30.5859375 C28.12640625 30.84632812 26.9559375 31.10671875 25.75 31.375 C24.58984375 31.63023438 23.4296875 31.88546875 22.234375 32.1484375 C19.53947599 32.85796405 17.40474168 33.63096389 15 35 C15 35.66 15 36.32 15 37 C14.236875 37.433125 13.47375 37.86625 12.6875 38.3125 C9.50179423 40.31282688 8.70609221 41.65890275 7 45 C6.37738281 46.15628906 6.37738281 46.15628906 5.7421875 47.3359375 C3.35886152 51.87106636 1.41001132 55.80652329 1 61 C-1.14182513 57.17848628 -1.68477464 53.52875627 -2.33984375 49.2421875 C-2.84559166 46.63962928 -2.84559166 46.63962928 -6 45 C-6 44.34 -6 43.68 -6 43 C-6.639375 42.7525 -7.27875 42.505 -7.9375 42.25 C-8.9584375 41.63125 -8.9584375 41.63125 -10 41 C-10.144375 40.34 -10.28875 39.68 -10.4375 39 C-10.623125 38.34 -10.80875 37.68 -11 37 C-13.49034386 35.70339566 -13.49034386 35.70339566 -16 35 C-12.25 33.875 -12.25 33.875 -10 35 C-10 35.66 -10 36.32 -10 37 C-9.34 37 -8.68 37 -8 37 C-6.375 38.375 -6.375 38.375 -5 40 C-5 40.66 -5 41.32 -5 42 C-4.01 42 -3.02 42 -2 42 C-1.34 43.65 -0.68 45.3 0 47 C1.88581069 45.29379033 3.13605066 43.76930541 4.4375 41.5625 C6.04217806 38.93082798 7.67976629 37.02084871 10 35 C10.66 35 11.32 35 12 35 C12.33 34.01 12.66 33.02 13 32 C16.0625 30.3125 16.0625 30.3125 19 29 C18.113125 28.773125 17.22625 28.54625 16.3125 28.3125 C12.46089342 26.78639173 10.73521059 25.08587862 8 22 C7.113125 21.030625 6.22625 20.06125 5.3125 19.0625 C3.02181248 16.0288868 2.01212177 13.62676968 1 10 C0.67 9.67 0.34 9.34 0 9 C-0.45375 10.134375 -0.9075 11.26875 -1.375 12.4375 C-3 16 -3 16 -5 17 C-5.433125 17.78375 -5.86625 18.5675 -6.3125 19.375 C-8.21705709 22.33764436 -9.96153254 23.32084693 -13 25 C-13.33 25.66 -13.66 26.32 -14 27 C-16.36328125 27.88671875 -16.36328125 27.88671875 -19.3125 28.6875 C-20.27800781 28.95949219 -21.24351563 29.23148438 -22.23828125 29.51171875 C-24.95205711 29.99152353 -26.43665005 29.90721887 -29 29 C-27.7315625 28.70609375 -27.7315625 28.70609375 -26.4375 28.40625 C-18.15613508 26.22298107 -13.40434948 23.60828872 -8 17 C-7.236875 16.236875 -6.47375 15.47375 -5.6875 14.6875 C-3.43264518 11.09643491 -2.59495788 7.43032678 -1.61328125 3.328125 C-1 1 -1 1 0 0 Z " fill="#E5C24E" transform="translate(57,22)"/>
<path d="M0 0 C0.2475 0.515625 0.495 1.03125 0.75 1.5625 C1.1625 2.366875 1.575 3.17125 2 4 C2.5775 5.175625 3.155 6.35125 3.75 7.5625 C5.82893275 11.19287509 8.08584333 12.45064632 12 14 C13.33807793 14.65709184 14.67243803 15.32191339 16 16 C15.39671875 16.23074219 14.7934375 16.46148438 14.171875 16.69921875 C9.24301278 18.71051253 5.81782538 20.26605336 3 25 C1.74443113 28.17921787 1.74443113 28.17921787 1 31 C-1 28 -1 28 -2.3125 25.0625 C-4.81190214 20.52654796 -7.49791138 18.5668259 -12.3125 16.75 C-13.199375 16.5025 -14.08625 16.255 -15 16 C-14.443125 15.731875 -13.88625 15.46375 -13.3125 15.1875 C-10.91066602 13.99300335 -10.91066602 13.99300335 -8.375 12.375 C-6 11 -6 11 -4 11 C-2.50859979 7.37802806 -1.2125738 3.72433382 0 0 Z " fill="#E6C763" transform="translate(20,10)"/>
<path d="M0 0 C0.33 0.99 0.66 1.98 1 3 C1.99 3.33 2.98 3.66 4 4 C5.5 6 5.5 6 7 8 C7.99 8.33 8.98 8.66 10 9 C11.1875 11.0625 11.1875 11.0625 12 13 C11.45730469 13.27972656 10.91460937 13.55945312 10.35546875 13.84765625 C4.95931183 16.87144869 2.85566868 19.08505609 1 25 C-2.09939687 22.93373542 -3.36005524 21.27988952 -5 18 C-5.99 17.67 -6.98 17.34 -8 17 C-9 16 -10 15 -11 14 C-12.32080842 13.30885071 -13.65312525 12.63886667 -15 12 C-14.11248047 11.77957031 -14.11248047 11.77957031 -13.20703125 11.5546875 C-7.25905534 9.86635502 -4.44220331 8.16330497 -1 3 C-0.67 2.01 -0.34 1.02 0 0 Z " fill="#F5E08D" transform="translate(57,39)"/>
<path d="M0 0 C2 2 2 2 3.3125 4.9375 C5.20516634 8.37233891 6.53211966 9.30835105 10 11 C11.33381538 11.66570171 12.66723308 12.33220171 14 13 C13.45730469 13.24234375 12.91460937 13.4846875 12.35546875 13.734375 C6.95186859 16.26579129 4.2262153 18.16034351 1.8125 23.75 C1.544375 24.4925 1.27625 25.235 1 26 C0.731875 25.443125 0.46375 24.88625 0.1875 24.3125 C-0.204375 23.549375 -0.59625 22.78625 -1 22 C-1.37125 21.175 -1.7425 20.35 -2.125 19.5 C-4.75702297 15.99063604 -8.02865993 14.68852701 -12 13 C-9.75827511 11.82440329 -7.92695608 10.98396597 -5.4375 10.4375 C-1.91978416 8.36294963 -1.56734868 5.7055197 -0.48046875 1.8984375 C-0.32191406 1.27195313 -0.16335937 0.64546875 0 0 Z " fill="#E2BD3E" transform="translate(26,62)"/>
<path d="M0 0 C0.33 0 0.66 0 1 0 C1.99 3.96 2.98 7.92 4 12 C2.68 11.67 1.36 11.34 0 11 C-0.66 12.32 -1.32 13.64 -2 15 C-2.66 15 -3.32 15 -4 15 C-4.268125 15.598125 -4.53625 16.19625 -4.8125 16.8125 C-6.88107772 20.6230379 -9.11477367 22.28541389 -13.1875 23.6875 C-13.90292969 23.93886719 -14.61835937 24.19023438 -15.35546875 24.44921875 C-15.89816406 24.63097656 -16.44085938 24.81273438 -17 25 C-16.236875 25.103125 -15.47375 25.20625 -14.6875 25.3125 C-11.67148855 26.08403781 -10.98244097 26.6871522 -9 29 C-8.113125 29.886875 -7.22625 30.77375 -6.3125 31.6875 C-5.549375 32.450625 -4.78625 33.21375 -4 34 C-4.33 34.99 -4.66 35.98 -5 37 C-5 36.34 -5 35.68 -5 35 C-6.485 34.505 -6.485 34.505 -8 34 C-8 33.34 -8 32.68 -8 32 C-8.66 32 -9.32 32 -10 32 C-10 31.34 -10 30.68 -10 30 C-11.175625 29.731875 -12.35125 29.46375 -13.5625 29.1875 C-17.60642688 28.18552881 -21.2167107 26.7340076 -25 25 C-22.09907498 23.06604999 -21.10325263 22.69868059 -17.8125 22.375 C-16.554375 22.25125 -15.29625 22.1275 -14 22 C-13.67 21.01 -13.34 20.02 -13 19 C-11.824375 18.319375 -11.824375 18.319375 -10.625 17.625 C-7.63409686 15.77348853 -6.70751226 14.00847398 -5 11 C-4.34 11 -3.68 11 -3 11 C-2.01 7.37 -1.02 3.74 0 0 Z " fill="#ECCE68" transform="translate(57,27)"/>
<path d="M0 0 C1.73662334 3.22515763 2.8905928 6.51329166 4 10 C2.68 9.01 1.36 8.02 0 7 C-0.928125 8.485 -0.928125 8.485 -1.875 10 C-2.57625 10.99 -3.2775 11.98 -4 13 C-4.66 13 -5.32 13 -6 13 C-6 13.66 -6 14.32 -6 15 C-6.99 15.495 -6.99 15.495 -8 16 C-7.01 16.33 -6.02 16.66 -5 17 C-4 18 -3 19 -2 20 C-1.01 20.33 -0.02 20.66 1 21 C1.598125 20.360625 2.19625 19.72125 2.8125 19.0625 C5 17 5 17 8 16 C8.33 15.34 8.66 14.68 9 14 C11.31 14.33 13.62 14.66 16 15 C13 17 13 17 10.0625 18.3125 C5.52654796 20.81190214 3.5668259 23.49791138 1.75 28.3125 C1.5025 29.199375 1.255 30.08625 1 31 C-1 28 -1 28 -2.3125 25.0625 C-4.81190214 20.52654796 -7.49791138 18.5668259 -12.3125 16.75 C-13.199375 16.5025 -14.08625 16.255 -15 16 C-14.443125 15.731875 -13.88625 15.46375 -13.3125 15.1875 C-10.91066602 13.99300335 -10.91066602 13.99300335 -8.375 12.375 C-6 11 -6 11 -4 11 C-2.50859979 7.37802806 -1.2125738 3.72433382 0 0 Z " fill="#E1BA40" transform="translate(20,10)"/>
<path d="M0 0 C0.66 0 1.32 0 2 0 C2 0.99 2 1.98 2 3 C3.134375 3.28875 4.26875 3.5775 5.4375 3.875 C6.613125 4.24625 7.78875 4.6175 9 5 C9.33 5.66 9.66 6.32 10 7 C9.071875 7.391875 8.14375 7.78375 7.1875 8.1875 C3.77449882 10.12822616 2.68801596 11.53018941 1 15 C-3.88926174 9.32214765 -3.88926174 9.32214765 -4 6 C-2.625 4.4375 -2.625 4.4375 -1 3 C-0.67 2.01 -0.34 1.02 0 0 Z " fill="#E8C868" transform="translate(26,68)"/>
<path d="M0 0 C1.13199353 0.9080162 2.25532363 1.82683826 3.375 2.75 C4.00148438 3.26046875 4.62796875 3.7709375 5.2734375 4.296875 C7 6 7 6 8.03515625 8.1640625 C8.35355469 8.76992188 8.67195313 9.37578125 9 10 C12.02934491 10.65772428 12.02934491 10.65772428 15 11 C15.33 11.66 15.66 12.32 16 13 C14.906875 13.433125 13.81375 13.86625 12.6875 14.3125 C9.86209702 15.50873916 8.07431202 16.70733935 6 19 C5.34 19 4.68 19 4 19 C3.71125 19.639375 3.4225 20.27875 3.125 20.9375 C2 23 2 23 0 24 C2.00844092 19.07019047 5.64105074 15.90596617 10 13 C8.68 12.34 7.36 11.68 6 11 C6 9.68 6 8.36 6 7 C4.68 6.34 3.36 5.68 2 5 C2 4.34 2 3.68 2 3 C1.34 3 0.68 3 0 3 C0 2.01 0 1.02 0 0 Z M-1 24 C0.39195915 28.17587745 -1.17676781 30.13474776 -3 34 C-4.0625 32.125 -4.0625 32.125 -5 30 C-3.89131683 27.78263366 -2.50559539 25.96382007 -1 24 Z " fill="#ECCE68" transform="translate(61,39)"/>
<path d="M0 0 C1.0828125 0.37125 1.0828125 0.37125 2.1875 0.75 C3.198125 1.03875 4.20875 1.3275 5.25 1.625 C8.18756767 2.75002591 9.20468374 3.42234613 11.1875 5.75 C12.074375 6.636875 12.96125 7.52375 13.875 8.4375 C14.638125 9.200625 15.40125 9.96375 16.1875 10.75 C15.8575 11.74 15.5275 12.73 15.1875 13.75 C15.1875 13.09 15.1875 12.43 15.1875 11.75 C14.1975 11.42 13.2075 11.09 12.1875 10.75 C12.1875 10.09 12.1875 9.43 12.1875 8.75 C11.5275 8.75 10.8675 8.75 10.1875 8.75 C10.1875 8.09 10.1875 7.43 10.1875 6.75 C8.4240625 6.3478125 8.4240625 6.3478125 6.625 5.9375 C2.58107312 4.93552881 -1.0292107 3.4840076 -4.8125 1.75 C-1.8125 -0.25 -1.8125 -0.25 0 0 Z " fill="#E8C85A" transform="translate(36.8125,50.25)"/>
<path d="M0 0 C1.65 1.65 3.3 3.3 5 5 C3.35 6.65 1.7 8.3 0 10 C-1.65 8.35 -3.3 6.7 -5 5 C-3.35 3.35 -1.7 1.7 0 0 Z " fill="#F0DC9D" transform="translate(20,20)"/>
<path d="M0 0 C1.65 1.65 3.3 3.3 5 5 C3.35 6.32 1.7 7.64 0 9 C-1.32 8.01 -2.64 7.02 -4 6 C-2.84826645 3.53199953 -1.95216435 1.95216435 0 0 Z " fill="#F0DC9B" transform="translate(26,70)"/>
<path d="M0 0 C2.64 1.32 5.28 2.64 8 4 C6.73850149 7.78449552 5.41155305 8.13176857 2 10 C1.01 10.66 0.02 11.32 -1 12 C-1 11.01 -1 10.02 -1 9 C1 7.3125 1 7.3125 3 6 C2.2575 5.071875 2.2575 5.071875 1.5 4.125 C0 2 0 2 0 0 Z " fill="#E9CD74" transform="translate(21,20)"/>
<path d="M0 0 C0.33 0.66 0.66 1.32 1 2 C-0.24877829 5.74633486 -2.06047445 7.41041797 -5 10 C-5.99 10 -6.98 10 -8 10 C-7.319375 9.38125 -7.319375 9.38125 -6.625 8.75 C-4.94049626 6.93591905 -4.00734029 5.24714373 -3 3 C-2.34 3 -1.68 3 -1 3 C-0.67 2.01 -0.34 1.02 0 0 Z M-11 11 C-10.01 11 -9.02 11 -8 11 C-8 11.66 -8 12.32 -8 13 C-9.32 12.67 -10.64 12.34 -12 12 C-11.67 11.67 -11.34 11.34 -11 11 Z " fill="#E8C95C" transform="translate(55,35)"/>
<path d="M0 0 C3.5801385 3.14353624 5.58534283 5.16233301 6 10 C5.566875 9.360625 5.13375 8.72125 4.6875 8.0625 C3.08760823 5.73253997 3.08760823 5.73253997 0 5 C-1 4 -2 3 -3 2 C-5.09989652 0.82425289 -5.09989652 0.82425289 -7 0 C-2.25 -1.125 -2.25 -1.125 0 0 Z " fill="#F2DB82" transform="translate(49,51)"/>
<path d="M0 0 C-0.53109375 0.24234375 -1.0621875 0.4846875 -1.609375 0.734375 C-5.73992624 2.69412559 -8.97110547 4.46628972 -12 8 C-11.8125 5.6875 -11.8125 5.6875 -11 3 C-8.5625 1.25 -8.5625 1.25 -6 0 C-3.50907189 -1.24546405 -2.58919267 -0.7767578 0 0 Z " fill="#E6C532" transform="translate(40,75)"/>
<path d="M0 0 C4.02992782 0.55312735 8.02022924 1.1558062 12 2 C12 2.33 12 2.66 12 3 C10.58622218 3.36552803 9.16879424 3.71695495 7.75 4.0625 C6.96109375 4.25972656 6.1721875 4.45695312 5.359375 4.66015625 C2.89605178 5.01497267 1.34395868 4.76877544 -1 4 C0.32 3.34 1.64 2.68 3 2 C2.01 1.34 1.02 0.68 0 0 Z " fill="#E4C14A" transform="translate(77,49)"/>
<path d="M0 0 C1.31611677 0.95336021 2.62778961 1.91285774 3.9375 2.875 C4.66839844 3.40867187 5.39929688 3.94234375 6.15234375 4.4921875 C8 6 8 6 9 8 C5.6936092 7.44893487 2.80017874 6.90012129 0 5 C-0.8125 2.9375 -0.8125 2.9375 -1 1 C-0.67 0.67 -0.34 0.34 0 0 Z " fill="#E2C151" transform="translate(20,16)"/>
<path d="M0 0 C0.66 0.99 1.32 1.98 2 3 C1.01 3.66 0.02 4.32 -1 5 C-1.72382467 7.05925139 -1.72382467 7.05925139 -2 9 C-2.99 7.68 -3.98 6.36 -5 5 C-3.35 3.35 -1.7 1.7 0 0 Z " fill="#EDD78F" transform="translate(20,20)"/>
<path d="M0 0 C0.66 0.99 1.32 1.98 2 3 C1.01 3.495 1.01 3.495 0 4 C-0.65213292 6.02463255 -0.65213292 6.02463255 -1 8 C-1.99 7.34 -2.98 6.68 -4 6 C-2.84826645 3.53199953 -1.95216435 1.95216435 0 0 Z " fill="#EDD68B" transform="translate(26,70)"/>
</svg>
