<?xml version="1.0" encoding="UTF-8"?>
<svg version="1.1" xmlns="http://www.w3.org/2000/svg" width="100" height="100">
<path d="M0 0 C3.69125828 0.49881869 5.70096794 1.0065389 8 4 C8.125 6.05859375 8.125 6.05859375 8 8.4375 C8.44570422 16.17446814 14.72194531 20.93932813 20 26 C25.07308288 25.10462788 27.61955277 21.85769972 31.125 18.3125 C31.75792969 17.69955078 32.39085937 17.08660156 33.04296875 16.45507812 C36.68271136 12.81147167 38.66704686 10.08416006 40 5 C42.3125 2.0625 42.3125 2.0625 45 0 C47.625 -0.125 47.625 -0.125 50 1 C52 3.1875 52 3.1875 53 6 C51.42980403 10.80872517 49.00950544 13.08399604 45 16 C38.81246437 20.91450198 33.3941106 26.40883411 29 33 C31.67013135 35.20874836 34.34768452 37.40699091 37.0390625 39.58984375 C38.82153212 41.0407458 40.59153415 42.50745321 42.3359375 44.00390625 C44.17776308 45.52464729 45.88324998 46.89285195 48 48 C50.58500543 47.46664648 50.58500543 47.46664648 53 46 C57.08912561 45.43858316 60.18150482 45.6168746 63.9375 47.375 C66 49 66 49 67 51 C67.06950541 52.54023996 67.08452357 54.08334988 67.0625 55.625 C67.05347656 56.44226563 67.04445313 57.25953125 67.03515625 58.1015625 C67.02355469 58.72804687 67.01195313 59.35453125 67 60 C63.125 59.125 63.125 59.125 62 58 C59.32941149 57.85884839 56.67567762 57.95752893 54 58 C54 59.98 54 61.96 54 64 C56.64 64 59.28 64 62 64 C61.6875 66.375 61.6875 66.375 61 69 C57.24543433 71.50304378 55.45254066 71.45280074 51 71 C46.60206636 68.71645754 44.1264247 66.47668358 42 62 C41.91363281 61.35546875 41.82726562 60.7109375 41.73828125 60.046875 C40.64524302 57.01644095 38.75747272 56.32788717 36 54.75 C31.05619912 51.77856297 26.94609721 48.47666045 22.77734375 44.50390625 C21.13357731 42.78468592 21.13357731 42.78468592 19 43 C19.20625 43.763125 19.4125 44.52625 19.625 45.3125 C20 48 20 48 18 51 C16.68 51 15.36 51 14 51 C14.2475 52.8871875 14.2475 52.8871875 14.5 54.8125 C14.5107953 61.67831236 10.20242198 65.95413417 6 71 C5.3915625 71.81726563 4.783125 72.63453125 4.15625 73.4765625 C0.01462785 78.80419462 0.01462785 78.80419462 -4.5625 79.6875 C-9.96030313 78.60793937 -14.81998672 76.64771172 -18 72 C-19.13814223 67.63863896 -18.60963395 64.24546993 -16.63671875 60.21484375 C-14.87311697 57.3719646 -12.99980872 54.68128512 -11 52 C-10.49855469 51.30261719 -9.99710938 50.60523438 -9.48046875 49.88671875 C-6.35278538 45.86294979 -3.33626297 44.01019176 1.296875 41.9765625 C3.29622636 41.02755714 3.29622636 41.02755714 4.5 38.25 C4.665 37.5075 4.83 36.765 5 36 C10.75 35.875 10.75 35.875 13 37 C6.13351132 27.80946068 6.13351132 27.80946068 -3.453125 22.55078125 C-5.17716648 22.43464073 -6.90263815 22.33791628 -8.62890625 22.26171875 C-12.21525973 21.86586095 -14.32800673 20.33799412 -17 18 C-18.78598186 15.09087491 -19.29524962 12.83582512 -19.3125 9.4375 C-19.32925781 8.67308594 -19.34601562 7.90867187 -19.36328125 7.12109375 C-18.90986384 4.47372115 -18.12953071 3.59462489 -16 2 C-13.3125 1.8125 -13.3125 1.8125 -11 2 C-11 4.31 -11 6.62 -11 9 C-6.22237362 10.01687046 -6.22237362 10.01687046 -1.5625 9.0625 C-1.046875 8.711875 -0.53125 8.36125 0 8 C0 5.36 0 2.72 0 0 Z " fill="#060604" transform="translate(30,10)"/>
<path d="M0 0 C4.16142472 1.38221389 6.66570395 3.2877122 9.8125 6.3125 C15.78120113 12.10722785 15.78120113 12.10722785 23 16 C24.98745978 15.13924336 24.98745978 15.13924336 27 14 C29.25390625 13.734375 29.25390625 13.734375 31.5625 13.75 C32.32691406 13.74484375 33.09132812 13.7396875 33.87890625 13.734375 C36 14 36 14 39 16 C39 17.32 39 18.64 39 20 C38.30132812 20.04898438 37.60265625 20.09796875 36.8828125 20.1484375 C35.97273438 20.22320312 35.06265625 20.29796875 34.125 20.375 C32.76761719 20.47941406 32.76761719 20.47941406 31.3828125 20.5859375 C28.82058097 20.79568132 28.82058097 20.79568132 27 23 C26.75787127 24.98128508 26.75787127 24.98128508 26.875 27.125 C26.91625 28.40375 26.9575 29.6825 27 31 C28.98 31.33 30.96 31.66 33 32 C33 32.33 33 32.66 33 33 C28.58021343 33.44197866 26.46682643 33.28528282 22.625 30.9375 C20 28 20 28 19.625 24.4375 C19.41875 23.303125 19.2125 22.16875 19 21 C15.82931911 19.12222918 15.82931911 19.12222918 13.39453125 18.1640625 C9.58748876 16.31333059 6.5398633 13.59278468 3.296875 10.90234375 C1.24120554 9.19977398 -0.85103017 7.58215439 -3 6 C-2.42655063 3.13275314 -2.1385485 2.1385485 0 0 Z " fill="#70C6C9" transform="translate(55,45)"/>
<path d="M0 0 C2 1.5 2 1.5 4 4 C3.90303677 5.97158574 3.80521437 7.94315566 3.6953125 9.9140625 C4.30430472 14.08331694 7.9354497 16.40594082 11 19 C16.45822102 24.21563342 16.45822102 24.21563342 18 28 C17.01 28.99 16.02 29.98 15 31 C11.35702046 29.60631776 9.16001963 27.27363754 6.48266602 24.55664062 C1.60566148 19.34721211 1.60566148 19.34721211 -4.640625 16.3515625 C-6.91599993 16.46457108 -6.91599993 16.46457108 -9.0625 16.828125 C-11 17 -11 17 -14.4375 15.25 C-18.25472547 11.89828983 -18.25472547 11.89828983 -19 9 C-18.625 5.25 -18.625 5.25 -18 2 C-17.34 2 -16.68 2 -16 2 C-15.938125 2.763125 -15.87625 3.52625 -15.8125 4.3125 C-15.21821802 7.16768644 -15.21821802 7.16768644 -12.75 8.875 C-9.51921222 10.19668591 -8.25576453 10.16873599 -5 9 C-2.67316312 7.92154693 -2.67316312 7.92154693 -1 6 C-0.19053578 2.89802603 -0.19053578 2.89802603 0 0 Z " fill="#6FC4C6" transform="translate(32,13)"/>
<path d="M0 0 C1.32 0.66 2.64 1.32 4 2 C3.75363726 5.32589704 2.84360288 6.14184855 0.3125 8.4375 C-0.78519159 9.29997197 -1.88946712 10.15412682 -3 11 C-7.10792633 14.23389945 -10.47387127 17.56751301 -13.8671875 21.5390625 C-16.60780326 24.70131146 -19.4209724 27.7918783 -22.25 30.875 C-23.02947998 31.73254883 -23.02947998 31.73254883 -23.82470703 32.60742188 C-26.10963096 35.09197053 -28.17760501 37.11840334 -31 39 C-31 35 -31 35 -28.73681641 32.34619141 C-27.70114568 31.33821794 -26.65531879 30.34061359 -25.6015625 29.3515625 C-25.05140472 28.81655121 -24.50124695 28.28153992 -23.93441772 27.73031616 C-21.58160621 25.44282928 -19.20606679 23.17948204 -16.83203125 20.9140625 C-15.1011035 19.25573437 -13.3824808 17.58533472 -11.6640625 15.9140625 C-11.12754059 15.41073395 -10.59101868 14.9074054 -10.03823853 14.38882446 C-6.69342013 11.13233054 -5.24995738 8.45987928 -4 4 C-1.875 1.625 -1.875 1.625 0 0 Z " fill="#E4AC0E" transform="translate(76,13)"/>
<path d="M0 0 C2.475 0.99 2.475 0.99 5 2 C3.32076975 5.80133442 0.88537166 8.97082702 -1.625 12.25 C-2.04523437 12.80429688 -2.46546875 13.35859375 -2.8984375 13.9296875 C-3.92938719 15.28866663 -4.96429911 16.64463835 -6 18 C-7.32 17.67 -8.64 17.34 -10 17 C-10.8046875 15.3515625 -10.8046875 15.3515625 -11 13 C-9.43445929 10.92253343 -7.94506152 9.19994105 -6.125 7.375 C-2.66549907 3.98478555 -2.66549907 3.98478555 0 0 Z " fill="#EA7E1D" transform="translate(32,64)"/>
<path d="M0 0 C2.56957396 1.80703206 4.9456142 3.61217986 7 6 C6.9375 9.375 6.9375 9.375 6 12 C3.35337395 11.84876423 1.55721506 11.49998757 -0.4453125 9.703125 C-4 5.6 -4 5.6 -4 2 C-2.68 1.34 -1.36 0.68 0 0 Z " fill="#EB7F1D" transform="translate(35,53)"/>
<path d="M0 0 C1.32 0.66 2.64 1.32 4 2 C3.75363726 5.32589704 2.84360288 6.14184855 0.3125 8.4375 C-0.78842134 9.29584545 -1.89274923 10.14983504 -3 11 C-4.1289588 11.93272894 -5.25415726 12.87003366 -6.375 13.8125 C-7.24125 14.534375 -8.1075 15.25625 -9 16 C-9.66 15.67 -10.32 15.34 -11 15 C-10.21625 14.29875 -9.4325 13.5975 -8.625 12.875 C-5.86210711 9.84897445 -5.22106718 7.8260105 -4 4 C-1.875 1.625 -1.875 1.625 0 0 Z " fill="#EFB40E" transform="translate(76,13)"/>
<path d="M0 0 C0.66 0 1.32 0 2 0 C1.63174813 5.08942973 -1.16460208 7.82127655 -4.5625 11.3125 C-5.34270508 12.13717773 -5.34270508 12.13717773 -6.13867188 12.97851562 C-7.41708817 14.32730346 -8.70739433 15.66480436 -10 17 C-10.66 16.34 -11.32 15.68 -12 15 C-9.67909164 11.99017648 -7.34452752 8.99146146 -5 6 C-4.50242187 5.36191406 -4.00484375 4.72382812 -3.4921875 4.06640625 C-2.37522237 2.67187194 -1.19336184 1.32974605 0 0 Z " fill="#ECB10E" transform="translate(29,60)"/>
<path d="M0 0 C0.66 0 1.32 0 2 0 C0.53238339 4.49457587 -1.97830424 7.75984913 -5 11.3125 C-5.67675781 12.13717773 -5.67675781 12.13717773 -6.3671875 12.97851562 C-7.52888643 14.36189971 -8.75982695 15.68650591 -10 17 C-10.66 17 -11.32 17 -12 17 C-10.60827683 12.9625531 -8.70711315 10.10184153 -6 6.8125 C-5.29875 5.95269531 -4.5975 5.09289062 -3.875 4.20703125 C-2 2 -2 2 0 0 Z " fill="#D7401F" transform="translate(39,68)"/>
<path d="M0 0 C4.29238623 1.65091778 6.8793915 4.73754566 10 8 C9.67 8.99 9.34 9.98 9 11 C5.01618925 8.83735988 2.11016455 6.28788824 -1 3 C-0.67 2.01 -0.34 1.02 0 0 Z " fill="#EAB00E" transform="translate(37,48)"/>
<path d="M0 0 C3.80635497 3.20760251 7.54563567 6.40746109 11 10 C7.06089933 9.72517902 5.24636457 9.19816281 2.125 6.6875 C0 4 0 4 0 0 Z " fill="#DE781B" transform="translate(14,76)"/>
<path d="M0 0 C0 3 0 3 -2 6 C-2.4021875 7.2684375 -2.4021875 7.2684375 -2.8125 8.5625 C-4 11 -4 11 -6.625 12.3125 C-7.40875 12.539375 -8.1925 12.76625 -9 13 C-7.47987323 7.59510481 -3.72614782 4.01507372 0 0 Z " fill="#6E220F" transform="translate(25,60)"/>
<path d="M0 0 C0 4.16207365 -0.19112905 6.11759533 -3.0625 9.25 C-3.701875 9.8275 -4.34125 10.405 -5 11 C-5 8 -5 8 -3 6 C-2.31246699 4.34183216 -1.64438717 2.67540664 -1 1 C-0.67 0.67 -0.34 0.34 0 0 Z " fill="#3A1407" transform="translate(28,56)"/>
</svg>
